<?xml version="1.0" encoding="utf-8" standalone="no"?>
<!DOCTYPE svg PUBLIC "-//W3C//DTD SVG 1.1//EN"
  "http://www.w3.org/Graphics/SVG/1.1/DTD/svg11.dtd">
<!-- Created with matplotlib (https://matplotlib.org/) -->
<svg height="432pt" version="1.1" viewBox="0 0 720 432" width="720pt" xmlns="http://www.w3.org/2000/svg" xmlns:xlink="http://www.w3.org/1999/xlink">
 <defs>
  <style type="text/css">
*{stroke-linecap:butt;stroke-linejoin:round;white-space:pre;}
  </style>
 </defs>
 <g id="figure_1">
  <g id="patch_1">
   <path d="M 0 432 
L 720 432 
L 720 0 
L 0 0 
z
" style="fill:#ffffff;"/>
  </g>
  <g id="axes_1">
   <g id="patch_2">
    <path d="M 197.877372 49.335826 
L 291.910715 49.335826 
L 313.09333 94.835091 
" style="fill:none;stroke:#000000;stroke-linecap:round;"/>
   </g>
   <g id="text_1">
    <g id="patch_3">
     <path d="M 90.103287 62.773795 
L 195.8736 62.773795 
L 195.8736 35.897858 
L 90.103287 35.897858 
z
" style="fill:#ffffff;"/>
    </g>
    <!-- Necrosis Palisading  -->
    <defs>
     <path d="M 9.8125 72.90625 
L 23.09375 72.90625 
L 55.421875 11.921875 
L 55.421875 72.90625 
L 64.984375 72.90625 
L 64.984375 0 
L 51.703125 0 
L 19.390625 60.984375 
L 19.390625 0 
L 9.8125 0 
z
" id="DejaVuSans-78"/>
     <path d="M 56.203125 29.59375 
L 56.203125 25.203125 
L 14.890625 25.203125 
Q 15.484375 15.921875 20.484375 11.0625 
Q 25.484375 6.203125 34.421875 6.203125 
Q 39.59375 6.203125 44.453125 7.46875 
Q 49.3125 8.734375 54.109375 11.28125 
L 54.109375 2.78125 
Q 49.265625 0.734375 44.1875 -0.34375 
Q 39.109375 -1.421875 33.890625 -1.421875 
Q 20.796875 -1.421875 13.15625 6.1875 
Q 5.515625 13.8125 5.515625 26.8125 
Q 5.515625 40.234375 12.765625 48.109375 
Q 20.015625 56 32.328125 56 
Q 43.359375 56 49.78125 48.890625 
Q 56.203125 41.796875 56.203125 29.59375 
z
M 47.21875 32.234375 
Q 47.125 39.59375 43.09375 43.984375 
Q 39.0625 48.390625 32.421875 48.390625 
Q 24.90625 48.390625 20.390625 44.140625 
Q 15.875 39.890625 15.1875 32.171875 
z
" id="DejaVuSans-101"/>
     <path d="M 48.78125 52.59375 
L 48.78125 44.1875 
Q 44.96875 46.296875 41.140625 47.34375 
Q 37.3125 48.390625 33.40625 48.390625 
Q 24.65625 48.390625 19.8125 42.84375 
Q 14.984375 37.3125 14.984375 27.296875 
Q 14.984375 17.28125 19.8125 11.734375 
Q 24.65625 6.203125 33.40625 6.203125 
Q 37.3125 6.203125 41.140625 7.25 
Q 44.96875 8.296875 48.78125 10.40625 
L 48.78125 2.09375 
Q 45.015625 0.34375 40.984375 -0.53125 
Q 36.96875 -1.421875 32.421875 -1.421875 
Q 20.0625 -1.421875 12.78125 6.34375 
Q 5.515625 14.109375 5.515625 27.296875 
Q 5.515625 40.671875 12.859375 48.328125 
Q 20.21875 56 33.015625 56 
Q 37.15625 56 41.109375 55.140625 
Q 45.0625 54.296875 48.78125 52.59375 
z
" id="DejaVuSans-99"/>
     <path d="M 41.109375 46.296875 
Q 39.59375 47.171875 37.8125 47.578125 
Q 36.03125 48 33.890625 48 
Q 26.265625 48 22.1875 43.046875 
Q 18.109375 38.09375 18.109375 28.8125 
L 18.109375 0 
L 9.078125 0 
L 9.078125 54.6875 
L 18.109375 54.6875 
L 18.109375 46.1875 
Q 20.953125 51.171875 25.484375 53.578125 
Q 30.03125 56 36.53125 56 
Q 37.453125 56 38.578125 55.875 
Q 39.703125 55.765625 41.0625 55.515625 
z
" id="DejaVuSans-114"/>
     <path d="M 30.609375 48.390625 
Q 23.390625 48.390625 19.1875 42.75 
Q 14.984375 37.109375 14.984375 27.296875 
Q 14.984375 17.484375 19.15625 11.84375 
Q 23.34375 6.203125 30.609375 6.203125 
Q 37.796875 6.203125 41.984375 11.859375 
Q 46.1875 17.53125 46.1875 27.296875 
Q 46.1875 37.015625 41.984375 42.703125 
Q 37.796875 48.390625 30.609375 48.390625 
z
M 30.609375 56 
Q 42.328125 56 49.015625 48.375 
Q 55.71875 40.765625 55.71875 27.296875 
Q 55.71875 13.875 49.015625 6.21875 
Q 42.328125 -1.421875 30.609375 -1.421875 
Q 18.84375 -1.421875 12.171875 6.21875 
Q 5.515625 13.875 5.515625 27.296875 
Q 5.515625 40.765625 12.171875 48.375 
Q 18.84375 56 30.609375 56 
z
" id="DejaVuSans-111"/>
     <path d="M 44.28125 53.078125 
L 44.28125 44.578125 
Q 40.484375 46.53125 36.375 47.5 
Q 32.28125 48.484375 27.875 48.484375 
Q 21.1875 48.484375 17.84375 46.4375 
Q 14.5 44.390625 14.5 40.28125 
Q 14.5 37.15625 16.890625 35.375 
Q 19.28125 33.59375 26.515625 31.984375 
L 29.59375 31.296875 
Q 39.15625 29.25 43.1875 25.515625 
Q 47.21875 21.78125 47.21875 15.09375 
Q 47.21875 7.46875 41.1875 3.015625 
Q 35.15625 -1.421875 24.609375 -1.421875 
Q 20.21875 -1.421875 15.453125 -0.5625 
Q 10.6875 0.296875 5.421875 2 
L 5.421875 11.28125 
Q 10.40625 8.6875 15.234375 7.390625 
Q 20.0625 6.109375 24.8125 6.109375 
Q 31.15625 6.109375 34.5625 8.28125 
Q 37.984375 10.453125 37.984375 14.40625 
Q 37.984375 18.0625 35.515625 20.015625 
Q 33.0625 21.96875 24.703125 23.78125 
L 21.578125 24.515625 
Q 13.234375 26.265625 9.515625 29.90625 
Q 5.8125 33.546875 5.8125 39.890625 
Q 5.8125 47.609375 11.28125 51.796875 
Q 16.75 56 26.8125 56 
Q 31.78125 56 36.171875 55.265625 
Q 40.578125 54.546875 44.28125 53.078125 
z
" id="DejaVuSans-115"/>
     <path d="M 9.421875 54.6875 
L 18.40625 54.6875 
L 18.40625 0 
L 9.421875 0 
z
M 9.421875 75.984375 
L 18.40625 75.984375 
L 18.40625 64.59375 
L 9.421875 64.59375 
z
" id="DejaVuSans-105"/>
     <path id="DejaVuSans-32"/>
     <path d="M 19.671875 64.796875 
L 19.671875 37.40625 
L 32.078125 37.40625 
Q 38.96875 37.40625 42.71875 40.96875 
Q 46.484375 44.53125 46.484375 51.125 
Q 46.484375 57.671875 42.71875 61.234375 
Q 38.96875 64.796875 32.078125 64.796875 
z
M 9.8125 72.90625 
L 32.078125 72.90625 
Q 44.34375 72.90625 50.609375 67.359375 
Q 56.890625 61.8125 56.890625 51.125 
Q 56.890625 40.328125 50.609375 34.8125 
Q 44.34375 29.296875 32.078125 29.296875 
L 19.671875 29.296875 
L 19.671875 0 
L 9.8125 0 
z
" id="DejaVuSans-80"/>
     <path d="M 34.28125 27.484375 
Q 23.390625 27.484375 19.1875 25 
Q 14.984375 22.515625 14.984375 16.5 
Q 14.984375 11.71875 18.140625 8.90625 
Q 21.296875 6.109375 26.703125 6.109375 
Q 34.1875 6.109375 38.703125 11.40625 
Q 43.21875 16.703125 43.21875 25.484375 
L 43.21875 27.484375 
z
M 52.203125 31.203125 
L 52.203125 0 
L 43.21875 0 
L 43.21875 8.296875 
Q 40.140625 3.328125 35.546875 0.953125 
Q 30.953125 -1.421875 24.3125 -1.421875 
Q 15.921875 -1.421875 10.953125 3.296875 
Q 6 8.015625 6 15.921875 
Q 6 25.140625 12.171875 29.828125 
Q 18.359375 34.515625 30.609375 34.515625 
L 43.21875 34.515625 
L 43.21875 35.40625 
Q 43.21875 41.609375 39.140625 45 
Q 35.0625 48.390625 27.6875 48.390625 
Q 23 48.390625 18.546875 47.265625 
Q 14.109375 46.140625 10.015625 43.890625 
L 10.015625 52.203125 
Q 14.9375 54.109375 19.578125 55.046875 
Q 24.21875 56 28.609375 56 
Q 40.484375 56 46.34375 49.84375 
Q 52.203125 43.703125 52.203125 31.203125 
z
" id="DejaVuSans-97"/>
     <path d="M 9.421875 75.984375 
L 18.40625 75.984375 
L 18.40625 0 
L 9.421875 0 
z
" id="DejaVuSans-108"/>
     <path d="M 45.40625 46.390625 
L 45.40625 75.984375 
L 54.390625 75.984375 
L 54.390625 0 
L 45.40625 0 
L 45.40625 8.203125 
Q 42.578125 3.328125 38.25 0.953125 
Q 33.9375 -1.421875 27.875 -1.421875 
Q 17.96875 -1.421875 11.734375 6.484375 
Q 5.515625 14.40625 5.515625 27.296875 
Q 5.515625 40.1875 11.734375 48.09375 
Q 17.96875 56 27.875 56 
Q 33.9375 56 38.25 53.625 
Q 42.578125 51.265625 45.40625 46.390625 
z
M 14.796875 27.296875 
Q 14.796875 17.390625 18.875 11.75 
Q 22.953125 6.109375 30.078125 6.109375 
Q 37.203125 6.109375 41.296875 11.75 
Q 45.40625 17.390625 45.40625 27.296875 
Q 45.40625 37.203125 41.296875 42.84375 
Q 37.203125 48.484375 30.078125 48.484375 
Q 22.953125 48.484375 18.875 42.84375 
Q 14.796875 37.203125 14.796875 27.296875 
z
" id="DejaVuSans-100"/>
     <path d="M 54.890625 33.015625 
L 54.890625 0 
L 45.90625 0 
L 45.90625 32.71875 
Q 45.90625 40.484375 42.875 44.328125 
Q 39.84375 48.1875 33.796875 48.1875 
Q 26.515625 48.1875 22.3125 43.546875 
Q 18.109375 38.921875 18.109375 30.90625 
L 18.109375 0 
L 9.078125 0 
L 9.078125 54.6875 
L 18.109375 54.6875 
L 18.109375 46.1875 
Q 21.34375 51.125 25.703125 53.5625 
Q 30.078125 56 35.796875 56 
Q 45.21875 56 50.046875 50.171875 
Q 54.890625 44.34375 54.890625 33.015625 
z
" id="DejaVuSans-110"/>
     <path d="M 45.40625 27.984375 
Q 45.40625 37.75 41.375 43.109375 
Q 37.359375 48.484375 30.078125 48.484375 
Q 22.859375 48.484375 18.828125 43.109375 
Q 14.796875 37.75 14.796875 27.984375 
Q 14.796875 18.265625 18.828125 12.890625 
Q 22.859375 7.515625 30.078125 7.515625 
Q 37.359375 7.515625 41.375 12.890625 
Q 45.40625 18.265625 45.40625 27.984375 
z
M 54.390625 6.78125 
Q 54.390625 -7.171875 48.1875 -13.984375 
Q 42 -20.796875 29.203125 -20.796875 
Q 24.46875 -20.796875 20.265625 -20.09375 
Q 16.0625 -19.390625 12.109375 -17.921875 
L 12.109375 -9.1875 
Q 16.0625 -11.328125 19.921875 -12.34375 
Q 23.78125 -13.375 27.78125 -13.375 
Q 36.625 -13.375 41.015625 -8.765625 
Q 45.40625 -4.15625 45.40625 5.171875 
L 45.40625 9.625 
Q 42.625 4.78125 38.28125 2.390625 
Q 33.9375 0 27.875 0 
Q 17.828125 0 11.671875 7.65625 
Q 5.515625 15.328125 5.515625 27.984375 
Q 5.515625 40.671875 11.671875 48.328125 
Q 17.828125 56 27.875 56 
Q 33.9375 56 38.28125 53.609375 
Q 42.625 51.21875 45.40625 46.390625 
L 45.40625 54.6875 
L 54.390625 54.6875 
z
" id="DejaVuSans-103"/>
    </defs>
    <g transform="translate(93.103287 46.496295)scale(0.1 -0.1)">
     <use xlink:href="#DejaVuSans-78"/>
     <use x="74.804688" xlink:href="#DejaVuSans-101"/>
     <use x="136.328125" xlink:href="#DejaVuSans-99"/>
     <use x="191.308594" xlink:href="#DejaVuSans-114"/>
     <use x="232.390625" xlink:href="#DejaVuSans-111"/>
     <use x="293.572266" xlink:href="#DejaVuSans-115"/>
     <use x="345.671875" xlink:href="#DejaVuSans-105"/>
     <use x="373.455078" xlink:href="#DejaVuSans-115"/>
     <use x="425.554688" xlink:href="#DejaVuSans-32"/>
     <use x="457.341797" xlink:href="#DejaVuSans-80"/>
     <use x="517.582031" xlink:href="#DejaVuSans-97"/>
     <use x="578.861328" xlink:href="#DejaVuSans-108"/>
     <use x="606.644531" xlink:href="#DejaVuSans-105"/>
     <use x="634.427734" xlink:href="#DejaVuSans-115"/>
     <use x="686.527344" xlink:href="#DejaVuSans-97"/>
     <use x="747.806641" xlink:href="#DejaVuSans-100"/>
     <use x="811.283203" xlink:href="#DejaVuSans-105"/>
     <use x="839.066406" xlink:href="#DejaVuSans-110"/>
     <use x="902.445312" xlink:href="#DejaVuSans-103"/>
     <use x="965.921875" xlink:href="#DejaVuSans-32"/>
    </g>
    <!-- + CD276 Positive -->
    <defs>
     <path d="M 46 62.703125 
L 46 35.5 
L 73.1875 35.5 
L 73.1875 27.203125 
L 46 27.203125 
L 46 0 
L 37.796875 0 
L 37.796875 27.203125 
L 10.59375 27.203125 
L 10.59375 35.5 
L 37.796875 35.5 
L 37.796875 62.703125 
z
" id="DejaVuSans-43"/>
     <path d="M 64.40625 67.28125 
L 64.40625 56.890625 
Q 59.421875 61.53125 53.78125 63.8125 
Q 48.140625 66.109375 41.796875 66.109375 
Q 29.296875 66.109375 22.65625 58.46875 
Q 16.015625 50.828125 16.015625 36.375 
Q 16.015625 21.96875 22.65625 14.328125 
Q 29.296875 6.6875 41.796875 6.6875 
Q 48.140625 6.6875 53.78125 8.984375 
Q 59.421875 11.28125 64.40625 15.921875 
L 64.40625 5.609375 
Q 59.234375 2.09375 53.4375 0.328125 
Q 47.65625 -1.421875 41.21875 -1.421875 
Q 24.65625 -1.421875 15.125 8.703125 
Q 5.609375 18.84375 5.609375 36.375 
Q 5.609375 53.953125 15.125 64.078125 
Q 24.65625 74.21875 41.21875 74.21875 
Q 47.75 74.21875 53.53125 72.484375 
Q 59.328125 70.75 64.40625 67.28125 
z
" id="DejaVuSans-67"/>
     <path d="M 19.671875 64.796875 
L 19.671875 8.109375 
L 31.59375 8.109375 
Q 46.6875 8.109375 53.6875 14.9375 
Q 60.6875 21.78125 60.6875 36.53125 
Q 60.6875 51.171875 53.6875 57.984375 
Q 46.6875 64.796875 31.59375 64.796875 
z
M 9.8125 72.90625 
L 30.078125 72.90625 
Q 51.265625 72.90625 61.171875 64.09375 
Q 71.09375 55.28125 71.09375 36.53125 
Q 71.09375 17.671875 61.125 8.828125 
Q 51.171875 0 30.078125 0 
L 9.8125 0 
z
" id="DejaVuSans-68"/>
     <path d="M 19.1875 8.296875 
L 53.609375 8.296875 
L 53.609375 0 
L 7.328125 0 
L 7.328125 8.296875 
Q 12.9375 14.109375 22.625 23.890625 
Q 32.328125 33.6875 34.8125 36.53125 
Q 39.546875 41.84375 41.421875 45.53125 
Q 43.3125 49.21875 43.3125 52.78125 
Q 43.3125 58.59375 39.234375 62.25 
Q 35.15625 65.921875 28.609375 65.921875 
Q 23.96875 65.921875 18.8125 64.3125 
Q 13.671875 62.703125 7.8125 59.421875 
L 7.8125 69.390625 
Q 13.765625 71.78125 18.9375 73 
Q 24.125 74.21875 28.421875 74.21875 
Q 39.75 74.21875 46.484375 68.546875 
Q 53.21875 62.890625 53.21875 53.421875 
Q 53.21875 48.921875 51.53125 44.890625 
Q 49.859375 40.875 45.40625 35.40625 
Q 44.1875 33.984375 37.640625 27.21875 
Q 31.109375 20.453125 19.1875 8.296875 
z
" id="DejaVuSans-50"/>
     <path d="M 8.203125 72.90625 
L 55.078125 72.90625 
L 55.078125 68.703125 
L 28.609375 0 
L 18.3125 0 
L 43.21875 64.59375 
L 8.203125 64.59375 
z
" id="DejaVuSans-55"/>
     <path d="M 33.015625 40.375 
Q 26.375 40.375 22.484375 35.828125 
Q 18.609375 31.296875 18.609375 23.390625 
Q 18.609375 15.53125 22.484375 10.953125 
Q 26.375 6.390625 33.015625 6.390625 
Q 39.65625 6.390625 43.53125 10.953125 
Q 47.40625 15.53125 47.40625 23.390625 
Q 47.40625 31.296875 43.53125 35.828125 
Q 39.65625 40.375 33.015625 40.375 
z
M 52.59375 71.296875 
L 52.59375 62.3125 
Q 48.875 64.0625 45.09375 64.984375 
Q 41.3125 65.921875 37.59375 65.921875 
Q 27.828125 65.921875 22.671875 59.328125 
Q 17.53125 52.734375 16.796875 39.40625 
Q 19.671875 43.65625 24.015625 45.921875 
Q 28.375 48.1875 33.59375 48.1875 
Q 44.578125 48.1875 50.953125 41.515625 
Q 57.328125 34.859375 57.328125 23.390625 
Q 57.328125 12.15625 50.6875 5.359375 
Q 44.046875 -1.421875 33.015625 -1.421875 
Q 20.359375 -1.421875 13.671875 8.265625 
Q 6.984375 17.96875 6.984375 36.375 
Q 6.984375 53.65625 15.1875 63.9375 
Q 23.390625 74.21875 37.203125 74.21875 
Q 40.921875 74.21875 44.703125 73.484375 
Q 48.484375 72.75 52.59375 71.296875 
z
" id="DejaVuSans-54"/>
     <path d="M 18.3125 70.21875 
L 18.3125 54.6875 
L 36.8125 54.6875 
L 36.8125 47.703125 
L 18.3125 47.703125 
L 18.3125 18.015625 
Q 18.3125 11.328125 20.140625 9.421875 
Q 21.96875 7.515625 27.59375 7.515625 
L 36.8125 7.515625 
L 36.8125 0 
L 27.59375 0 
Q 17.1875 0 13.234375 3.875 
Q 9.28125 7.765625 9.28125 18.015625 
L 9.28125 47.703125 
L 2.6875 47.703125 
L 2.6875 54.6875 
L 9.28125 54.6875 
L 9.28125 70.21875 
z
" id="DejaVuSans-116"/>
     <path d="M 2.984375 54.6875 
L 12.5 54.6875 
L 29.59375 8.796875 
L 46.6875 54.6875 
L 56.203125 54.6875 
L 35.6875 0 
L 23.484375 0 
z
" id="DejaVuSans-118"/>
    </defs>
    <g transform="translate(105.465787 57.694108)scale(0.1 -0.1)">
     <use xlink:href="#DejaVuSans-43"/>
     <use x="83.789062" xlink:href="#DejaVuSans-32"/>
     <use x="115.576172" xlink:href="#DejaVuSans-67"/>
     <use x="185.400391" xlink:href="#DejaVuSans-68"/>
     <use x="262.402344" xlink:href="#DejaVuSans-50"/>
     <use x="326.025391" xlink:href="#DejaVuSans-55"/>
     <use x="389.648438" xlink:href="#DejaVuSans-54"/>
     <use x="453.271484" xlink:href="#DejaVuSans-32"/>
     <use x="485.058594" xlink:href="#DejaVuSans-80"/>
     <use x="545.314453" xlink:href="#DejaVuSans-111"/>
     <use x="606.496094" xlink:href="#DejaVuSans-115"/>
     <use x="658.595703" xlink:href="#DejaVuSans-105"/>
     <use x="686.378906" xlink:href="#DejaVuSans-116"/>
     <use x="725.587891" xlink:href="#DejaVuSans-105"/>
     <use x="753.371094" xlink:href="#DejaVuSans-118"/>
     <use x="812.550781" xlink:href="#DejaVuSans-101"/>
    </g>
   </g>
   <g id="patch_4">
    <path d="M 197.874515 84.332405 
L 241.298174 84.332405 
L 276.388117 120.2153 
" style="fill:none;stroke:#000000;stroke-linecap:round;"/>
   </g>
   <g id="text_2">
    <g id="patch_5">
     <path d="M 87.137662 97.770373 
L 195.8736 97.770373 
L 195.8736 70.894436 
L 87.137662 70.894436 
z
" style="fill:#ffffff;"/>
    </g>
    <!-- MicVas-Proliferation  -->
    <defs>
     <path d="M 9.8125 72.90625 
L 24.515625 72.90625 
L 43.109375 23.296875 
L 61.8125 72.90625 
L 76.515625 72.90625 
L 76.515625 0 
L 66.890625 0 
L 66.890625 64.015625 
L 48.09375 14.015625 
L 38.1875 14.015625 
L 19.390625 64.015625 
L 19.390625 0 
L 9.8125 0 
z
" id="DejaVuSans-77"/>
     <path d="M 28.609375 0 
L 0.78125 72.90625 
L 11.078125 72.90625 
L 34.1875 11.53125 
L 57.328125 72.90625 
L 67.578125 72.90625 
L 39.796875 0 
z
" id="DejaVuSans-86"/>
     <path d="M 4.890625 31.390625 
L 31.203125 31.390625 
L 31.203125 23.390625 
L 4.890625 23.390625 
z
" id="DejaVuSans-45"/>
     <path d="M 37.109375 75.984375 
L 37.109375 68.5 
L 28.515625 68.5 
Q 23.6875 68.5 21.796875 66.546875 
Q 19.921875 64.59375 19.921875 59.515625 
L 19.921875 54.6875 
L 34.71875 54.6875 
L 34.71875 47.703125 
L 19.921875 47.703125 
L 19.921875 0 
L 10.890625 0 
L 10.890625 47.703125 
L 2.296875 47.703125 
L 2.296875 54.6875 
L 10.890625 54.6875 
L 10.890625 58.5 
Q 10.890625 67.625 15.140625 71.796875 
Q 19.390625 75.984375 28.609375 75.984375 
z
" id="DejaVuSans-102"/>
    </defs>
    <g transform="translate(90.137662 81.492873)scale(0.1 -0.1)">
     <use xlink:href="#DejaVuSans-77"/>
     <use x="86.279297" xlink:href="#DejaVuSans-105"/>
     <use x="114.0625" xlink:href="#DejaVuSans-99"/>
     <use x="169.042969" xlink:href="#DejaVuSans-86"/>
     <use x="237.341797" xlink:href="#DejaVuSans-97"/>
     <use x="298.621094" xlink:href="#DejaVuSans-115"/>
     <use x="350.720703" xlink:href="#DejaVuSans-45"/>
     <use x="386.804688" xlink:href="#DejaVuSans-80"/>
     <use x="447.091797" xlink:href="#DejaVuSans-114"/>
     <use x="488.173828" xlink:href="#DejaVuSans-111"/>
     <use x="549.355469" xlink:href="#DejaVuSans-108"/>
     <use x="577.138672" xlink:href="#DejaVuSans-105"/>
     <use x="604.921875" xlink:href="#DejaVuSans-102"/>
     <use x="640.126953" xlink:href="#DejaVuSans-101"/>
     <use x="701.650391" xlink:href="#DejaVuSans-114"/>
     <use x="742.763672" xlink:href="#DejaVuSans-97"/>
     <use x="804.042969" xlink:href="#DejaVuSans-116"/>
     <use x="843.251953" xlink:href="#DejaVuSans-105"/>
     <use x="871.035156" xlink:href="#DejaVuSans-111"/>
     <use x="932.216797" xlink:href="#DejaVuSans-110"/>
     <use x="995.595703" xlink:href="#DejaVuSans-32"/>
    </g>
    <!-- + CD276 Positive -->
    <g transform="translate(105.465787 92.690686)scale(0.1 -0.1)">
     <use xlink:href="#DejaVuSans-43"/>
     <use x="83.789062" xlink:href="#DejaVuSans-32"/>
     <use x="115.576172" xlink:href="#DejaVuSans-67"/>
     <use x="185.400391" xlink:href="#DejaVuSans-68"/>
     <use x="262.402344" xlink:href="#DejaVuSans-50"/>
     <use x="326.025391" xlink:href="#DejaVuSans-55"/>
     <use x="389.648438" xlink:href="#DejaVuSans-54"/>
     <use x="453.271484" xlink:href="#DejaVuSans-32"/>
     <use x="485.058594" xlink:href="#DejaVuSans-80"/>
     <use x="545.314453" xlink:href="#DejaVuSans-111"/>
     <use x="606.496094" xlink:href="#DejaVuSans-115"/>
     <use x="658.595703" xlink:href="#DejaVuSans-105"/>
     <use x="686.378906" xlink:href="#DejaVuSans-116"/>
     <use x="725.587891" xlink:href="#DejaVuSans-105"/>
     <use x="753.371094" xlink:href="#DejaVuSans-118"/>
     <use x="812.550781" xlink:href="#DejaVuSans-101"/>
    </g>
   </g>
   <g id="patch_6">
    <path d="M 197.846052 244.628109 
L 238.489187 237.573462 
" style="fill:none;stroke:#000000;stroke-linecap:round;"/>
   </g>
   <g id="text_3">
    <g id="patch_7">
     <path d="M 38.64235 276.391098 
L 195.8736 276.391098 
L 195.8736 215.921723 
L 38.64235 215.921723 
z
" style="fill:#ffffff;"/>
    </g>
    <!-- Necrosis Palisading,  -->
    <defs>
     <path d="M 11.71875 12.40625 
L 22.015625 12.40625 
L 22.015625 4 
L 14.015625 -11.625 
L 7.71875 -11.625 
L 11.71875 4 
z
" id="DejaVuSans-44"/>
    </defs>
    <g transform="translate(89.925162 226.520161)scale(0.1 -0.1)">
     <use xlink:href="#DejaVuSans-78"/>
     <use x="74.804688" xlink:href="#DejaVuSans-101"/>
     <use x="136.328125" xlink:href="#DejaVuSans-99"/>
     <use x="191.308594" xlink:href="#DejaVuSans-114"/>
     <use x="232.390625" xlink:href="#DejaVuSans-111"/>
     <use x="293.572266" xlink:href="#DejaVuSans-115"/>
     <use x="345.671875" xlink:href="#DejaVuSans-105"/>
     <use x="373.455078" xlink:href="#DejaVuSans-115"/>
     <use x="425.554688" xlink:href="#DejaVuSans-32"/>
     <use x="457.341797" xlink:href="#DejaVuSans-80"/>
     <use x="517.582031" xlink:href="#DejaVuSans-97"/>
     <use x="578.861328" xlink:href="#DejaVuSans-108"/>
     <use x="606.644531" xlink:href="#DejaVuSans-105"/>
     <use x="634.427734" xlink:href="#DejaVuSans-115"/>
     <use x="686.527344" xlink:href="#DejaVuSans-97"/>
     <use x="747.806641" xlink:href="#DejaVuSans-100"/>
     <use x="811.283203" xlink:href="#DejaVuSans-105"/>
     <use x="839.066406" xlink:href="#DejaVuSans-110"/>
     <use x="902.445312" xlink:href="#DejaVuSans-103"/>
     <use x="965.921875" xlink:href="#DejaVuSans-44"/>
     <use x="997.708984" xlink:href="#DejaVuSans-32"/>
    </g>
    <!-- Necrosis-Geo or Brain-Tissue  -->
    <defs>
     <path d="M 59.515625 10.40625 
L 59.515625 29.984375 
L 43.40625 29.984375 
L 43.40625 38.09375 
L 69.28125 38.09375 
L 69.28125 6.78125 
Q 63.578125 2.734375 56.6875 0.65625 
Q 49.8125 -1.421875 42 -1.421875 
Q 24.90625 -1.421875 15.25 8.5625 
Q 5.609375 18.5625 5.609375 36.375 
Q 5.609375 54.25 15.25 64.234375 
Q 24.90625 74.21875 42 74.21875 
Q 49.125 74.21875 55.546875 72.453125 
Q 61.96875 70.703125 67.390625 67.28125 
L 67.390625 56.78125 
Q 61.921875 61.421875 55.765625 63.765625 
Q 49.609375 66.109375 42.828125 66.109375 
Q 29.4375 66.109375 22.71875 58.640625 
Q 16.015625 51.171875 16.015625 36.375 
Q 16.015625 21.625 22.71875 14.15625 
Q 29.4375 6.6875 42.828125 6.6875 
Q 48.046875 6.6875 52.140625 7.59375 
Q 56.25 8.5 59.515625 10.40625 
z
" id="DejaVuSans-71"/>
     <path d="M 19.671875 34.8125 
L 19.671875 8.109375 
L 35.5 8.109375 
Q 43.453125 8.109375 47.28125 11.40625 
Q 51.125 14.703125 51.125 21.484375 
Q 51.125 28.328125 47.28125 31.5625 
Q 43.453125 34.8125 35.5 34.8125 
z
M 19.671875 64.796875 
L 19.671875 42.828125 
L 34.28125 42.828125 
Q 41.5 42.828125 45.03125 45.53125 
Q 48.578125 48.25 48.578125 53.8125 
Q 48.578125 59.328125 45.03125 62.0625 
Q 41.5 64.796875 34.28125 64.796875 
z
M 9.8125 72.90625 
L 35.015625 72.90625 
Q 46.296875 72.90625 52.390625 68.21875 
Q 58.5 63.53125 58.5 54.890625 
Q 58.5 48.1875 55.375 44.234375 
Q 52.25 40.28125 46.1875 39.3125 
Q 53.46875 37.75 57.5 32.78125 
Q 61.53125 27.828125 61.53125 20.40625 
Q 61.53125 10.640625 54.890625 5.3125 
Q 48.25 0 35.984375 0 
L 9.8125 0 
z
" id="DejaVuSans-66"/>
     <path d="M -0.296875 72.90625 
L 61.375 72.90625 
L 61.375 64.59375 
L 35.5 64.59375 
L 35.5 0 
L 25.59375 0 
L 25.59375 64.59375 
L -0.296875 64.59375 
z
" id="DejaVuSans-84"/>
     <path d="M 8.5 21.578125 
L 8.5 54.6875 
L 17.484375 54.6875 
L 17.484375 21.921875 
Q 17.484375 14.15625 20.5 10.265625 
Q 23.53125 6.390625 29.59375 6.390625 
Q 36.859375 6.390625 41.078125 11.03125 
Q 45.3125 15.671875 45.3125 23.6875 
L 45.3125 54.6875 
L 54.296875 54.6875 
L 54.296875 0 
L 45.3125 0 
L 45.3125 8.40625 
Q 42.046875 3.421875 37.71875 1 
Q 33.40625 -1.421875 27.6875 -1.421875 
Q 18.265625 -1.421875 13.375 4.4375 
Q 8.5 10.296875 8.5 21.578125 
z
M 31.109375 56 
z
" id="DejaVuSans-117"/>
    </defs>
    <g transform="translate(45.320475 237.717973)scale(0.1 -0.1)">
     <use xlink:href="#DejaVuSans-78"/>
     <use x="74.804688" xlink:href="#DejaVuSans-101"/>
     <use x="136.328125" xlink:href="#DejaVuSans-99"/>
     <use x="191.308594" xlink:href="#DejaVuSans-114"/>
     <use x="232.390625" xlink:href="#DejaVuSans-111"/>
     <use x="293.572266" xlink:href="#DejaVuSans-115"/>
     <use x="345.671875" xlink:href="#DejaVuSans-105"/>
     <use x="373.455078" xlink:href="#DejaVuSans-115"/>
     <use x="425.554688" xlink:href="#DejaVuSans-45"/>
     <use x="461.685547" xlink:href="#DejaVuSans-71"/>
     <use x="539.175781" xlink:href="#DejaVuSans-101"/>
     <use x="600.699219" xlink:href="#DejaVuSans-111"/>
     <use x="661.880859" xlink:href="#DejaVuSans-32"/>
     <use x="693.667969" xlink:href="#DejaVuSans-111"/>
     <use x="754.849609" xlink:href="#DejaVuSans-114"/>
     <use x="795.962891" xlink:href="#DejaVuSans-32"/>
     <use x="827.75" xlink:href="#DejaVuSans-66"/>
     <use x="896.353516" xlink:href="#DejaVuSans-114"/>
     <use x="937.466797" xlink:href="#DejaVuSans-97"/>
     <use x="998.746094" xlink:href="#DejaVuSans-105"/>
     <use x="1026.529297" xlink:href="#DejaVuSans-110"/>
     <use x="1089.908203" xlink:href="#DejaVuSans-45"/>
     <use x="1125.851562" xlink:href="#DejaVuSans-84"/>
     <use x="1186.888672" xlink:href="#DejaVuSans-105"/>
     <use x="1214.671875" xlink:href="#DejaVuSans-115"/>
     <use x="1266.771484" xlink:href="#DejaVuSans-115"/>
     <use x="1318.871094" xlink:href="#DejaVuSans-117"/>
     <use x="1382.25" xlink:href="#DejaVuSans-101"/>
     <use x="1443.773438" xlink:href="#DejaVuSans-32"/>
    </g>
    <!-- + CD276 Negative  -->
    <g transform="translate(96.307975 248.915786)scale(0.1 -0.1)">
     <use xlink:href="#DejaVuSans-43"/>
     <use x="83.789062" xlink:href="#DejaVuSans-32"/>
     <use x="115.576172" xlink:href="#DejaVuSans-67"/>
     <use x="185.400391" xlink:href="#DejaVuSans-68"/>
     <use x="262.402344" xlink:href="#DejaVuSans-50"/>
     <use x="326.025391" xlink:href="#DejaVuSans-55"/>
     <use x="389.648438" xlink:href="#DejaVuSans-54"/>
     <use x="453.271484" xlink:href="#DejaVuSans-32"/>
     <use x="485.058594" xlink:href="#DejaVuSans-78"/>
     <use x="559.863281" xlink:href="#DejaVuSans-101"/>
     <use x="621.386719" xlink:href="#DejaVuSans-103"/>
     <use x="684.863281" xlink:href="#DejaVuSans-97"/>
     <use x="746.142578" xlink:href="#DejaVuSans-116"/>
     <use x="785.351562" xlink:href="#DejaVuSans-105"/>
     <use x="813.134766" xlink:href="#DejaVuSans-118"/>
     <use x="872.314453" xlink:href="#DejaVuSans-101"/>
     <use x="933.837891" xlink:href="#DejaVuSans-32"/>
    </g>
    <!-- / Blood Vessel or Brain Tissue  -->
    <defs>
     <path d="M 25.390625 72.90625 
L 33.6875 72.90625 
L 8.296875 -9.28125 
L 0 -9.28125 
z
" id="DejaVuSans-47"/>
    </defs>
    <g transform="translate(41.64235 260.113598)scale(0.1 -0.1)">
     <use xlink:href="#DejaVuSans-47"/>
     <use x="33.691406" xlink:href="#DejaVuSans-32"/>
     <use x="65.478516" xlink:href="#DejaVuSans-66"/>
     <use x="134.082031" xlink:href="#DejaVuSans-108"/>
     <use x="161.865234" xlink:href="#DejaVuSans-111"/>
     <use x="223.046875" xlink:href="#DejaVuSans-111"/>
     <use x="284.228516" xlink:href="#DejaVuSans-100"/>
     <use x="347.705078" xlink:href="#DejaVuSans-32"/>
     <use x="379.492188" xlink:href="#DejaVuSans-86"/>
     <use x="447.791016" xlink:href="#DejaVuSans-101"/>
     <use x="509.314453" xlink:href="#DejaVuSans-115"/>
     <use x="561.414062" xlink:href="#DejaVuSans-115"/>
     <use x="613.513672" xlink:href="#DejaVuSans-101"/>
     <use x="675.037109" xlink:href="#DejaVuSans-108"/>
     <use x="702.820312" xlink:href="#DejaVuSans-32"/>
     <use x="734.607422" xlink:href="#DejaVuSans-111"/>
     <use x="795.789062" xlink:href="#DejaVuSans-114"/>
     <use x="836.902344" xlink:href="#DejaVuSans-32"/>
     <use x="868.689453" xlink:href="#DejaVuSans-66"/>
     <use x="937.292969" xlink:href="#DejaVuSans-114"/>
     <use x="978.40625" xlink:href="#DejaVuSans-97"/>
     <use x="1039.685547" xlink:href="#DejaVuSans-105"/>
     <use x="1067.46875" xlink:href="#DejaVuSans-110"/>
     <use x="1130.847656" xlink:href="#DejaVuSans-32"/>
     <use x="1162.634766" xlink:href="#DejaVuSans-84"/>
     <use x="1223.671875" xlink:href="#DejaVuSans-105"/>
     <use x="1251.455078" xlink:href="#DejaVuSans-115"/>
     <use x="1303.554688" xlink:href="#DejaVuSans-115"/>
     <use x="1355.654297" xlink:href="#DejaVuSans-117"/>
     <use x="1419.033203" xlink:href="#DejaVuSans-101"/>
     <use x="1480.556641" xlink:href="#DejaVuSans-32"/>
    </g>
    <!-- + CD276 Positive -->
    <g transform="translate(105.465787 271.311411)scale(0.1 -0.1)">
     <use xlink:href="#DejaVuSans-43"/>
     <use x="83.789062" xlink:href="#DejaVuSans-32"/>
     <use x="115.576172" xlink:href="#DejaVuSans-67"/>
     <use x="185.400391" xlink:href="#DejaVuSans-68"/>
     <use x="262.402344" xlink:href="#DejaVuSans-50"/>
     <use x="326.025391" xlink:href="#DejaVuSans-55"/>
     <use x="389.648438" xlink:href="#DejaVuSans-54"/>
     <use x="453.271484" xlink:href="#DejaVuSans-32"/>
     <use x="485.058594" xlink:href="#DejaVuSans-80"/>
     <use x="545.314453" xlink:href="#DejaVuSans-111"/>
     <use x="606.496094" xlink:href="#DejaVuSans-115"/>
     <use x="658.595703" xlink:href="#DejaVuSans-105"/>
     <use x="686.378906" xlink:href="#DejaVuSans-116"/>
     <use x="725.587891" xlink:href="#DejaVuSans-105"/>
     <use x="753.371094" xlink:href="#DejaVuSans-118"/>
     <use x="812.550781" xlink:href="#DejaVuSans-101"/>
    </g>
   </g>
   <g id="patch_8">
    <path d="M 197.870532 376.741255 
L 284.296057 376.741255 
L 307.57103 332.275966 
" style="fill:none;stroke:#000000;stroke-linecap:round;"/>
   </g>
   <g id="text_4">
    <g id="patch_9">
     <path d="M 102.465787 390.179223 
L 195.8736 390.179223 
L 195.8736 363.303286 
L 102.465787 363.303286 
z
" style="fill:#ffffff;"/>
    </g>
    <!-- Necrosis-Geo  -->
    <g transform="translate(123.506412 373.901723)scale(0.1 -0.1)">
     <use xlink:href="#DejaVuSans-78"/>
     <use x="74.804688" xlink:href="#DejaVuSans-101"/>
     <use x="136.328125" xlink:href="#DejaVuSans-99"/>
     <use x="191.308594" xlink:href="#DejaVuSans-114"/>
     <use x="232.390625" xlink:href="#DejaVuSans-111"/>
     <use x="293.572266" xlink:href="#DejaVuSans-115"/>
     <use x="345.671875" xlink:href="#DejaVuSans-105"/>
     <use x="373.455078" xlink:href="#DejaVuSans-115"/>
     <use x="425.554688" xlink:href="#DejaVuSans-45"/>
     <use x="461.685547" xlink:href="#DejaVuSans-71"/>
     <use x="539.175781" xlink:href="#DejaVuSans-101"/>
     <use x="600.699219" xlink:href="#DejaVuSans-111"/>
     <use x="661.880859" xlink:href="#DejaVuSans-32"/>
    </g>
    <!-- + CD276 Positive -->
    <g transform="translate(105.465787 385.099536)scale(0.1 -0.1)">
     <use xlink:href="#DejaVuSans-43"/>
     <use x="83.789062" xlink:href="#DejaVuSans-32"/>
     <use x="115.576172" xlink:href="#DejaVuSans-67"/>
     <use x="185.400391" xlink:href="#DejaVuSans-68"/>
     <use x="262.402344" xlink:href="#DejaVuSans-50"/>
     <use x="326.025391" xlink:href="#DejaVuSans-55"/>
     <use x="389.648438" xlink:href="#DejaVuSans-54"/>
     <use x="453.271484" xlink:href="#DejaVuSans-32"/>
     <use x="485.058594" xlink:href="#DejaVuSans-80"/>
     <use x="545.314453" xlink:href="#DejaVuSans-111"/>
     <use x="606.496094" xlink:href="#DejaVuSans-115"/>
     <use x="658.595703" xlink:href="#DejaVuSans-105"/>
     <use x="686.378906" xlink:href="#DejaVuSans-116"/>
     <use x="725.587891" xlink:href="#DejaVuSans-105"/>
     <use x="753.371094" xlink:href="#DejaVuSans-118"/>
     <use x="812.550781" xlink:href="#DejaVuSans-101"/>
    </g>
   </g>
   <g id="patch_10">
    <path d="M 540.127086 387.800715 
L 427.933309 387.800715 
L 411.739598 340.296505 
" style="fill:none;stroke:#000000;stroke-linecap:round;"/>
   </g>
   <g id="text_5">
    <g id="patch_11">
     <path d="M 542.1264 401.238683 
L 646.7514 401.238683 
L 646.7514 374.362746 
L 542.1264 374.362746 
z
" style="fill:#ffffff;"/>
    </g>
    <!-- Tumor Background  -->
    <defs>
     <path d="M 52 44.1875 
Q 55.375 50.25 60.0625 53.125 
Q 64.75 56 71.09375 56 
Q 79.640625 56 84.28125 50.015625 
Q 88.921875 44.046875 88.921875 33.015625 
L 88.921875 0 
L 79.890625 0 
L 79.890625 32.71875 
Q 79.890625 40.578125 77.09375 44.375 
Q 74.3125 48.1875 68.609375 48.1875 
Q 61.625 48.1875 57.5625 43.546875 
Q 53.515625 38.921875 53.515625 30.90625 
L 53.515625 0 
L 44.484375 0 
L 44.484375 32.71875 
Q 44.484375 40.625 41.703125 44.40625 
Q 38.921875 48.1875 33.109375 48.1875 
Q 26.21875 48.1875 22.15625 43.53125 
Q 18.109375 38.875 18.109375 30.90625 
L 18.109375 0 
L 9.078125 0 
L 9.078125 54.6875 
L 18.109375 54.6875 
L 18.109375 46.1875 
Q 21.1875 51.21875 25.484375 53.609375 
Q 29.78125 56 35.6875 56 
Q 41.65625 56 45.828125 52.96875 
Q 50 49.953125 52 44.1875 
z
" id="DejaVuSans-109"/>
     <path d="M 9.078125 75.984375 
L 18.109375 75.984375 
L 18.109375 31.109375 
L 44.921875 54.6875 
L 56.390625 54.6875 
L 27.390625 29.109375 
L 57.625 0 
L 45.90625 0 
L 18.109375 26.703125 
L 18.109375 0 
L 9.078125 0 
z
" id="DejaVuSans-107"/>
    </defs>
    <g transform="translate(545.1264 384.961183)scale(0.1 -0.1)">
     <use xlink:href="#DejaVuSans-84"/>
     <use x="60.849609" xlink:href="#DejaVuSans-117"/>
     <use x="124.228516" xlink:href="#DejaVuSans-109"/>
     <use x="221.640625" xlink:href="#DejaVuSans-111"/>
     <use x="282.822266" xlink:href="#DejaVuSans-114"/>
     <use x="323.935547" xlink:href="#DejaVuSans-32"/>
     <use x="355.722656" xlink:href="#DejaVuSans-66"/>
     <use x="424.326172" xlink:href="#DejaVuSans-97"/>
     <use x="485.605469" xlink:href="#DejaVuSans-99"/>
     <use x="540.585938" xlink:href="#DejaVuSans-107"/>
     <use x="598.496094" xlink:href="#DejaVuSans-103"/>
     <use x="661.972656" xlink:href="#DejaVuSans-114"/>
     <use x="703.054688" xlink:href="#DejaVuSans-111"/>
     <use x="764.236328" xlink:href="#DejaVuSans-117"/>
     <use x="827.615234" xlink:href="#DejaVuSans-110"/>
     <use x="890.994141" xlink:href="#DejaVuSans-100"/>
     <use x="954.470703" xlink:href="#DejaVuSans-32"/>
    </g>
    <!-- + CD276 Positive -->
    <g transform="translate(545.1264 396.158996)scale(0.1 -0.1)">
     <use xlink:href="#DejaVuSans-43"/>
     <use x="83.789062" xlink:href="#DejaVuSans-32"/>
     <use x="115.576172" xlink:href="#DejaVuSans-67"/>
     <use x="185.400391" xlink:href="#DejaVuSans-68"/>
     <use x="262.402344" xlink:href="#DejaVuSans-50"/>
     <use x="326.025391" xlink:href="#DejaVuSans-55"/>
     <use x="389.648438" xlink:href="#DejaVuSans-54"/>
     <use x="453.271484" xlink:href="#DejaVuSans-32"/>
     <use x="485.058594" xlink:href="#DejaVuSans-80"/>
     <use x="545.314453" xlink:href="#DejaVuSans-111"/>
     <use x="606.496094" xlink:href="#DejaVuSans-115"/>
     <use x="658.595703" xlink:href="#DejaVuSans-105"/>
     <use x="686.378906" xlink:href="#DejaVuSans-116"/>
     <use x="725.587891" xlink:href="#DejaVuSans-105"/>
     <use x="753.371094" xlink:href="#DejaVuSans-118"/>
     <use x="812.550781" xlink:href="#DejaVuSans-101"/>
    </g>
   </g>
   <g id="patch_12">
    <path d="M 540.125344 105.240541 
L 515.052362 105.240541 
L 474.920054 135.378292 
" style="fill:none;stroke:#000000;stroke-linecap:round;"/>
   </g>
   <g id="text_6">
    <g id="patch_13">
     <path d="M 542.1264 124.277416 
L 711.121713 124.277416 
L 711.121713 86.203666 
L 542.1264 86.203666 
z
" style="fill:#ffffff;"/>
    </g>
    <!-- Tumor Background,  -->
    <g transform="translate(545.1264 96.802103)scale(0.1 -0.1)">
     <use xlink:href="#DejaVuSans-84"/>
     <use x="60.849609" xlink:href="#DejaVuSans-117"/>
     <use x="124.228516" xlink:href="#DejaVuSans-109"/>
     <use x="221.640625" xlink:href="#DejaVuSans-111"/>
     <use x="282.822266" xlink:href="#DejaVuSans-114"/>
     <use x="323.935547" xlink:href="#DejaVuSans-32"/>
     <use x="355.722656" xlink:href="#DejaVuSans-66"/>
     <use x="424.326172" xlink:href="#DejaVuSans-97"/>
     <use x="485.605469" xlink:href="#DejaVuSans-99"/>
     <use x="540.585938" xlink:href="#DejaVuSans-107"/>
     <use x="598.496094" xlink:href="#DejaVuSans-103"/>
     <use x="661.972656" xlink:href="#DejaVuSans-114"/>
     <use x="703.054688" xlink:href="#DejaVuSans-111"/>
     <use x="764.236328" xlink:href="#DejaVuSans-117"/>
     <use x="827.615234" xlink:href="#DejaVuSans-110"/>
     <use x="890.994141" xlink:href="#DejaVuSans-100"/>
     <use x="954.470703" xlink:href="#DejaVuSans-44"/>
     <use x="986.257812" xlink:href="#DejaVuSans-32"/>
    </g>
    <!-- MicVas-Proliferation or -->
    <g transform="translate(545.1264 107.999916)scale(0.1 -0.1)">
     <use xlink:href="#DejaVuSans-77"/>
     <use x="86.279297" xlink:href="#DejaVuSans-105"/>
     <use x="114.0625" xlink:href="#DejaVuSans-99"/>
     <use x="169.042969" xlink:href="#DejaVuSans-86"/>
     <use x="237.341797" xlink:href="#DejaVuSans-97"/>
     <use x="298.621094" xlink:href="#DejaVuSans-115"/>
     <use x="350.720703" xlink:href="#DejaVuSans-45"/>
     <use x="386.804688" xlink:href="#DejaVuSans-80"/>
     <use x="447.091797" xlink:href="#DejaVuSans-114"/>
     <use x="488.173828" xlink:href="#DejaVuSans-111"/>
     <use x="549.355469" xlink:href="#DejaVuSans-108"/>
     <use x="577.138672" xlink:href="#DejaVuSans-105"/>
     <use x="604.921875" xlink:href="#DejaVuSans-102"/>
     <use x="640.126953" xlink:href="#DejaVuSans-101"/>
     <use x="701.650391" xlink:href="#DejaVuSans-114"/>
     <use x="742.763672" xlink:href="#DejaVuSans-97"/>
     <use x="804.042969" xlink:href="#DejaVuSans-116"/>
     <use x="843.251953" xlink:href="#DejaVuSans-105"/>
     <use x="871.035156" xlink:href="#DejaVuSans-111"/>
     <use x="932.216797" xlink:href="#DejaVuSans-110"/>
     <use x="995.595703" xlink:href="#DejaVuSans-32"/>
     <use x="1027.382812" xlink:href="#DejaVuSans-111"/>
     <use x="1088.564453" xlink:href="#DejaVuSans-114"/>
    </g>
    <!--  Blood-vessel + CD276 Negative -->
    <g transform="translate(545.1264 119.197728)scale(0.1 -0.1)">
     <use xlink:href="#DejaVuSans-32"/>
     <use x="31.787109" xlink:href="#DejaVuSans-66"/>
     <use x="100.390625" xlink:href="#DejaVuSans-108"/>
     <use x="128.173828" xlink:href="#DejaVuSans-111"/>
     <use x="189.355469" xlink:href="#DejaVuSans-111"/>
     <use x="250.537109" xlink:href="#DejaVuSans-100"/>
     <use x="314.013672" xlink:href="#DejaVuSans-45"/>
     <use x="350.066406" xlink:href="#DejaVuSans-118"/>
     <use x="409.246094" xlink:href="#DejaVuSans-101"/>
     <use x="470.769531" xlink:href="#DejaVuSans-115"/>
     <use x="522.869141" xlink:href="#DejaVuSans-115"/>
     <use x="574.96875" xlink:href="#DejaVuSans-101"/>
     <use x="636.492188" xlink:href="#DejaVuSans-108"/>
     <use x="664.275391" xlink:href="#DejaVuSans-32"/>
     <use x="696.0625" xlink:href="#DejaVuSans-43"/>
     <use x="779.851562" xlink:href="#DejaVuSans-32"/>
     <use x="811.638672" xlink:href="#DejaVuSans-67"/>
     <use x="881.462891" xlink:href="#DejaVuSans-68"/>
     <use x="958.464844" xlink:href="#DejaVuSans-50"/>
     <use x="1022.087891" xlink:href="#DejaVuSans-55"/>
     <use x="1085.710938" xlink:href="#DejaVuSans-54"/>
     <use x="1149.333984" xlink:href="#DejaVuSans-32"/>
     <use x="1181.121094" xlink:href="#DejaVuSans-78"/>
     <use x="1255.925781" xlink:href="#DejaVuSans-101"/>
     <use x="1317.449219" xlink:href="#DejaVuSans-103"/>
     <use x="1380.925781" xlink:href="#DejaVuSans-97"/>
     <use x="1442.205078" xlink:href="#DejaVuSans-116"/>
     <use x="1481.414062" xlink:href="#DejaVuSans-105"/>
     <use x="1509.197266" xlink:href="#DejaVuSans-118"/>
     <use x="1568.376953" xlink:href="#DejaVuSans-101"/>
    </g>
   </g>
   <g id="patch_14">
    <path d="M 320.117491 91.38499 
C 316.575883 92.67403 313.091795 94.115932 309.675032 95.706638 
C 306.25827 97.297344 302.912041 99.035361 299.645763 100.915797 
L 364.738807 213.981048 
L 320.117491 91.38499 
z
" style="fill:#4c0000;opacity:0.5;stroke:#4c0000;stroke-linejoin:miter;"/>
   </g>
   <g id="patch_15">
    <path d="M 298.561208 101.665724 
C 289.056603 107.137641 280.279795 113.786264 272.438663 121.45412 
C 264.59753 129.121977 257.754471 137.748048 252.071564 147.128024 
L 363.654252 214.730974 
L 298.561208 101.665724 
z
" style="fill:#4c004c;opacity:0.5;stroke:#4c004c;stroke-linejoin:miter;"/>
   </g>
   <g id="patch_16">
    <path d="M 250.951772 150.595681 
C 234.633535 177.529901 228.606792 209.482439 233.992474 240.510354 
C 239.378155 271.538269 255.820293 299.590762 280.260769 319.450273 
L 362.53446 218.198632 
L 250.951772 150.595681 
z
" style="fill:#4c4c4c;opacity:0.5;stroke:#4c4c4c;stroke-linejoin:miter;"/>
   </g>
   <g id="patch_17">
    <path d="M 282.301944 322.24852 
C 289.062147 327.741635 296.355522 332.543936 304.072819 336.583489 
C 311.790116 340.623041 319.892609 343.879575 328.25893 346.304309 
L 364.575636 220.996878 
L 282.301944 322.24852 
z
" style="fill:#4c4c00;opacity:0.5;stroke:#4c4c00;stroke-linejoin:miter;"/>
   </g>
   <g id="patch_18">
    <path d="M 331.336871 346.541298 
C 357.038724 353.99023 384.420493 353.354257 409.748797 344.720091 
C 435.077101 336.085926 457.146 319.86466 472.946497 298.267991 
L 367.653577 221.233867 
L 331.336871 346.541298 
z
" style="fill:#4c3636;opacity:0.5;stroke:#4c3636;stroke-linejoin:miter;"/>
   </g>
   <g id="patch_19">
    <path d="M 474.813334 292.21313 
C 491.33022 269.637275 500.156465 242.336955 499.981872 214.364713 
C 499.80728 186.392471 490.640939 159.204454 473.843529 136.836535 
C 457.04612 114.468615 433.492062 98.085196 406.677792 90.118283 
C 379.863522 82.151369 351.184906 83.015693 324.899086 92.582952 
L 369.520413 215.179006 
L 474.813334 292.21313 
z
" style="fill:#004c4c;opacity:0.5;stroke:#004c4c;stroke-linejoin:miter;"/>
   </g>
   <g id="patch_20">
    <path d="M 322.726771 88.77571 
C 319.185163 90.06475 315.701075 91.506652 312.284312 93.097358 
C 308.86755 94.688064 305.521321 96.426081 302.255043 98.306517 
L 367.348087 211.371768 
L 322.726771 88.77571 
z
" style="fill:#ff0000;"/>
   </g>
   <g id="patch_21">
    <path d="M 301.170488 99.056444 
C 291.665883 104.528361 282.889075 111.176984 275.047943 118.84484 
C 267.20681 126.512697 260.363751 135.138768 254.680844 144.518744 
L 366.263532 212.121694 
L 301.170488 99.056444 
z
" style="fill:#ff00ff;"/>
   </g>
   <g id="patch_22">
    <path d="M 253.561052 147.986401 
C 237.242815 174.920621 231.216072 206.873159 236.601754 237.901074 
C 241.987435 268.928989 258.429573 296.981482 282.870049 316.840993 
L 365.14374 215.589352 
L 253.561052 147.986401 
z
" style="fill:#ffffff;"/>
   </g>
   <g id="patch_23">
    <path d="M 284.911224 319.63924 
C 291.671427 325.132355 298.964802 329.934656 306.682099 333.974209 
C 314.399396 338.013761 322.501889 341.270295 330.86821 343.695029 
L 367.184916 218.387598 
L 284.911224 319.63924 
z
" style="fill:#ffff00;"/>
   </g>
   <g id="patch_24">
    <path d="M 333.946151 343.932018 
C 359.648004 351.38095 387.029773 350.744977 412.358077 342.110811 
C 437.686381 333.476646 459.75528 317.25538 475.555777 295.658711 
L 370.262857 218.624587 
L 333.946151 343.932018 
z
" style="fill:#ffb2b2;"/>
   </g>
   <g id="patch_25">
    <path d="M 477.422614 289.60385 
C 493.9395 267.027995 502.765745 239.727675 502.591152 211.755433 
C 502.41656 183.783191 493.250219 156.595174 476.452809 134.227255 
C 459.6554 111.859335 436.101342 95.475916 409.287072 87.509003 
C 382.472802 79.542089 353.794186 80.406413 327.508366 89.973672 
L 372.129693 212.569726 
L 477.422614 289.60385 
z
" style="fill:#00ffff;"/>
   </g>
   <g id="matplotlib.axis_1"/>
   <g id="matplotlib.axis_2"/>
   <g id="text_7">
    <!-- 2.8% -->
    <defs>
     <path d="M 28.8125 13.8125 
L 60.890625 13.8125 
L 60.890625 0 
L 7.90625 0 
L 7.90625 13.8125 
L 34.515625 37.3125 
Q 38.09375 40.53125 39.796875 43.609375 
Q 41.5 46.6875 41.5 50 
Q 41.5 55.125 38.0625 58.25 
Q 34.625 61.375 28.90625 61.375 
Q 24.515625 61.375 19.28125 59.5 
Q 14.0625 57.625 8.109375 53.90625 
L 8.109375 69.921875 
Q 14.453125 72.015625 20.65625 73.109375 
Q 26.859375 74.21875 32.8125 74.21875 
Q 45.90625 74.21875 53.15625 68.453125 
Q 60.40625 62.703125 60.40625 52.390625 
Q 60.40625 46.4375 57.328125 41.28125 
Q 54.25 36.140625 44.390625 27.484375 
z
" id="DejaVuSans-Bold-50"/>
     <path d="M 10.203125 18.890625 
L 27.78125 18.890625 
L 27.78125 0 
L 10.203125 0 
z
" id="DejaVuSans-Bold-46"/>
     <path d="M 34.8125 32.625 
Q 29.546875 32.625 26.703125 29.734375 
Q 23.875 26.859375 23.875 21.484375 
Q 23.875 16.109375 26.703125 13.25 
Q 29.546875 10.40625 34.8125 10.40625 
Q 40.046875 10.40625 42.828125 13.25 
Q 45.609375 16.109375 45.609375 21.484375 
Q 45.609375 26.90625 42.828125 29.765625 
Q 40.046875 32.625 34.8125 32.625 
z
M 21.09375 38.8125 
Q 14.453125 40.828125 11.078125 44.96875 
Q 7.71875 49.125 7.71875 55.328125 
Q 7.71875 64.546875 14.59375 69.375 
Q 21.484375 74.21875 34.8125 74.21875 
Q 48.046875 74.21875 54.921875 69.40625 
Q 61.8125 64.59375 61.8125 55.328125 
Q 61.8125 49.125 58.421875 44.96875 
Q 55.03125 40.828125 48.390625 38.8125 
Q 55.8125 36.765625 59.59375 32.15625 
Q 63.375 27.546875 63.375 20.515625 
Q 63.375 9.671875 56.171875 4.125 
Q 48.96875 -1.421875 34.8125 -1.421875 
Q 20.609375 -1.421875 13.359375 4.125 
Q 6.109375 9.671875 6.109375 20.515625 
Q 6.109375 27.546875 9.890625 32.15625 
Q 13.671875 36.765625 21.09375 38.8125 
z
M 25.484375 53.421875 
Q 25.484375 49.078125 27.90625 46.734375 
Q 30.328125 44.390625 34.8125 44.390625 
Q 39.203125 44.390625 41.59375 46.734375 
Q 44 49.078125 44 53.421875 
Q 44 57.765625 41.59375 60.078125 
Q 39.203125 62.40625 34.8125 62.40625 
Q 30.328125 62.40625 27.90625 60.0625 
Q 25.484375 57.71875 25.484375 53.421875 
z
" id="DejaVuSans-Bold-56"/>
     <path d="M 77.484375 30.078125 
Q 74.03125 30.078125 72.125 27.078125 
Q 70.21875 24.078125 70.21875 18.5 
Q 70.21875 12.890625 72.09375 9.890625 
Q 73.96875 6.890625 77.484375 6.890625 
Q 81 6.890625 82.859375 9.890625 
Q 84.71875 12.890625 84.71875 18.5 
Q 84.71875 24.078125 82.828125 27.078125 
Q 80.953125 30.078125 77.484375 30.078125 
z
M 77.484375 38.28125 
Q 86.578125 38.28125 91.796875 33 
Q 97.015625 27.734375 97.015625 18.5 
Q 97.015625 9.28125 91.796875 3.921875 
Q 86.578125 -1.421875 77.484375 -1.421875 
Q 68.40625 -1.421875 63.15625 3.921875 
Q 57.90625 9.28125 57.90625 18.5 
Q 57.90625 27.6875 63.15625 32.984375 
Q 68.40625 38.28125 77.484375 38.28125 
z
M 32.71875 -1.421875 
L 21.921875 -1.421875 
L 67.484375 74.21875 
L 78.328125 74.21875 
z
M 22.703125 74.21875 
Q 31.78125 74.21875 36.984375 68.921875 
Q 42.1875 63.625 42.1875 54.390625 
Q 42.1875 45.171875 36.984375 39.84375 
Q 31.78125 34.515625 22.703125 34.515625 
Q 13.625 34.515625 8.421875 39.84375 
Q 3.21875 45.171875 3.21875 54.390625 
Q 3.21875 63.625 8.421875 68.921875 
Q 13.625 74.21875 22.703125 74.21875 
z
M 22.703125 66.015625 
Q 19.1875 66.015625 17.28125 62.984375 
Q 15.375 59.96875 15.375 54.390625 
Q 15.375 48.78125 17.28125 45.71875 
Q 19.1875 42.671875 22.703125 42.671875 
Q 26.21875 42.671875 28.09375 45.71875 
Q 29.984375 48.78125 29.984375 54.390625 
Q 29.984375 59.96875 28.078125 62.984375 
Q 26.171875 66.015625 22.703125 66.015625 
z
" id="DejaVuSans-Bold-37"/>
    </defs>
    <g transform="translate(317.669197 143.718372)scale(0.12 -0.12)">
     <use xlink:href="#DejaVuSans-Bold-50"/>
     <use x="69.580078" xlink:href="#DejaVuSans-Bold-46"/>
     <use x="107.568359" xlink:href="#DejaVuSans-Bold-56"/>
     <use x="177.148438" xlink:href="#DejaVuSans-Bold-37"/>
    </g>
   </g>
   <g id="text_8">
    <!-- 8.0% -->
    <defs>
     <path d="M 46 36.53125 
Q 46 50.203125 43.4375 55.78125 
Q 40.875 61.375 34.8125 61.375 
Q 28.765625 61.375 26.171875 55.78125 
Q 23.578125 50.203125 23.578125 36.53125 
Q 23.578125 22.703125 26.171875 17.03125 
Q 28.765625 11.375 34.8125 11.375 
Q 40.828125 11.375 43.40625 17.03125 
Q 46 22.703125 46 36.53125 
z
M 64.796875 36.375 
Q 64.796875 18.265625 56.984375 8.421875 
Q 49.171875 -1.421875 34.8125 -1.421875 
Q 20.40625 -1.421875 12.59375 8.421875 
Q 4.78125 18.265625 4.78125 36.375 
Q 4.78125 54.546875 12.59375 64.375 
Q 20.40625 74.21875 34.8125 74.21875 
Q 49.171875 74.21875 56.984375 64.375 
Q 64.796875 54.546875 64.796875 36.375 
z
" id="DejaVuSans-Bold-48"/>
    </defs>
    <g transform="translate(294.893553 159.466832)scale(0.12 -0.12)">
     <use xlink:href="#DejaVuSans-Bold-56"/>
     <use x="69.580078" xlink:href="#DejaVuSans-Bold-46"/>
     <use x="107.568359" xlink:href="#DejaVuSans-Bold-48"/>
     <use x="177.148438" xlink:href="#DejaVuSans-Bold-37"/>
    </g>
   </g>
   <g id="text_9">
    <!-- 22.8% -->
    <g transform="translate(267.203236 232.287635)scale(0.12 -0.12)">
     <use xlink:href="#DejaVuSans-Bold-50"/>
     <use x="69.580078" xlink:href="#DejaVuSans-Bold-50"/>
     <use x="139.160156" xlink:href="#DejaVuSans-Bold-46"/>
     <use x="177.148438" xlink:href="#DejaVuSans-Bold-56"/>
     <use x="246.728516" xlink:href="#DejaVuSans-Bold-37"/>
    </g>
   </g>
   <g id="text_10">
    <!-- 6.4% -->
    <defs>
     <path d="M 36.1875 35.984375 
Q 31.25 35.984375 28.78125 32.78125 
Q 26.3125 29.59375 26.3125 23.1875 
Q 26.3125 16.796875 28.78125 13.59375 
Q 31.25 10.40625 36.1875 10.40625 
Q 41.15625 10.40625 43.625 13.59375 
Q 46.09375 16.796875 46.09375 23.1875 
Q 46.09375 29.59375 43.625 32.78125 
Q 41.15625 35.984375 36.1875 35.984375 
z
M 59.421875 71 
L 59.421875 57.515625 
Q 54.78125 59.71875 50.671875 60.765625 
Q 46.578125 61.8125 42.671875 61.8125 
Q 34.28125 61.8125 29.59375 57.140625 
Q 24.90625 52.484375 24.125 43.3125 
Q 27.34375 45.703125 31.09375 46.890625 
Q 34.859375 48.09375 39.3125 48.09375 
Q 50.484375 48.09375 57.34375 41.546875 
Q 64.203125 35.015625 64.203125 24.421875 
Q 64.203125 12.703125 56.53125 5.640625 
Q 48.875 -1.421875 35.984375 -1.421875 
Q 21.78125 -1.421875 13.984375 8.171875 
Q 6.203125 17.78125 6.203125 35.40625 
Q 6.203125 53.46875 15.3125 63.796875 
Q 24.421875 74.125 40.28125 74.125 
Q 45.3125 74.125 50.046875 73.34375 
Q 54.78125 72.5625 59.421875 71 
z
" id="DejaVuSans-Bold-54"/>
     <path d="M 36.8125 57.421875 
L 16.21875 26.90625 
L 36.8125 26.90625 
z
M 33.6875 72.90625 
L 54.59375 72.90625 
L 54.59375 26.90625 
L 64.984375 26.90625 
L 64.984375 13.28125 
L 54.59375 13.28125 
L 54.59375 0 
L 36.8125 0 
L 36.8125 13.28125 
L 4.5 13.28125 
L 4.5 29.390625 
z
" id="DejaVuSans-Bold-52"/>
    </defs>
    <g transform="translate(314.242601 291.050815)scale(0.12 -0.12)">
     <use xlink:href="#DejaVuSans-Bold-54"/>
     <use x="69.580078" xlink:href="#DejaVuSans-Bold-46"/>
     <use x="107.568359" xlink:href="#DejaVuSans-Bold-52"/>
     <use x="177.148438" xlink:href="#DejaVuSans-Bold-37"/>
    </g>
   </g>
   <g id="text_11">
    <!-- 19.4% -->
    <defs>
     <path d="M 11.71875 12.984375 
L 28.328125 12.984375 
L 28.328125 60.109375 
L 11.28125 56.59375 
L 11.28125 69.390625 
L 28.21875 72.90625 
L 46.09375 72.90625 
L 46.09375 12.984375 
L 62.703125 12.984375 
L 62.703125 0 
L 11.71875 0 
z
" id="DejaVuSans-Bold-49"/>
     <path d="M 10.015625 1.609375 
L 10.015625 15.09375 
Q 14.5 12.984375 18.59375 11.9375 
Q 22.703125 10.890625 26.703125 10.890625 
Q 35.109375 10.890625 39.796875 15.546875 
Q 44.484375 20.21875 45.3125 29.390625 
Q 42 26.953125 38.234375 25.734375 
Q 34.46875 24.515625 30.078125 24.515625 
Q 18.890625 24.515625 12.03125 31.03125 
Q 5.171875 37.546875 5.171875 48.1875 
Q 5.171875 59.96875 12.8125 67.046875 
Q 20.453125 74.125 33.296875 74.125 
Q 47.5625 74.125 55.375 64.5 
Q 63.1875 54.890625 63.1875 37.3125 
Q 63.1875 19.234375 54.046875 8.90625 
Q 44.921875 -1.421875 29 -1.421875 
Q 23.875 -1.421875 19.1875 -0.65625 
Q 14.5 0.09375 10.015625 1.609375 
z
M 33.203125 36.71875 
Q 38.140625 36.71875 40.625 39.90625 
Q 43.109375 43.109375 43.109375 49.515625 
Q 43.109375 55.859375 40.625 59.078125 
Q 38.140625 62.3125 33.203125 62.3125 
Q 28.265625 62.3125 25.78125 59.078125 
Q 23.296875 55.859375 23.296875 49.515625 
Q 23.296875 43.109375 25.78125 39.90625 
Q 28.265625 36.71875 33.203125 36.71875 
z
" id="DejaVuSans-Bold-57"/>
    </defs>
    <g transform="translate(374.704676 296.027572)scale(0.12 -0.12)">
     <use xlink:href="#DejaVuSans-Bold-49"/>
     <use x="69.580078" xlink:href="#DejaVuSans-Bold-57"/>
     <use x="139.160156" xlink:href="#DejaVuSans-Bold-46"/>
     <use x="177.148438" xlink:href="#DejaVuSans-Bold-52"/>
     <use x="246.728516" xlink:href="#DejaVuSans-Bold-37"/>
    </g>
   </g>
   <g id="text_12">
    <!-- 40.6% -->
    <g transform="translate(413.908251 168.875493)scale(0.12 -0.12)">
     <use xlink:href="#DejaVuSans-Bold-52"/>
     <use x="69.580078" xlink:href="#DejaVuSans-Bold-48"/>
     <use x="139.160156" xlink:href="#DejaVuSans-Bold-46"/>
     <use x="177.148438" xlink:href="#DejaVuSans-Bold-54"/>
     <use x="246.728516" xlink:href="#DejaVuSans-Bold-37"/>
    </g>
   </g>
   <g id="text_13">
    <!-- Distribution Merged Pattern -->
    <defs>
     <path d="M 27.984375 58.6875 
L 27.984375 14.203125 
L 34.71875 14.203125 
Q 46.234375 14.203125 52.3125 19.921875 
Q 58.40625 25.640625 58.40625 36.53125 
Q 58.40625 47.359375 52.34375 53.015625 
Q 46.296875 58.6875 34.71875 58.6875 
z
M 9.1875 72.90625 
L 29 72.90625 
Q 45.609375 72.90625 53.734375 70.53125 
Q 61.859375 68.171875 67.671875 62.5 
Q 72.796875 57.5625 75.28125 51.109375 
Q 77.78125 44.671875 77.78125 36.53125 
Q 77.78125 28.265625 75.28125 21.796875 
Q 72.796875 15.328125 67.671875 10.40625 
Q 61.8125 4.734375 53.609375 2.359375 
Q 45.40625 0 29 0 
L 9.1875 0 
z
" id="DejaVuSans-Bold-68"/>
     <path d="M 8.40625 54.6875 
L 25.875 54.6875 
L 25.875 0 
L 8.40625 0 
z
M 8.40625 75.984375 
L 25.875 75.984375 
L 25.875 61.71875 
L 8.40625 61.71875 
z
" id="DejaVuSans-Bold-105"/>
     <path d="M 51.125 52.984375 
L 51.125 39.703125 
Q 45.515625 42.046875 40.28125 43.21875 
Q 35.0625 44.390625 30.421875 44.390625 
Q 25.4375 44.390625 23.015625 43.140625 
Q 20.609375 41.890625 20.609375 39.3125 
Q 20.609375 37.203125 22.4375 36.078125 
Q 24.265625 34.96875 29 34.421875 
L 32.078125 33.984375 
Q 45.515625 32.28125 50.140625 28.375 
Q 54.78125 24.46875 54.78125 16.109375 
Q 54.78125 7.375 48.328125 2.96875 
Q 41.890625 -1.421875 29.109375 -1.421875 
Q 23.6875 -1.421875 17.890625 -0.5625 
Q 12.109375 0.296875 6 2 
L 6 15.28125 
Q 11.234375 12.75 16.71875 11.46875 
Q 22.21875 10.203125 27.875 10.203125 
Q 33.015625 10.203125 35.59375 11.609375 
Q 38.1875 13.03125 38.1875 15.828125 
Q 38.1875 18.171875 36.40625 19.3125 
Q 34.625 20.453125 29.296875 21.09375 
L 26.21875 21.484375 
Q 14.546875 22.953125 9.859375 26.90625 
Q 5.171875 30.859375 5.171875 38.921875 
Q 5.171875 47.609375 11.125 51.796875 
Q 17.09375 56 29.390625 56 
Q 34.234375 56 39.546875 55.265625 
Q 44.875 54.546875 51.125 52.984375 
z
" id="DejaVuSans-Bold-115"/>
     <path d="M 27.484375 70.21875 
L 27.484375 54.6875 
L 45.515625 54.6875 
L 45.515625 42.1875 
L 27.484375 42.1875 
L 27.484375 19 
Q 27.484375 15.1875 29 13.84375 
Q 30.515625 12.5 35.015625 12.5 
L 44 12.5 
L 44 0 
L 29 0 
Q 18.65625 0 14.328125 4.3125 
Q 10.015625 8.640625 10.015625 19 
L 10.015625 42.1875 
L 1.3125 42.1875 
L 1.3125 54.6875 
L 10.015625 54.6875 
L 10.015625 70.21875 
z
" id="DejaVuSans-Bold-116"/>
     <path d="M 49.03125 39.796875 
Q 46.734375 40.875 44.453125 41.375 
Q 42.1875 41.890625 39.890625 41.890625 
Q 33.15625 41.890625 29.515625 37.5625 
Q 25.875 33.25 25.875 25.203125 
L 25.875 0 
L 8.40625 0 
L 8.40625 54.6875 
L 25.875 54.6875 
L 25.875 45.703125 
Q 29.25 51.078125 33.609375 53.53125 
Q 37.984375 56 44.09375 56 
Q 44.96875 56 45.984375 55.921875 
Q 47.015625 55.859375 48.96875 55.609375 
z
" id="DejaVuSans-Bold-114"/>
     <path d="M 37.5 11.28125 
Q 43.109375 11.28125 46.0625 15.375 
Q 49.03125 19.484375 49.03125 27.296875 
Q 49.03125 35.109375 46.0625 39.203125 
Q 43.109375 43.3125 37.5 43.3125 
Q 31.890625 43.3125 28.875 39.1875 
Q 25.875 35.0625 25.875 27.296875 
Q 25.875 19.53125 28.875 15.40625 
Q 31.890625 11.28125 37.5 11.28125 
z
M 25.875 46.6875 
Q 29.5 51.46875 33.890625 53.734375 
Q 38.28125 56 44 56 
Q 54.109375 56 60.59375 47.96875 
Q 67.09375 39.9375 67.09375 27.296875 
Q 67.09375 14.65625 60.59375 6.609375 
Q 54.109375 -1.421875 44 -1.421875 
Q 38.28125 -1.421875 33.890625 0.84375 
Q 29.5 3.125 25.875 7.90625 
L 25.875 0 
L 8.40625 0 
L 8.40625 75.984375 
L 25.875 75.984375 
z
" id="DejaVuSans-Bold-98"/>
     <path d="M 7.8125 21.296875 
L 7.8125 54.6875 
L 25.390625 54.6875 
L 25.390625 49.21875 
Q 25.390625 44.78125 25.34375 38.0625 
Q 25.296875 31.34375 25.296875 29.109375 
Q 25.296875 22.515625 25.640625 19.609375 
Q 25.984375 16.703125 26.8125 15.375 
Q 27.875 13.671875 29.609375 12.734375 
Q 31.34375 11.8125 33.59375 11.8125 
Q 39.0625 11.8125 42.1875 16.015625 
Q 45.3125 20.21875 45.3125 27.6875 
L 45.3125 54.6875 
L 62.796875 54.6875 
L 62.796875 0 
L 45.3125 0 
L 45.3125 7.90625 
Q 41.359375 3.125 36.9375 0.84375 
Q 32.515625 -1.421875 27.203125 -1.421875 
Q 17.71875 -1.421875 12.765625 4.390625 
Q 7.8125 10.203125 7.8125 21.296875 
z
" id="DejaVuSans-Bold-117"/>
     <path d="M 34.421875 43.5 
Q 28.609375 43.5 25.5625 39.328125 
Q 22.515625 35.15625 22.515625 27.296875 
Q 22.515625 19.4375 25.5625 15.25 
Q 28.609375 11.078125 34.421875 11.078125 
Q 40.140625 11.078125 43.15625 15.25 
Q 46.1875 19.4375 46.1875 27.296875 
Q 46.1875 35.15625 43.15625 39.328125 
Q 40.140625 43.5 34.421875 43.5 
z
M 34.421875 56 
Q 48.53125 56 56.46875 48.375 
Q 64.40625 40.765625 64.40625 27.296875 
Q 64.40625 13.8125 56.46875 6.1875 
Q 48.53125 -1.421875 34.421875 -1.421875 
Q 20.265625 -1.421875 12.28125 6.1875 
Q 4.296875 13.8125 4.296875 27.296875 
Q 4.296875 40.765625 12.28125 48.375 
Q 20.265625 56 34.421875 56 
z
" id="DejaVuSans-Bold-111"/>
     <path d="M 63.375 33.296875 
L 63.375 0 
L 45.796875 0 
L 45.796875 5.421875 
L 45.796875 25.484375 
Q 45.796875 32.5625 45.484375 35.25 
Q 45.171875 37.9375 44.390625 39.203125 
Q 43.359375 40.921875 41.59375 41.875 
Q 39.84375 42.828125 37.59375 42.828125 
Q 32.125 42.828125 29 38.59375 
Q 25.875 34.375 25.875 26.90625 
L 25.875 0 
L 8.40625 0 
L 8.40625 54.6875 
L 25.875 54.6875 
L 25.875 46.6875 
Q 29.828125 51.46875 34.265625 53.734375 
Q 38.71875 56 44.09375 56 
Q 53.5625 56 58.46875 50.1875 
Q 63.375 44.390625 63.375 33.296875 
z
" id="DejaVuSans-Bold-110"/>
     <path id="DejaVuSans-Bold-32"/>
     <path d="M 9.1875 72.90625 
L 33.109375 72.90625 
L 49.703125 33.890625 
L 66.40625 72.90625 
L 90.28125 72.90625 
L 90.28125 0 
L 72.515625 0 
L 72.515625 53.328125 
L 55.71875 14.015625 
L 43.796875 14.015625 
L 27 53.328125 
L 27 0 
L 9.1875 0 
z
" id="DejaVuSans-Bold-77"/>
     <path d="M 62.984375 27.484375 
L 62.984375 22.515625 
L 22.125 22.515625 
Q 22.75 16.359375 26.5625 13.28125 
Q 30.375 10.203125 37.203125 10.203125 
Q 42.71875 10.203125 48.5 11.84375 
Q 54.296875 13.484375 60.40625 16.796875 
L 60.40625 3.328125 
Q 54.203125 0.984375 48 -0.21875 
Q 41.796875 -1.421875 35.59375 -1.421875 
Q 20.75 -1.421875 12.515625 6.125 
Q 4.296875 13.671875 4.296875 27.296875 
Q 4.296875 40.671875 12.375 48.328125 
Q 20.453125 56 34.625 56 
Q 47.515625 56 55.25 48.234375 
Q 62.984375 40.484375 62.984375 27.484375 
z
M 45.015625 33.296875 
Q 45.015625 38.28125 42.109375 41.328125 
Q 39.203125 44.390625 34.515625 44.390625 
Q 29.4375 44.390625 26.265625 41.53125 
Q 23.09375 38.671875 22.3125 33.296875 
z
" id="DejaVuSans-Bold-101"/>
     <path d="M 45.609375 9.28125 
Q 42 4.5 37.640625 2.25 
Q 33.296875 0 27.59375 0 
Q 17.578125 0 11.03125 7.875 
Q 4.5 15.765625 4.5 27.984375 
Q 4.5 40.234375 11.03125 48.0625 
Q 17.578125 55.90625 27.59375 55.90625 
Q 33.296875 55.90625 37.640625 53.65625 
Q 42 51.421875 45.609375 46.578125 
L 45.609375 54.6875 
L 63.1875 54.6875 
L 63.1875 5.515625 
Q 63.1875 -7.671875 54.859375 -14.625 
Q 46.53125 -21.578125 30.71875 -21.578125 
Q 25.59375 -21.578125 20.796875 -20.796875 
Q 16.015625 -20.015625 11.1875 -18.40625 
L 11.1875 -4.78125 
Q 15.765625 -7.421875 20.15625 -8.71875 
Q 24.5625 -10.015625 29 -10.015625 
Q 37.59375 -10.015625 41.59375 -6.25 
Q 45.609375 -2.484375 45.609375 5.515625 
z
M 34.078125 43.3125 
Q 28.65625 43.3125 25.625 39.296875 
Q 22.609375 35.296875 22.609375 27.984375 
Q 22.609375 20.453125 25.53125 16.578125 
Q 28.46875 12.703125 34.078125 12.703125 
Q 39.546875 12.703125 42.578125 16.703125 
Q 45.609375 20.703125 45.609375 27.984375 
Q 45.609375 35.296875 42.578125 39.296875 
Q 39.546875 43.3125 34.078125 43.3125 
z
" id="DejaVuSans-Bold-103"/>
     <path d="M 45.609375 46.6875 
L 45.609375 75.984375 
L 63.1875 75.984375 
L 63.1875 0 
L 45.609375 0 
L 45.609375 7.90625 
Q 42 3.078125 37.640625 0.828125 
Q 33.296875 -1.421875 27.59375 -1.421875 
Q 17.484375 -1.421875 10.984375 6.609375 
Q 4.5 14.65625 4.5 27.296875 
Q 4.5 39.9375 10.984375 47.96875 
Q 17.484375 56 27.59375 56 
Q 33.25 56 37.625 53.734375 
Q 42 51.46875 45.609375 46.6875 
z
M 34.078125 11.28125 
Q 39.703125 11.28125 42.65625 15.375 
Q 45.609375 19.484375 45.609375 27.296875 
Q 45.609375 35.109375 42.65625 39.203125 
Q 39.703125 43.3125 34.078125 43.3125 
Q 28.515625 43.3125 25.5625 39.203125 
Q 22.609375 35.109375 22.609375 27.296875 
Q 22.609375 19.484375 25.5625 15.375 
Q 28.515625 11.28125 34.078125 11.28125 
z
" id="DejaVuSans-Bold-100"/>
     <path d="M 9.1875 72.90625 
L 40.375 72.90625 
Q 54.296875 72.90625 61.734375 66.71875 
Q 69.1875 60.546875 69.1875 49.125 
Q 69.1875 37.640625 61.734375 31.46875 
Q 54.296875 25.296875 40.375 25.296875 
L 27.984375 25.296875 
L 27.984375 0 
L 9.1875 0 
z
M 27.984375 59.28125 
L 27.984375 38.921875 
L 38.375 38.921875 
Q 43.84375 38.921875 46.828125 41.578125 
Q 49.8125 44.234375 49.8125 49.125 
Q 49.8125 54 46.828125 56.640625 
Q 43.84375 59.28125 38.375 59.28125 
z
" id="DejaVuSans-Bold-80"/>
     <path d="M 32.90625 24.609375 
Q 27.4375 24.609375 24.671875 22.75 
Q 21.921875 20.90625 21.921875 17.28125 
Q 21.921875 13.96875 24.140625 12.078125 
Q 26.375 10.203125 30.328125 10.203125 
Q 35.25 10.203125 38.625 13.734375 
Q 42 17.28125 42 22.609375 
L 42 24.609375 
z
M 59.625 31.203125 
L 59.625 0 
L 42 0 
L 42 8.109375 
Q 38.484375 3.125 34.078125 0.84375 
Q 29.6875 -1.421875 23.390625 -1.421875 
Q 14.890625 -1.421875 9.59375 3.53125 
Q 4.296875 8.5 4.296875 16.40625 
Q 4.296875 26.03125 10.90625 30.515625 
Q 17.53125 35.015625 31.6875 35.015625 
L 42 35.015625 
L 42 36.375 
Q 42 40.53125 38.71875 42.453125 
Q 35.453125 44.390625 28.515625 44.390625 
Q 22.90625 44.390625 18.0625 43.265625 
Q 13.234375 42.140625 9.078125 39.890625 
L 9.078125 53.21875 
Q 14.703125 54.59375 20.359375 55.296875 
Q 26.03125 56 31.6875 56 
Q 46.484375 56 53.046875 50.171875 
Q 59.625 44.34375 59.625 31.203125 
z
" id="DejaVuSans-Bold-97"/>
    </defs>
    <g transform="translate(273.3075 45.84)scale(0.12 -0.12)">
     <use xlink:href="#DejaVuSans-Bold-68"/>
     <use x="83.007812" xlink:href="#DejaVuSans-Bold-105"/>
     <use x="117.285156" xlink:href="#DejaVuSans-Bold-115"/>
     <use x="176.806641" xlink:href="#DejaVuSans-Bold-116"/>
     <use x="224.609375" xlink:href="#DejaVuSans-Bold-114"/>
     <use x="273.925781" xlink:href="#DejaVuSans-Bold-105"/>
     <use x="308.203125" xlink:href="#DejaVuSans-Bold-98"/>
     <use x="379.785156" xlink:href="#DejaVuSans-Bold-117"/>
     <use x="450.976562" xlink:href="#DejaVuSans-Bold-116"/>
     <use x="498.779297" xlink:href="#DejaVuSans-Bold-105"/>
     <use x="533.056641" xlink:href="#DejaVuSans-Bold-111"/>
     <use x="601.757812" xlink:href="#DejaVuSans-Bold-110"/>
     <use x="672.949219" xlink:href="#DejaVuSans-Bold-32"/>
     <use x="707.763672" xlink:href="#DejaVuSans-Bold-77"/>
     <use x="807.275391" xlink:href="#DejaVuSans-Bold-101"/>
     <use x="875.097656" xlink:href="#DejaVuSans-Bold-114"/>
     <use x="924.414062" xlink:href="#DejaVuSans-Bold-103"/>
     <use x="995.996094" xlink:href="#DejaVuSans-Bold-101"/>
     <use x="1063.818359" xlink:href="#DejaVuSans-Bold-100"/>
     <use x="1135.400391" xlink:href="#DejaVuSans-Bold-32"/>
     <use x="1170.214844" xlink:href="#DejaVuSans-Bold-80"/>
     <use x="1243.474609" xlink:href="#DejaVuSans-Bold-97"/>
     <use x="1310.955078" xlink:href="#DejaVuSans-Bold-116"/>
     <use x="1358.757812" xlink:href="#DejaVuSans-Bold-116"/>
     <use x="1406.560547" xlink:href="#DejaVuSans-Bold-101"/>
     <use x="1474.382812" xlink:href="#DejaVuSans-Bold-114"/>
     <use x="1523.699219" xlink:href="#DejaVuSans-Bold-110"/>
    </g>
   </g>
  </g>
 </g>
</svg>
