<?xml version="1.0" encoding="utf-8" standalone="no"?>
<!DOCTYPE svg PUBLIC "-//W3C//DTD SVG 1.1//EN"
  "http://www.w3.org/Graphics/SVG/1.1/DTD/svg11.dtd">
<!-- Created with matplotlib (https://matplotlib.org/) -->
<svg height="576pt" version="1.1" viewBox="0 0 720 576" width="720pt" xmlns="http://www.w3.org/2000/svg" xmlns:xlink="http://www.w3.org/1999/xlink">
 <defs>
  <style type="text/css">
*{stroke-linecap:butt;stroke-linejoin:round;white-space:pre;}
  </style>
 </defs>
 <g id="figure_1">
  <g id="patch_1">
   <path d="M 0 576 
L 720 576 
L 720 0 
L 0 0 
z
" style="fill:#ffffff;"/>
  </g>
  <g id="axes_1">
   <g id="patch_2">
    <path d="M 53.8 528.2 
L 709.2 528.2 
L 709.2 10.8 
L 53.8 10.8 
z
" style="fill:#ffffff;"/>
   </g>
   <g id="matplotlib.axis_1">
    <g id="xtick_1">
     <g id="line2d_1">
      <path clip-path="url(#pb11021e712)" d="M 83.590909 528.2 
L 83.590909 10.8 
" style="fill:none;stroke:#b0b0b0;stroke-dasharray:2.96,1.28;stroke-dashoffset:0;stroke-width:0.8;"/>
     </g>
     <g id="line2d_2">
      <defs>
       <path d="M 0 0 
L 0 3.5 
" id="mc8e041c750" style="stroke:#000000;stroke-width:0.8;"/>
      </defs>
      <g>
       <use style="stroke:#000000;stroke-width:0.8;" x="83.590909" xlink:href="#mc8e041c750" y="528.2"/>
      </g>
     </g>
     <g id="text_1">
      <!-- 0.0 -->
      <defs>
       <path d="M 31.78125 66.40625 
Q 24.171875 66.40625 20.328125 58.90625 
Q 16.5 51.421875 16.5 36.375 
Q 16.5 21.390625 20.328125 13.890625 
Q 24.171875 6.390625 31.78125 6.390625 
Q 39.453125 6.390625 43.28125 13.890625 
Q 47.125 21.390625 47.125 36.375 
Q 47.125 51.421875 43.28125 58.90625 
Q 39.453125 66.40625 31.78125 66.40625 
z
M 31.78125 74.21875 
Q 44.046875 74.21875 50.515625 64.515625 
Q 56.984375 54.828125 56.984375 36.375 
Q 56.984375 17.96875 50.515625 8.265625 
Q 44.046875 -1.421875 31.78125 -1.421875 
Q 19.53125 -1.421875 13.0625 8.265625 
Q 6.59375 17.96875 6.59375 36.375 
Q 6.59375 54.828125 13.0625 64.515625 
Q 19.53125 74.21875 31.78125 74.21875 
z
" id="DejaVuSans-48"/>
       <path d="M 10.6875 12.40625 
L 21 12.40625 
L 21 0 
L 10.6875 0 
z
" id="DejaVuSans-46"/>
      </defs>
      <g transform="translate(74.049034 544.318125)scale(0.12 -0.12)">
       <use xlink:href="#DejaVuSans-48"/>
       <use x="63.623047" xlink:href="#DejaVuSans-46"/>
       <use x="95.410156" xlink:href="#DejaVuSans-48"/>
      </g>
     </g>
    </g>
    <g id="xtick_2">
     <g id="line2d_3">
      <path clip-path="url(#pb11021e712)" d="M 202.754545 528.2 
L 202.754545 10.8 
" style="fill:none;stroke:#b0b0b0;stroke-dasharray:2.96,1.28;stroke-dashoffset:0;stroke-width:0.8;"/>
     </g>
     <g id="line2d_4">
      <g>
       <use style="stroke:#000000;stroke-width:0.8;" x="202.754545" xlink:href="#mc8e041c750" y="528.2"/>
      </g>
     </g>
     <g id="text_2">
      <!-- 0.2 -->
      <defs>
       <path d="M 19.1875 8.296875 
L 53.609375 8.296875 
L 53.609375 0 
L 7.328125 0 
L 7.328125 8.296875 
Q 12.9375 14.109375 22.625 23.890625 
Q 32.328125 33.6875 34.8125 36.53125 
Q 39.546875 41.84375 41.421875 45.53125 
Q 43.3125 49.21875 43.3125 52.78125 
Q 43.3125 58.59375 39.234375 62.25 
Q 35.15625 65.921875 28.609375 65.921875 
Q 23.96875 65.921875 18.8125 64.3125 
Q 13.671875 62.703125 7.8125 59.421875 
L 7.8125 69.390625 
Q 13.765625 71.78125 18.9375 73 
Q 24.125 74.21875 28.421875 74.21875 
Q 39.75 74.21875 46.484375 68.546875 
Q 53.21875 62.890625 53.21875 53.421875 
Q 53.21875 48.921875 51.53125 44.890625 
Q 49.859375 40.875 45.40625 35.40625 
Q 44.1875 33.984375 37.640625 27.21875 
Q 31.109375 20.453125 19.1875 8.296875 
z
" id="DejaVuSans-50"/>
      </defs>
      <g transform="translate(193.21267 544.318125)scale(0.12 -0.12)">
       <use xlink:href="#DejaVuSans-48"/>
       <use x="63.623047" xlink:href="#DejaVuSans-46"/>
       <use x="95.410156" xlink:href="#DejaVuSans-50"/>
      </g>
     </g>
    </g>
    <g id="xtick_3">
     <g id="line2d_5">
      <path clip-path="url(#pb11021e712)" d="M 321.918182 528.2 
L 321.918182 10.8 
" style="fill:none;stroke:#b0b0b0;stroke-dasharray:2.96,1.28;stroke-dashoffset:0;stroke-width:0.8;"/>
     </g>
     <g id="line2d_6">
      <g>
       <use style="stroke:#000000;stroke-width:0.8;" x="321.918182" xlink:href="#mc8e041c750" y="528.2"/>
      </g>
     </g>
     <g id="text_3">
      <!-- 0.4 -->
      <defs>
       <path d="M 37.796875 64.3125 
L 12.890625 25.390625 
L 37.796875 25.390625 
z
M 35.203125 72.90625 
L 47.609375 72.90625 
L 47.609375 25.390625 
L 58.015625 25.390625 
L 58.015625 17.1875 
L 47.609375 17.1875 
L 47.609375 0 
L 37.796875 0 
L 37.796875 17.1875 
L 4.890625 17.1875 
L 4.890625 26.703125 
z
" id="DejaVuSans-52"/>
      </defs>
      <g transform="translate(312.376307 544.318125)scale(0.12 -0.12)">
       <use xlink:href="#DejaVuSans-48"/>
       <use x="63.623047" xlink:href="#DejaVuSans-46"/>
       <use x="95.410156" xlink:href="#DejaVuSans-52"/>
      </g>
     </g>
    </g>
    <g id="xtick_4">
     <g id="line2d_7">
      <path clip-path="url(#pb11021e712)" d="M 441.081818 528.2 
L 441.081818 10.8 
" style="fill:none;stroke:#b0b0b0;stroke-dasharray:2.96,1.28;stroke-dashoffset:0;stroke-width:0.8;"/>
     </g>
     <g id="line2d_8">
      <g>
       <use style="stroke:#000000;stroke-width:0.8;" x="441.081818" xlink:href="#mc8e041c750" y="528.2"/>
      </g>
     </g>
     <g id="text_4">
      <!-- 0.6 -->
      <defs>
       <path d="M 33.015625 40.375 
Q 26.375 40.375 22.484375 35.828125 
Q 18.609375 31.296875 18.609375 23.390625 
Q 18.609375 15.53125 22.484375 10.953125 
Q 26.375 6.390625 33.015625 6.390625 
Q 39.65625 6.390625 43.53125 10.953125 
Q 47.40625 15.53125 47.40625 23.390625 
Q 47.40625 31.296875 43.53125 35.828125 
Q 39.65625 40.375 33.015625 40.375 
z
M 52.59375 71.296875 
L 52.59375 62.3125 
Q 48.875 64.0625 45.09375 64.984375 
Q 41.3125 65.921875 37.59375 65.921875 
Q 27.828125 65.921875 22.671875 59.328125 
Q 17.53125 52.734375 16.796875 39.40625 
Q 19.671875 43.65625 24.015625 45.921875 
Q 28.375 48.1875 33.59375 48.1875 
Q 44.578125 48.1875 50.953125 41.515625 
Q 57.328125 34.859375 57.328125 23.390625 
Q 57.328125 12.15625 50.6875 5.359375 
Q 44.046875 -1.421875 33.015625 -1.421875 
Q 20.359375 -1.421875 13.671875 8.265625 
Q 6.984375 17.96875 6.984375 36.375 
Q 6.984375 53.65625 15.1875 63.9375 
Q 23.390625 74.21875 37.203125 74.21875 
Q 40.921875 74.21875 44.703125 73.484375 
Q 48.484375 72.75 52.59375 71.296875 
z
" id="DejaVuSans-54"/>
      </defs>
      <g transform="translate(431.539943 544.318125)scale(0.12 -0.12)">
       <use xlink:href="#DejaVuSans-48"/>
       <use x="63.623047" xlink:href="#DejaVuSans-46"/>
       <use x="95.410156" xlink:href="#DejaVuSans-54"/>
      </g>
     </g>
    </g>
    <g id="xtick_5">
     <g id="line2d_9">
      <path clip-path="url(#pb11021e712)" d="M 560.245455 528.2 
L 560.245455 10.8 
" style="fill:none;stroke:#b0b0b0;stroke-dasharray:2.96,1.28;stroke-dashoffset:0;stroke-width:0.8;"/>
     </g>
     <g id="line2d_10">
      <g>
       <use style="stroke:#000000;stroke-width:0.8;" x="560.245455" xlink:href="#mc8e041c750" y="528.2"/>
      </g>
     </g>
     <g id="text_5">
      <!-- 0.8 -->
      <defs>
       <path d="M 31.78125 34.625 
Q 24.75 34.625 20.71875 30.859375 
Q 16.703125 27.09375 16.703125 20.515625 
Q 16.703125 13.921875 20.71875 10.15625 
Q 24.75 6.390625 31.78125 6.390625 
Q 38.8125 6.390625 42.859375 10.171875 
Q 46.921875 13.96875 46.921875 20.515625 
Q 46.921875 27.09375 42.890625 30.859375 
Q 38.875 34.625 31.78125 34.625 
z
M 21.921875 38.8125 
Q 15.578125 40.375 12.03125 44.71875 
Q 8.5 49.078125 8.5 55.328125 
Q 8.5 64.0625 14.71875 69.140625 
Q 20.953125 74.21875 31.78125 74.21875 
Q 42.671875 74.21875 48.875 69.140625 
Q 55.078125 64.0625 55.078125 55.328125 
Q 55.078125 49.078125 51.53125 44.71875 
Q 48 40.375 41.703125 38.8125 
Q 48.828125 37.15625 52.796875 32.3125 
Q 56.78125 27.484375 56.78125 20.515625 
Q 56.78125 9.90625 50.3125 4.234375 
Q 43.84375 -1.421875 31.78125 -1.421875 
Q 19.734375 -1.421875 13.25 4.234375 
Q 6.78125 9.90625 6.78125 20.515625 
Q 6.78125 27.484375 10.78125 32.3125 
Q 14.796875 37.15625 21.921875 38.8125 
z
M 18.3125 54.390625 
Q 18.3125 48.734375 21.84375 45.5625 
Q 25.390625 42.390625 31.78125 42.390625 
Q 38.140625 42.390625 41.71875 45.5625 
Q 45.3125 48.734375 45.3125 54.390625 
Q 45.3125 60.0625 41.71875 63.234375 
Q 38.140625 66.40625 31.78125 66.40625 
Q 25.390625 66.40625 21.84375 63.234375 
Q 18.3125 60.0625 18.3125 54.390625 
z
" id="DejaVuSans-56"/>
      </defs>
      <g transform="translate(550.70358 544.318125)scale(0.12 -0.12)">
       <use xlink:href="#DejaVuSans-48"/>
       <use x="63.623047" xlink:href="#DejaVuSans-46"/>
       <use x="95.410156" xlink:href="#DejaVuSans-56"/>
      </g>
     </g>
    </g>
    <g id="xtick_6">
     <g id="line2d_11">
      <path clip-path="url(#pb11021e712)" d="M 679.409091 528.2 
L 679.409091 10.8 
" style="fill:none;stroke:#b0b0b0;stroke-dasharray:2.96,1.28;stroke-dashoffset:0;stroke-width:0.8;"/>
     </g>
     <g id="line2d_12">
      <g>
       <use style="stroke:#000000;stroke-width:0.8;" x="679.409091" xlink:href="#mc8e041c750" y="528.2"/>
      </g>
     </g>
     <g id="text_6">
      <!-- 1.0 -->
      <defs>
       <path d="M 12.40625 8.296875 
L 28.515625 8.296875 
L 28.515625 63.921875 
L 10.984375 60.40625 
L 10.984375 69.390625 
L 28.421875 72.90625 
L 38.28125 72.90625 
L 38.28125 8.296875 
L 54.390625 8.296875 
L 54.390625 0 
L 12.40625 0 
z
" id="DejaVuSans-49"/>
      </defs>
      <g transform="translate(669.867216 544.318125)scale(0.12 -0.12)">
       <use xlink:href="#DejaVuSans-49"/>
       <use x="63.623047" xlink:href="#DejaVuSans-46"/>
       <use x="95.410156" xlink:href="#DejaVuSans-48"/>
      </g>
     </g>
    </g>
    <g id="text_7">
     <!-- False Positive Rate -->
     <defs>
      <path d="M 9.1875 72.90625 
L 59.90625 72.90625 
L 59.90625 58.6875 
L 27.984375 58.6875 
L 27.984375 45.125 
L 58.015625 45.125 
L 58.015625 30.90625 
L 27.984375 30.90625 
L 27.984375 0 
L 9.1875 0 
z
" id="DejaVuSans-Bold-70"/>
      <path d="M 32.90625 24.609375 
Q 27.4375 24.609375 24.671875 22.75 
Q 21.921875 20.90625 21.921875 17.28125 
Q 21.921875 13.96875 24.140625 12.078125 
Q 26.375 10.203125 30.328125 10.203125 
Q 35.25 10.203125 38.625 13.734375 
Q 42 17.28125 42 22.609375 
L 42 24.609375 
z
M 59.625 31.203125 
L 59.625 0 
L 42 0 
L 42 8.109375 
Q 38.484375 3.125 34.078125 0.84375 
Q 29.6875 -1.421875 23.390625 -1.421875 
Q 14.890625 -1.421875 9.59375 3.53125 
Q 4.296875 8.5 4.296875 16.40625 
Q 4.296875 26.03125 10.90625 30.515625 
Q 17.53125 35.015625 31.6875 35.015625 
L 42 35.015625 
L 42 36.375 
Q 42 40.53125 38.71875 42.453125 
Q 35.453125 44.390625 28.515625 44.390625 
Q 22.90625 44.390625 18.0625 43.265625 
Q 13.234375 42.140625 9.078125 39.890625 
L 9.078125 53.21875 
Q 14.703125 54.59375 20.359375 55.296875 
Q 26.03125 56 31.6875 56 
Q 46.484375 56 53.046875 50.171875 
Q 59.625 44.34375 59.625 31.203125 
z
" id="DejaVuSans-Bold-97"/>
      <path d="M 8.40625 75.984375 
L 25.875 75.984375 
L 25.875 0 
L 8.40625 0 
z
" id="DejaVuSans-Bold-108"/>
      <path d="M 51.125 52.984375 
L 51.125 39.703125 
Q 45.515625 42.046875 40.28125 43.21875 
Q 35.0625 44.390625 30.421875 44.390625 
Q 25.4375 44.390625 23.015625 43.140625 
Q 20.609375 41.890625 20.609375 39.3125 
Q 20.609375 37.203125 22.4375 36.078125 
Q 24.265625 34.96875 29 34.421875 
L 32.078125 33.984375 
Q 45.515625 32.28125 50.140625 28.375 
Q 54.78125 24.46875 54.78125 16.109375 
Q 54.78125 7.375 48.328125 2.96875 
Q 41.890625 -1.421875 29.109375 -1.421875 
Q 23.6875 -1.421875 17.890625 -0.5625 
Q 12.109375 0.296875 6 2 
L 6 15.28125 
Q 11.234375 12.75 16.71875 11.46875 
Q 22.21875 10.203125 27.875 10.203125 
Q 33.015625 10.203125 35.59375 11.609375 
Q 38.1875 13.03125 38.1875 15.828125 
Q 38.1875 18.171875 36.40625 19.3125 
Q 34.625 20.453125 29.296875 21.09375 
L 26.21875 21.484375 
Q 14.546875 22.953125 9.859375 26.90625 
Q 5.171875 30.859375 5.171875 38.921875 
Q 5.171875 47.609375 11.125 51.796875 
Q 17.09375 56 29.390625 56 
Q 34.234375 56 39.546875 55.265625 
Q 44.875 54.546875 51.125 52.984375 
z
" id="DejaVuSans-Bold-115"/>
      <path d="M 62.984375 27.484375 
L 62.984375 22.515625 
L 22.125 22.515625 
Q 22.75 16.359375 26.5625 13.28125 
Q 30.375 10.203125 37.203125 10.203125 
Q 42.71875 10.203125 48.5 11.84375 
Q 54.296875 13.484375 60.40625 16.796875 
L 60.40625 3.328125 
Q 54.203125 0.984375 48 -0.21875 
Q 41.796875 -1.421875 35.59375 -1.421875 
Q 20.75 -1.421875 12.515625 6.125 
Q 4.296875 13.671875 4.296875 27.296875 
Q 4.296875 40.671875 12.375 48.328125 
Q 20.453125 56 34.625 56 
Q 47.515625 56 55.25 48.234375 
Q 62.984375 40.484375 62.984375 27.484375 
z
M 45.015625 33.296875 
Q 45.015625 38.28125 42.109375 41.328125 
Q 39.203125 44.390625 34.515625 44.390625 
Q 29.4375 44.390625 26.265625 41.53125 
Q 23.09375 38.671875 22.3125 33.296875 
z
" id="DejaVuSans-Bold-101"/>
      <path id="DejaVuSans-Bold-32"/>
      <path d="M 9.1875 72.90625 
L 40.375 72.90625 
Q 54.296875 72.90625 61.734375 66.71875 
Q 69.1875 60.546875 69.1875 49.125 
Q 69.1875 37.640625 61.734375 31.46875 
Q 54.296875 25.296875 40.375 25.296875 
L 27.984375 25.296875 
L 27.984375 0 
L 9.1875 0 
z
M 27.984375 59.28125 
L 27.984375 38.921875 
L 38.375 38.921875 
Q 43.84375 38.921875 46.828125 41.578125 
Q 49.8125 44.234375 49.8125 49.125 
Q 49.8125 54 46.828125 56.640625 
Q 43.84375 59.28125 38.375 59.28125 
z
" id="DejaVuSans-Bold-80"/>
      <path d="M 34.421875 43.5 
Q 28.609375 43.5 25.5625 39.328125 
Q 22.515625 35.15625 22.515625 27.296875 
Q 22.515625 19.4375 25.5625 15.25 
Q 28.609375 11.078125 34.421875 11.078125 
Q 40.140625 11.078125 43.15625 15.25 
Q 46.1875 19.4375 46.1875 27.296875 
Q 46.1875 35.15625 43.15625 39.328125 
Q 40.140625 43.5 34.421875 43.5 
z
M 34.421875 56 
Q 48.53125 56 56.46875 48.375 
Q 64.40625 40.765625 64.40625 27.296875 
Q 64.40625 13.8125 56.46875 6.1875 
Q 48.53125 -1.421875 34.421875 -1.421875 
Q 20.265625 -1.421875 12.28125 6.1875 
Q 4.296875 13.8125 4.296875 27.296875 
Q 4.296875 40.765625 12.28125 48.375 
Q 20.265625 56 34.421875 56 
z
" id="DejaVuSans-Bold-111"/>
      <path d="M 8.40625 54.6875 
L 25.875 54.6875 
L 25.875 0 
L 8.40625 0 
z
M 8.40625 75.984375 
L 25.875 75.984375 
L 25.875 61.71875 
L 8.40625 61.71875 
z
" id="DejaVuSans-Bold-105"/>
      <path d="M 27.484375 70.21875 
L 27.484375 54.6875 
L 45.515625 54.6875 
L 45.515625 42.1875 
L 27.484375 42.1875 
L 27.484375 19 
Q 27.484375 15.1875 29 13.84375 
Q 30.515625 12.5 35.015625 12.5 
L 44 12.5 
L 44 0 
L 29 0 
Q 18.65625 0 14.328125 4.3125 
Q 10.015625 8.640625 10.015625 19 
L 10.015625 42.1875 
L 1.3125 42.1875 
L 1.3125 54.6875 
L 10.015625 54.6875 
L 10.015625 70.21875 
z
" id="DejaVuSans-Bold-116"/>
      <path d="M 1.515625 54.6875 
L 19 54.6875 
L 32.625 16.890625 
L 46.1875 54.6875 
L 63.71875 54.6875 
L 42.1875 0 
L 23 0 
z
" id="DejaVuSans-Bold-118"/>
      <path d="M 35.890625 40.578125 
Q 41.796875 40.578125 44.359375 42.765625 
Q 46.921875 44.96875 46.921875 50 
Q 46.921875 54.984375 44.359375 57.125 
Q 41.796875 59.28125 35.890625 59.28125 
L 27.984375 59.28125 
L 27.984375 40.578125 
z
M 27.984375 27.59375 
L 27.984375 0 
L 9.1875 0 
L 9.1875 72.90625 
L 37.890625 72.90625 
Q 52.296875 72.90625 59 68.0625 
Q 65.71875 63.234375 65.71875 52.78125 
Q 65.71875 45.5625 62.21875 40.921875 
Q 58.734375 36.28125 51.703125 34.078125 
Q 55.5625 33.203125 58.609375 30.09375 
Q 61.671875 27 64.796875 20.703125 
L 75 0 
L 54.984375 0 
L 46.09375 18.109375 
Q 43.40625 23.578125 40.640625 25.578125 
Q 37.890625 27.59375 33.296875 27.59375 
z
" id="DejaVuSans-Bold-82"/>
     </defs>
     <g transform="translate(316.821875 559.931875)scale(0.12 -0.12)">
      <use xlink:href="#DejaVuSans-Bold-70"/>
      <use x="68.232422" xlink:href="#DejaVuSans-Bold-97"/>
      <use x="135.712891" xlink:href="#DejaVuSans-Bold-108"/>
      <use x="169.990234" xlink:href="#DejaVuSans-Bold-115"/>
      <use x="229.511719" xlink:href="#DejaVuSans-Bold-101"/>
      <use x="297.333984" xlink:href="#DejaVuSans-Bold-32"/>
      <use x="332.148438" xlink:href="#DejaVuSans-Bold-80"/>
      <use x="405.439453" xlink:href="#DejaVuSans-Bold-111"/>
      <use x="474.140625" xlink:href="#DejaVuSans-Bold-115"/>
      <use x="533.662109" xlink:href="#DejaVuSans-Bold-105"/>
      <use x="567.939453" xlink:href="#DejaVuSans-Bold-116"/>
      <use x="615.742188" xlink:href="#DejaVuSans-Bold-105"/>
      <use x="650.019531" xlink:href="#DejaVuSans-Bold-118"/>
      <use x="715.205078" xlink:href="#DejaVuSans-Bold-101"/>
      <use x="783.027344" xlink:href="#DejaVuSans-Bold-32"/>
      <use x="817.841797" xlink:href="#DejaVuSans-Bold-82"/>
      <use x="894.84375" xlink:href="#DejaVuSans-Bold-97"/>
      <use x="962.324219" xlink:href="#DejaVuSans-Bold-116"/>
      <use x="1010.126953" xlink:href="#DejaVuSans-Bold-101"/>
     </g>
    </g>
   </g>
   <g id="matplotlib.axis_2">
    <g id="ytick_1">
     <g id="line2d_13">
      <path clip-path="url(#pb11021e712)" d="M 53.8 504.681818 
L 709.2 504.681818 
" style="fill:none;stroke:#b0b0b0;stroke-dasharray:2.96,1.28;stroke-dashoffset:0;stroke-width:0.8;"/>
     </g>
     <g id="line2d_14">
      <defs>
       <path d="M 0 0 
L -3.5 0 
" id="mc4e72e42f4" style="stroke:#000000;stroke-width:0.8;"/>
      </defs>
      <g>
       <use style="stroke:#000000;stroke-width:0.8;" x="53.8" xlink:href="#mc4e72e42f4" y="504.681818"/>
      </g>
     </g>
     <g id="text_8">
      <!-- 0.0 -->
      <g transform="translate(27.71625 509.240881)scale(0.12 -0.12)">
       <use xlink:href="#DejaVuSans-48"/>
       <use x="63.623047" xlink:href="#DejaVuSans-46"/>
       <use x="95.410156" xlink:href="#DejaVuSans-48"/>
      </g>
     </g>
    </g>
    <g id="ytick_2">
     <g id="line2d_15">
      <path clip-path="url(#pb11021e712)" d="M 53.8 410.609091 
L 709.2 410.609091 
" style="fill:none;stroke:#b0b0b0;stroke-dasharray:2.96,1.28;stroke-dashoffset:0;stroke-width:0.8;"/>
     </g>
     <g id="line2d_16">
      <g>
       <use style="stroke:#000000;stroke-width:0.8;" x="53.8" xlink:href="#mc4e72e42f4" y="410.609091"/>
      </g>
     </g>
     <g id="text_9">
      <!-- 0.2 -->
      <g transform="translate(27.71625 415.168153)scale(0.12 -0.12)">
       <use xlink:href="#DejaVuSans-48"/>
       <use x="63.623047" xlink:href="#DejaVuSans-46"/>
       <use x="95.410156" xlink:href="#DejaVuSans-50"/>
      </g>
     </g>
    </g>
    <g id="ytick_3">
     <g id="line2d_17">
      <path clip-path="url(#pb11021e712)" d="M 53.8 316.536364 
L 709.2 316.536364 
" style="fill:none;stroke:#b0b0b0;stroke-dasharray:2.96,1.28;stroke-dashoffset:0;stroke-width:0.8;"/>
     </g>
     <g id="line2d_18">
      <g>
       <use style="stroke:#000000;stroke-width:0.8;" x="53.8" xlink:href="#mc4e72e42f4" y="316.536364"/>
      </g>
     </g>
     <g id="text_10">
      <!-- 0.4 -->
      <g transform="translate(27.71625 321.095426)scale(0.12 -0.12)">
       <use xlink:href="#DejaVuSans-48"/>
       <use x="63.623047" xlink:href="#DejaVuSans-46"/>
       <use x="95.410156" xlink:href="#DejaVuSans-52"/>
      </g>
     </g>
    </g>
    <g id="ytick_4">
     <g id="line2d_19">
      <path clip-path="url(#pb11021e712)" d="M 53.8 222.463636 
L 709.2 222.463636 
" style="fill:none;stroke:#b0b0b0;stroke-dasharray:2.96,1.28;stroke-dashoffset:0;stroke-width:0.8;"/>
     </g>
     <g id="line2d_20">
      <g>
       <use style="stroke:#000000;stroke-width:0.8;" x="53.8" xlink:href="#mc4e72e42f4" y="222.463636"/>
      </g>
     </g>
     <g id="text_11">
      <!-- 0.6 -->
      <g transform="translate(27.71625 227.022699)scale(0.12 -0.12)">
       <use xlink:href="#DejaVuSans-48"/>
       <use x="63.623047" xlink:href="#DejaVuSans-46"/>
       <use x="95.410156" xlink:href="#DejaVuSans-54"/>
      </g>
     </g>
    </g>
    <g id="ytick_5">
     <g id="line2d_21">
      <path clip-path="url(#pb11021e712)" d="M 53.8 128.390909 
L 709.2 128.390909 
" style="fill:none;stroke:#b0b0b0;stroke-dasharray:2.96,1.28;stroke-dashoffset:0;stroke-width:0.8;"/>
     </g>
     <g id="line2d_22">
      <g>
       <use style="stroke:#000000;stroke-width:0.8;" x="53.8" xlink:href="#mc4e72e42f4" y="128.390909"/>
      </g>
     </g>
     <g id="text_12">
      <!-- 0.8 -->
      <g transform="translate(27.71625 132.949972)scale(0.12 -0.12)">
       <use xlink:href="#DejaVuSans-48"/>
       <use x="63.623047" xlink:href="#DejaVuSans-46"/>
       <use x="95.410156" xlink:href="#DejaVuSans-56"/>
      </g>
     </g>
    </g>
    <g id="ytick_6">
     <g id="line2d_23">
      <path clip-path="url(#pb11021e712)" d="M 53.8 34.318182 
L 709.2 34.318182 
" style="fill:none;stroke:#b0b0b0;stroke-dasharray:2.96,1.28;stroke-dashoffset:0;stroke-width:0.8;"/>
     </g>
     <g id="line2d_24">
      <g>
       <use style="stroke:#000000;stroke-width:0.8;" x="53.8" xlink:href="#mc4e72e42f4" y="34.318182"/>
      </g>
     </g>
     <g id="text_13">
      <!-- 1.0 -->
      <g transform="translate(27.71625 38.877244)scale(0.12 -0.12)">
       <use xlink:href="#DejaVuSans-49"/>
       <use x="63.623047" xlink:href="#DejaVuSans-46"/>
       <use x="95.410156" xlink:href="#DejaVuSans-48"/>
      </g>
     </g>
    </g>
    <g id="text_14">
     <!-- True Positive Rate -->
     <defs>
      <path d="M 0.484375 72.90625 
L 67.671875 72.90625 
L 67.671875 58.6875 
L 43.5 58.6875 
L 43.5 0 
L 24.703125 0 
L 24.703125 58.6875 
L 0.484375 58.6875 
z
" id="DejaVuSans-Bold-84"/>
      <path d="M 49.03125 39.796875 
Q 46.734375 40.875 44.453125 41.375 
Q 42.1875 41.890625 39.890625 41.890625 
Q 33.15625 41.890625 29.515625 37.5625 
Q 25.875 33.25 25.875 25.203125 
L 25.875 0 
L 8.40625 0 
L 8.40625 54.6875 
L 25.875 54.6875 
L 25.875 45.703125 
Q 29.25 51.078125 33.609375 53.53125 
Q 37.984375 56 44.09375 56 
Q 44.96875 56 45.984375 55.921875 
Q 47.015625 55.859375 48.96875 55.609375 
z
" id="DejaVuSans-Bold-114"/>
      <path d="M 7.8125 21.296875 
L 7.8125 54.6875 
L 25.390625 54.6875 
L 25.390625 49.21875 
Q 25.390625 44.78125 25.34375 38.0625 
Q 25.296875 31.34375 25.296875 29.109375 
Q 25.296875 22.515625 25.640625 19.609375 
Q 25.984375 16.703125 26.8125 15.375 
Q 27.875 13.671875 29.609375 12.734375 
Q 31.34375 11.8125 33.59375 11.8125 
Q 39.0625 11.8125 42.1875 16.015625 
Q 45.3125 20.21875 45.3125 27.6875 
L 45.3125 54.6875 
L 62.796875 54.6875 
L 62.796875 0 
L 45.3125 0 
L 45.3125 7.90625 
Q 41.359375 3.125 36.9375 0.84375 
Q 32.515625 -1.421875 27.203125 -1.421875 
Q 17.71875 -1.421875 12.765625 4.390625 
Q 7.8125 10.203125 7.8125 21.296875 
z
" id="DejaVuSans-Bold-117"/>
     </defs>
     <g transform="translate(21.220625 331.72)rotate(-90)scale(0.12 -0.12)">
      <use xlink:href="#DejaVuSans-Bold-84"/>
      <use x="68.041016" xlink:href="#DejaVuSans-Bold-114"/>
      <use x="117.357422" xlink:href="#DejaVuSans-Bold-117"/>
      <use x="188.548828" xlink:href="#DejaVuSans-Bold-101"/>
      <use x="256.371094" xlink:href="#DejaVuSans-Bold-32"/>
      <use x="291.185547" xlink:href="#DejaVuSans-Bold-80"/>
      <use x="364.476562" xlink:href="#DejaVuSans-Bold-111"/>
      <use x="433.177734" xlink:href="#DejaVuSans-Bold-115"/>
      <use x="492.699219" xlink:href="#DejaVuSans-Bold-105"/>
      <use x="526.976562" xlink:href="#DejaVuSans-Bold-116"/>
      <use x="574.779297" xlink:href="#DejaVuSans-Bold-105"/>
      <use x="609.056641" xlink:href="#DejaVuSans-Bold-118"/>
      <use x="674.242188" xlink:href="#DejaVuSans-Bold-101"/>
      <use x="742.064453" xlink:href="#DejaVuSans-Bold-32"/>
      <use x="776.878906" xlink:href="#DejaVuSans-Bold-82"/>
      <use x="853.880859" xlink:href="#DejaVuSans-Bold-97"/>
      <use x="921.361328" xlink:href="#DejaVuSans-Bold-116"/>
      <use x="969.164062" xlink:href="#DejaVuSans-Bold-101"/>
     </g>
    </g>
   </g>
   <g id="line2d_25">
    <path clip-path="url(#pb11021e712)" d="M 83.590909 504.681818 
L 89.609275 276.010468 
L 95.62764 206.48152 
L 101.646006 173.276793 
L 107.664371 137.902011 
L 113.682736 130.848168 
L 119.701102 118.397507 
L 125.719467 109.202982 
L 131.737833 105.359153 
L 137.756198 99.454862 
L 143.774564 96.586063 
L 149.792929 92.986209 
L 155.811295 91.587297 
L 161.82966 90.553911 
L 167.848026 89.449552 
L 173.866391 88.95959 
L 179.884757 87.365269 
L 185.903122 67.231138 
L 191.921488 64.976735 
L 197.939853 64.931051 
L 203.958219 64.441089 
L 209.976584 62.846768 
L 215.994949 61.866844 
L 222.013315 61.128012 
L 228.03168 60.63805 
L 234.050046 60.148088 
L 240.068411 58.188239 
L 246.086777 57.698277 
L 252.105142 57.698277 
L 258.123508 38.054108 
L 264.141873 37.074184 
L 270.160239 37.074184 
L 276.178604 36.584222 
L 282.19697 36.048576 
L 288.215335 36.048576 
L 294.233701 36.048576 
L 300.252066 36.048576 
L 306.270432 35.068651 
L 312.288797 34.977283 
L 318.307163 34.977283 
L 324.325528 34.977283 
L 330.343893 34.977283 
L 336.362259 34.853828 
L 342.380624 34.363866 
L 348.39899 34.363866 
L 354.417355 34.363866 
L 360.435721 34.363866 
L 366.454086 34.363866 
L 372.472452 34.363866 
L 378.490817 34.363866 
L 384.509183 34.363866 
L 390.527548 34.363866 
L 396.545914 34.363866 
L 402.564279 34.363866 
L 408.582645 34.363866 
L 414.60101 34.363866 
L 420.619376 34.363866 
L 426.637741 34.363866 
L 432.656107 34.363866 
L 438.674472 34.363866 
L 444.692837 34.363866 
L 450.711203 34.318182 
L 456.729568 34.318182 
L 462.747934 34.318182 
L 468.766299 34.318182 
L 474.784665 34.318182 
L 480.80303 34.318182 
L 486.821396 34.318182 
L 492.839761 34.318182 
L 498.858127 34.318182 
L 504.876492 34.318182 
L 510.894858 34.318182 
L 516.913223 34.318182 
L 522.931589 34.318182 
L 528.949954 34.318182 
L 534.96832 34.318182 
L 540.986685 34.318182 
L 547.005051 34.318182 
L 553.023416 34.318182 
L 559.041781 34.318182 
L 565.060147 34.318182 
L 571.078512 34.318182 
L 577.096878 34.318182 
L 583.115243 34.318182 
L 589.133609 34.318182 
L 595.151974 34.318182 
L 601.17034 34.318182 
L 607.188705 34.318182 
L 613.207071 34.318182 
L 619.225436 34.318182 
L 625.243802 34.318182 
L 631.262167 34.318182 
L 637.280533 34.318182 
L 643.298898 34.318182 
L 649.317264 34.318182 
L 655.335629 34.318182 
L 661.353994 34.318182 
L 667.37236 34.318182 
L 673.390725 34.318182 
L 679.409091 34.318182 
" style="fill:none;stroke:#00ffff;stroke-linecap:square;stroke-width:2;"/>
   </g>
   <g id="line2d_26">
    <path clip-path="url(#pb11021e712)" d="M 83.590909 504.681818 
L 89.609275 300.158221 
L 95.62764 252.930781 
L 101.646006 222.354035 
L 107.664371 204.135433 
L 113.682736 194.385902 
L 119.701102 188.844747 
L 125.719467 179.217148 
L 131.737833 176.378479 
L 137.756198 174.811407 
L 143.774564 172.955598 
L 149.792929 171.726804 
L 155.811295 170.817854 
L 161.82966 170.327891 
L 167.848026 168.360266 
L 173.866391 161.849355 
L 179.884757 137.086391 
L 185.903122 135.126542 
L 191.921488 134.022183 
L 197.939853 129.478898 
L 203.958219 109.710294 
L 209.976584 104.552612 
L 215.994949 103.082726 
L 222.013315 103.082726 
L 228.03168 102.54708 
L 234.050046 98.983719 
L 240.068411 98.859284 
L 246.086777 98.369322 
L 252.105142 97.87936 
L 258.123508 97.389397 
L 264.141873 96.409473 
L 270.160239 76.686554 
L 276.178604 76.196591 
L 282.19697 75.706629 
L 288.215335 75.706629 
L 294.233701 75.216667 
L 300.252066 75.216667 
L 306.270432 75.216667 
L 312.288797 75.092232 
L 318.307163 74.967798 
L 324.325528 74.477835 
L 330.343893 73.987873 
L 336.362259 73.987873 
L 342.380624 73.987873 
L 348.39899 73.497911 
L 354.417355 73.452227 
L 360.435721 73.452227 
L 366.454086 73.452227 
L 372.472452 73.452227 
L 378.490817 73.452227 
L 384.509183 72.962265 
L 390.527548 72.962265 
L 396.545914 69.398904 
L 402.564279 69.398904 
L 408.582645 69.398904 
L 414.60101 69.398904 
L 420.619376 69.274469 
L 426.637741 49.675984 
L 432.656107 49.55155 
L 438.674472 49.55155 
L 444.692837 49.55155 
L 450.711203 49.55155 
L 456.729568 45.498227 
L 462.747934 45.498227 
L 468.766299 38.371505 
L 474.784665 38.371505 
L 480.80303 38.371505 
L 486.821396 38.371505 
L 492.839761 38.371505 
L 498.858127 38.371505 
L 504.876492 38.371505 
L 510.894858 38.371505 
L 516.913223 38.371505 
L 522.931589 38.371505 
L 528.949954 38.371505 
L 534.96832 38.371505 
L 540.986685 38.371505 
L 547.005051 38.371505 
L 553.023416 38.371505 
L 559.041781 38.371505 
L 565.060147 38.371505 
L 571.078512 38.371505 
L 577.096878 37.881543 
L 583.115243 37.881543 
L 589.133609 37.881543 
L 595.151974 37.881543 
L 601.17034 37.881543 
L 607.188705 34.318182 
L 613.207071 34.318182 
L 619.225436 34.318182 
L 625.243802 34.318182 
L 631.262167 34.318182 
L 637.280533 34.318182 
L 643.298898 34.318182 
L 649.317264 34.318182 
L 655.335629 34.318182 
L 661.353994 34.318182 
L 667.37236 34.318182 
L 673.390725 34.318182 
L 679.409091 34.318182 
" style="fill:none;stroke:#008000;stroke-linecap:square;stroke-width:2;"/>
   </g>
   <g id="line2d_27">
    <path clip-path="url(#pb11021e712)" d="M 83.590909 504.681818 
L 89.609275 223.794381 
L 95.62764 199.801271 
L 101.646006 191.815268 
L 107.664371 181.004132 
L 113.682736 177.043651 
L 119.701102 172.868346 
L 125.719467 169.233526 
L 131.737833 165.638572 
L 137.756198 161.635285 
L 143.774564 157.561024 
L 149.792929 155.159835 
L 155.811295 154.083705 
L 161.82966 151.611542 
L 167.848026 149.753777 
L 173.866391 125.795235 
L 179.884757 123.944267 
L 185.903122 122.715473 
L 191.921488 119.760146 
L 197.939853 118.523575 
L 203.958219 117.045911 
L 209.976584 116.797042 
L 215.994949 114.946074 
L 222.013315 113.227318 
L 228.03168 112.069497 
L 234.050046 111.579535 
L 240.068411 109.00529 
L 246.086777 107.776496 
L 252.105142 85.230461 
L 258.123508 83.910299 
L 264.141873 82.681505 
L 270.160239 82.191543 
L 276.178604 81.329256 
L 282.19697 80.224897 
L 288.215335 78.755011 
L 294.233701 78.630576 
L 300.252066 59.032091 
L 306.270432 58.542129 
L 312.288797 58.417694 
L 318.307163 57.927732 
L 324.325528 57.927732 
L 330.343893 55.477921 
L 336.362259 55.477921 
L 342.380624 54.497997 
L 348.39899 54.008035 
L 354.417355 54.008035 
L 360.435721 34.40955 
L 366.454086 34.363866 
L 372.472452 34.363866 
L 378.490817 34.363866 
L 384.509183 34.363866 
L 390.527548 34.363866 
L 396.545914 34.363866 
L 402.564279 34.363866 
L 408.582645 34.363866 
L 414.60101 34.318182 
L 420.619376 34.318182 
L 426.637741 34.318182 
L 432.656107 34.318182 
L 438.674472 34.318182 
L 444.692837 34.318182 
L 450.711203 34.318182 
L 456.729568 34.318182 
L 462.747934 34.318182 
L 468.766299 34.318182 
L 474.784665 34.318182 
L 480.80303 34.318182 
L 486.821396 34.318182 
L 492.839761 34.318182 
L 498.858127 34.318182 
L 504.876492 34.318182 
L 510.894858 34.318182 
L 516.913223 34.318182 
L 522.931589 34.318182 
L 528.949954 34.318182 
L 534.96832 34.318182 
L 540.986685 34.318182 
L 547.005051 34.318182 
L 553.023416 34.318182 
L 559.041781 34.318182 
L 565.060147 34.318182 
L 571.078512 34.318182 
L 577.096878 34.318182 
L 583.115243 34.318182 
L 589.133609 34.318182 
L 595.151974 34.318182 
L 601.17034 34.318182 
L 607.188705 34.318182 
L 613.207071 34.318182 
L 619.225436 34.318182 
L 625.243802 34.318182 
L 631.262167 34.318182 
L 637.280533 34.318182 
L 643.298898 34.318182 
L 649.317264 34.318182 
L 655.335629 34.318182 
L 661.353994 34.318182 
L 667.37236 34.318182 
L 673.390725 34.318182 
L 679.409091 34.318182 
" style="fill:none;stroke:#ff8c00;stroke-linecap:square;stroke-width:2;"/>
   </g>
   <g id="line2d_28">
    <path clip-path="url(#pb11021e712)" d="M 83.590909 504.681818 
L 89.609275 214.721935 
L 95.62764 190.942562 
L 101.646006 131.443413 
L 107.664371 101.829941 
L 113.682736 92.292786 
L 119.701102 78.305129 
L 125.719467 70.754035 
L 131.737833 68.78641 
L 137.756198 64.082197 
L 143.774564 63.4678 
L 149.792929 61.338812 
L 155.811295 59.744491 
L 161.82966 53.972412 
L 167.848026 49.304692 
L 173.866391 48.200333 
L 179.884757 43.657048 
L 185.903122 43.167086 
L 191.921488 39.113763 
L 197.939853 38.133839 
L 203.958219 38.133839 
L 209.976584 38.04247 
L 215.994949 38.04247 
L 222.013315 37.428073 
L 228.03168 36.448149 
L 234.050046 36.448149 
L 240.068411 36.448149 
L 246.086777 35.958187 
L 252.105142 35.468225 
L 258.123508 35.468225 
L 264.141873 35.468225 
L 270.160239 35.468225 
L 276.178604 35.468225 
L 282.19697 34.978263 
L 288.215335 34.978263 
L 294.233701 34.978263 
L 300.252066 34.978263 
L 306.270432 34.978263 
L 312.288797 34.978263 
L 318.307163 34.978263 
L 324.325528 34.978263 
L 330.343893 34.978263 
L 336.362259 34.978263 
L 342.380624 34.978263 
L 348.39899 34.978263 
L 354.417355 34.932579 
L 360.435721 34.932579 
L 366.454086 34.932579 
L 372.472452 34.932579 
L 378.490817 34.932579 
L 384.509183 34.932579 
L 390.527548 34.932579 
L 396.545914 34.932579 
L 402.564279 34.932579 
L 408.582645 34.932579 
L 414.60101 34.932579 
L 420.619376 34.932579 
L 426.637741 34.932579 
L 432.656107 34.932579 
L 438.674472 34.932579 
L 444.692837 34.932579 
L 450.711203 34.932579 
L 456.729568 34.932579 
L 462.747934 34.932579 
L 468.766299 34.932579 
L 474.784665 34.442617 
L 480.80303 34.442617 
L 486.821396 34.442617 
L 492.839761 34.442617 
L 498.858127 34.442617 
L 504.876492 34.442617 
L 510.894858 34.442617 
L 516.913223 34.442617 
L 522.931589 34.442617 
L 528.949954 34.442617 
L 534.96832 34.318182 
L 540.986685 34.318182 
L 547.005051 34.318182 
L 553.023416 34.318182 
L 559.041781 34.318182 
L 565.060147 34.318182 
L 571.078512 34.318182 
L 577.096878 34.318182 
L 583.115243 34.318182 
L 589.133609 34.318182 
L 595.151974 34.318182 
L 601.17034 34.318182 
L 607.188705 34.318182 
L 613.207071 34.318182 
L 619.225436 34.318182 
L 625.243802 34.318182 
L 631.262167 34.318182 
L 637.280533 34.318182 
L 643.298898 34.318182 
L 649.317264 34.318182 
L 655.335629 34.318182 
L 661.353994 34.318182 
L 667.37236 34.318182 
L 673.390725 34.318182 
L 679.409091 34.318182 
" style="fill:none;stroke:#ffff00;stroke-linecap:square;stroke-width:2;"/>
   </g>
   <g id="line2d_29">
    <path clip-path="url(#pb11021e712)" d="M 83.590909 504.681818 
L 89.609275 176.550917 
L 95.62764 151.20974 
L 101.646006 143.191528 
L 107.664371 132.226797 
L 113.682736 102.618651 
L 119.701102 95.991083 
L 125.719467 91.083685 
L 131.737833 86.781492 
L 137.756198 83.093696 
L 143.774564 81.943653 
L 149.792929 81.408007 
L 155.811295 80.918045 
L 161.82966 79.448158 
L 167.848026 78.709326 
L 173.866391 77.480533 
L 179.884757 76.99057 
L 185.903122 56.412161 
L 191.921488 55.432237 
L 197.939853 55.432237 
L 203.958219 54.942275 
L 209.976584 54.942275 
L 215.994949 54.942275 
L 222.013315 54.942275 
L 228.03168 54.942275 
L 234.050046 35.34379 
L 240.068411 35.34379 
L 246.086777 35.34379 
L 252.105142 35.34379 
L 258.123508 35.34379 
L 264.141873 35.34379 
L 270.160239 35.34379 
L 276.178604 35.34379 
L 282.19697 35.298106 
L 288.215335 35.298106 
L 294.233701 35.298106 
L 300.252066 35.298106 
L 306.270432 35.298106 
L 312.288797 35.298106 
L 318.307163 34.808144 
L 324.325528 34.318182 
L 330.343893 34.318182 
L 336.362259 34.318182 
L 342.380624 34.318182 
L 348.39899 34.318182 
L 354.417355 34.318182 
L 360.435721 34.318182 
L 366.454086 34.318182 
L 372.472452 34.318182 
L 378.490817 34.318182 
L 384.509183 34.318182 
L 390.527548 34.318182 
L 396.545914 34.318182 
L 402.564279 34.318182 
L 408.582645 34.318182 
L 414.60101 34.318182 
L 420.619376 34.318182 
L 426.637741 34.318182 
L 432.656107 34.318182 
L 438.674472 34.318182 
L 444.692837 34.318182 
L 450.711203 34.318182 
L 456.729568 34.318182 
L 462.747934 34.318182 
L 468.766299 34.318182 
L 474.784665 34.318182 
L 480.80303 34.318182 
L 486.821396 34.318182 
L 492.839761 34.318182 
L 498.858127 34.318182 
L 504.876492 34.318182 
L 510.894858 34.318182 
L 516.913223 34.318182 
L 522.931589 34.318182 
L 528.949954 34.318182 
L 534.96832 34.318182 
L 540.986685 34.318182 
L 547.005051 34.318182 
L 553.023416 34.318182 
L 559.041781 34.318182 
L 565.060147 34.318182 
L 571.078512 34.318182 
L 577.096878 34.318182 
L 583.115243 34.318182 
L 589.133609 34.318182 
L 595.151974 34.318182 
L 601.17034 34.318182 
L 607.188705 34.318182 
L 613.207071 34.318182 
L 619.225436 34.318182 
L 625.243802 34.318182 
L 631.262167 34.318182 
L 637.280533 34.318182 
L 643.298898 34.318182 
L 649.317264 34.318182 
L 655.335629 34.318182 
L 661.353994 34.318182 
L 667.37236 34.318182 
L 673.390725 34.318182 
L 679.409091 34.318182 
" style="fill:none;stroke:#000000;stroke-linecap:square;stroke-width:2;"/>
   </g>
   <g id="line2d_30">
    <path clip-path="url(#pb11021e712)" d="M 83.590909 504.681818 
L 89.609275 184.823431 
L 95.62764 116.713224 
L 101.646006 86.938879 
L 107.664371 61.881854 
L 113.682736 58.718501 
L 119.701102 51.502805 
L 125.719467 48.837191 
L 131.737833 47.118435 
L 137.756198 45.399679 
L 143.774564 44.536413 
L 149.792929 42.086602 
L 155.811295 40.616716 
L 161.82966 39.512357 
L 167.848026 39.022395 
L 173.866391 37.552508 
L 179.884757 37.062546 
L 185.903122 37.062546 
L 191.921488 37.062546 
L 197.939853 37.062546 
L 203.958219 36.938111 
L 209.976584 36.448149 
L 215.994949 36.448149 
L 222.013315 35.958187 
L 228.03168 35.958187 
L 234.050046 35.468225 
L 240.068411 35.468225 
L 246.086777 35.468225 
L 252.105142 35.468225 
L 258.123508 35.468225 
L 264.141873 35.468225 
L 270.160239 35.468225 
L 276.178604 35.468225 
L 282.19697 35.468225 
L 288.215335 34.978263 
L 294.233701 34.978263 
L 300.252066 34.488301 
L 306.270432 34.488301 
L 312.288797 34.488301 
L 318.307163 34.488301 
L 324.325528 34.488301 
L 330.343893 34.488301 
L 336.362259 34.488301 
L 342.380624 34.488301 
L 348.39899 34.488301 
L 354.417355 34.488301 
L 360.435721 34.488301 
L 366.454086 34.488301 
L 372.472452 34.488301 
L 378.490817 34.488301 
L 384.509183 34.442617 
L 390.527548 34.442617 
L 396.545914 34.442617 
L 402.564279 34.442617 
L 408.582645 34.442617 
L 414.60101 34.442617 
L 420.619376 34.442617 
L 426.637741 34.318182 
L 432.656107 34.318182 
L 438.674472 34.318182 
L 444.692837 34.318182 
L 450.711203 34.318182 
L 456.729568 34.318182 
L 462.747934 34.318182 
L 468.766299 34.318182 
L 474.784665 34.318182 
L 480.80303 34.318182 
L 486.821396 34.318182 
L 492.839761 34.318182 
L 498.858127 34.318182 
L 504.876492 34.318182 
L 510.894858 34.318182 
L 516.913223 34.318182 
L 522.931589 34.318182 
L 528.949954 34.318182 
L 534.96832 34.318182 
L 540.986685 34.318182 
L 547.005051 34.318182 
L 553.023416 34.318182 
L 559.041781 34.318182 
L 565.060147 34.318182 
L 571.078512 34.318182 
L 577.096878 34.318182 
L 583.115243 34.318182 
L 589.133609 34.318182 
L 595.151974 34.318182 
L 601.17034 34.318182 
L 607.188705 34.318182 
L 613.207071 34.318182 
L 619.225436 34.318182 
L 625.243802 34.318182 
L 631.262167 34.318182 
L 637.280533 34.318182 
L 643.298898 34.318182 
L 649.317264 34.318182 
L 655.335629 34.318182 
L 661.353994 34.318182 
L 667.37236 34.318182 
L 673.390725 34.318182 
L 679.409091 34.318182 
" style="fill:none;stroke:#0000ff;stroke-linecap:square;stroke-width:2;"/>
   </g>
   <g id="line2d_31">
    <path clip-path="url(#pb11021e712)" d="M 83.590909 504.681818 
L 679.409091 34.318182 
" style="fill:none;stroke:#ff0000;stroke-dasharray:7.4,3.2;stroke-dashoffset:0;stroke-opacity:0.8;stroke-width:2;"/>
   </g>
   <g id="patch_3">
    <path d="M 53.8 528.2 
L 53.8 10.8 
" style="fill:none;stroke:#000000;stroke-linecap:square;stroke-linejoin:miter;stroke-width:0.8;"/>
   </g>
   <g id="patch_4">
    <path d="M 53.8 528.2 
L 709.2 528.2 
" style="fill:none;stroke:#000000;stroke-linecap:square;stroke-linejoin:miter;stroke-width:0.8;"/>
   </g>
   <g id="legend_1">
    <g id="patch_5">
     <path d="M 388.3 523.2 
L 702.2 523.2 
Q 704.2 523.2 704.2 521.2 
L 704.2 419.453125 
Q 704.2 417.453125 702.2 417.453125 
L 388.3 417.453125 
Q 386.3 417.453125 386.3 419.453125 
L 386.3 521.2 
Q 386.3 523.2 388.3 523.2 
z
" style="fill:#ffffff;opacity:0.8;stroke:#cccccc;stroke-linejoin:miter;"/>
    </g>
    <g id="line2d_32">
     <path d="M 390.3 425.551563 
L 410.3 425.551563 
" style="fill:none;stroke:#00ffff;stroke-linecap:square;stroke-width:2;"/>
    </g>
    <g id="line2d_33"/>
    <g id="text_15">
     <!-- BDCNN 64x64/128x128 - ROC (AUC = 0.956 $\pm$ 0.045) -->
     <defs>
      <path d="M 19.671875 34.8125 
L 19.671875 8.109375 
L 35.5 8.109375 
Q 43.453125 8.109375 47.28125 11.40625 
Q 51.125 14.703125 51.125 21.484375 
Q 51.125 28.328125 47.28125 31.5625 
Q 43.453125 34.8125 35.5 34.8125 
z
M 19.671875 64.796875 
L 19.671875 42.828125 
L 34.28125 42.828125 
Q 41.5 42.828125 45.03125 45.53125 
Q 48.578125 48.25 48.578125 53.8125 
Q 48.578125 59.328125 45.03125 62.0625 
Q 41.5 64.796875 34.28125 64.796875 
z
M 9.8125 72.90625 
L 35.015625 72.90625 
Q 46.296875 72.90625 52.390625 68.21875 
Q 58.5 63.53125 58.5 54.890625 
Q 58.5 48.1875 55.375 44.234375 
Q 52.25 40.28125 46.1875 39.3125 
Q 53.46875 37.75 57.5 32.78125 
Q 61.53125 27.828125 61.53125 20.40625 
Q 61.53125 10.640625 54.890625 5.3125 
Q 48.25 0 35.984375 0 
L 9.8125 0 
z
" id="DejaVuSans-66"/>
      <path d="M 19.671875 64.796875 
L 19.671875 8.109375 
L 31.59375 8.109375 
Q 46.6875 8.109375 53.6875 14.9375 
Q 60.6875 21.78125 60.6875 36.53125 
Q 60.6875 51.171875 53.6875 57.984375 
Q 46.6875 64.796875 31.59375 64.796875 
z
M 9.8125 72.90625 
L 30.078125 72.90625 
Q 51.265625 72.90625 61.171875 64.09375 
Q 71.09375 55.28125 71.09375 36.53125 
Q 71.09375 17.671875 61.125 8.828125 
Q 51.171875 0 30.078125 0 
L 9.8125 0 
z
" id="DejaVuSans-68"/>
      <path d="M 64.40625 67.28125 
L 64.40625 56.890625 
Q 59.421875 61.53125 53.78125 63.8125 
Q 48.140625 66.109375 41.796875 66.109375 
Q 29.296875 66.109375 22.65625 58.46875 
Q 16.015625 50.828125 16.015625 36.375 
Q 16.015625 21.96875 22.65625 14.328125 
Q 29.296875 6.6875 41.796875 6.6875 
Q 48.140625 6.6875 53.78125 8.984375 
Q 59.421875 11.28125 64.40625 15.921875 
L 64.40625 5.609375 
Q 59.234375 2.09375 53.4375 0.328125 
Q 47.65625 -1.421875 41.21875 -1.421875 
Q 24.65625 -1.421875 15.125 8.703125 
Q 5.609375 18.84375 5.609375 36.375 
Q 5.609375 53.953125 15.125 64.078125 
Q 24.65625 74.21875 41.21875 74.21875 
Q 47.75 74.21875 53.53125 72.484375 
Q 59.328125 70.75 64.40625 67.28125 
z
" id="DejaVuSans-67"/>
      <path d="M 9.8125 72.90625 
L 23.09375 72.90625 
L 55.421875 11.921875 
L 55.421875 72.90625 
L 64.984375 72.90625 
L 64.984375 0 
L 51.703125 0 
L 19.390625 60.984375 
L 19.390625 0 
L 9.8125 0 
z
" id="DejaVuSans-78"/>
      <path id="DejaVuSans-32"/>
      <path d="M 54.890625 54.6875 
L 35.109375 28.078125 
L 55.90625 0 
L 45.3125 0 
L 29.390625 21.484375 
L 13.484375 0 
L 2.875 0 
L 24.125 28.609375 
L 4.6875 54.6875 
L 15.28125 54.6875 
L 29.78125 35.203125 
L 44.28125 54.6875 
z
" id="DejaVuSans-120"/>
      <path d="M 25.390625 72.90625 
L 33.6875 72.90625 
L 8.296875 -9.28125 
L 0 -9.28125 
z
" id="DejaVuSans-47"/>
      <path d="M 4.890625 31.390625 
L 31.203125 31.390625 
L 31.203125 23.390625 
L 4.890625 23.390625 
z
" id="DejaVuSans-45"/>
      <path d="M 44.390625 34.1875 
Q 47.5625 33.109375 50.5625 29.59375 
Q 53.5625 26.078125 56.59375 19.921875 
L 66.609375 0 
L 56 0 
L 46.6875 18.703125 
Q 43.0625 26.03125 39.671875 28.421875 
Q 36.28125 30.8125 30.421875 30.8125 
L 19.671875 30.8125 
L 19.671875 0 
L 9.8125 0 
L 9.8125 72.90625 
L 32.078125 72.90625 
Q 44.578125 72.90625 50.734375 67.671875 
Q 56.890625 62.453125 56.890625 51.90625 
Q 56.890625 45.015625 53.6875 40.46875 
Q 50.484375 35.9375 44.390625 34.1875 
z
M 19.671875 64.796875 
L 19.671875 38.921875 
L 32.078125 38.921875 
Q 39.203125 38.921875 42.84375 42.21875 
Q 46.484375 45.515625 46.484375 51.90625 
Q 46.484375 58.296875 42.84375 61.546875 
Q 39.203125 64.796875 32.078125 64.796875 
z
" id="DejaVuSans-82"/>
      <path d="M 39.40625 66.21875 
Q 28.65625 66.21875 22.328125 58.203125 
Q 16.015625 50.203125 16.015625 36.375 
Q 16.015625 22.609375 22.328125 14.59375 
Q 28.65625 6.59375 39.40625 6.59375 
Q 50.140625 6.59375 56.421875 14.59375 
Q 62.703125 22.609375 62.703125 36.375 
Q 62.703125 50.203125 56.421875 58.203125 
Q 50.140625 66.21875 39.40625 66.21875 
z
M 39.40625 74.21875 
Q 54.734375 74.21875 63.90625 63.9375 
Q 73.09375 53.65625 73.09375 36.375 
Q 73.09375 19.140625 63.90625 8.859375 
Q 54.734375 -1.421875 39.40625 -1.421875 
Q 24.03125 -1.421875 14.8125 8.828125 
Q 5.609375 19.09375 5.609375 36.375 
Q 5.609375 53.65625 14.8125 63.9375 
Q 24.03125 74.21875 39.40625 74.21875 
z
" id="DejaVuSans-79"/>
      <path d="M 31 75.875 
Q 24.46875 64.65625 21.28125 53.65625 
Q 18.109375 42.671875 18.109375 31.390625 
Q 18.109375 20.125 21.3125 9.0625 
Q 24.515625 -2 31 -13.1875 
L 23.1875 -13.1875 
Q 15.875 -1.703125 12.234375 9.375 
Q 8.59375 20.453125 8.59375 31.390625 
Q 8.59375 42.28125 12.203125 53.3125 
Q 15.828125 64.359375 23.1875 75.875 
z
" id="DejaVuSans-40"/>
      <path d="M 34.1875 63.1875 
L 20.796875 26.90625 
L 47.609375 26.90625 
z
M 28.609375 72.90625 
L 39.796875 72.90625 
L 67.578125 0 
L 57.328125 0 
L 50.6875 18.703125 
L 17.828125 18.703125 
L 11.1875 0 
L 0.78125 0 
z
" id="DejaVuSans-65"/>
      <path d="M 8.6875 72.90625 
L 18.609375 72.90625 
L 18.609375 28.609375 
Q 18.609375 16.890625 22.84375 11.734375 
Q 27.09375 6.59375 36.625 6.59375 
Q 46.09375 6.59375 50.34375 11.734375 
Q 54.59375 16.890625 54.59375 28.609375 
L 54.59375 72.90625 
L 64.5 72.90625 
L 64.5 27.390625 
Q 64.5 13.140625 57.4375 5.859375 
Q 50.390625 -1.421875 36.625 -1.421875 
Q 22.796875 -1.421875 15.734375 5.859375 
Q 8.6875 13.140625 8.6875 27.390625 
z
" id="DejaVuSans-85"/>
      <path d="M 10.59375 45.40625 
L 73.1875 45.40625 
L 73.1875 37.203125 
L 10.59375 37.203125 
z
M 10.59375 25.484375 
L 73.1875 25.484375 
L 73.1875 17.1875 
L 10.59375 17.1875 
z
" id="DejaVuSans-61"/>
      <path d="M 10.984375 1.515625 
L 10.984375 10.5 
Q 14.703125 8.734375 18.5 7.8125 
Q 22.3125 6.890625 25.984375 6.890625 
Q 35.75 6.890625 40.890625 13.453125 
Q 46.046875 20.015625 46.78125 33.40625 
Q 43.953125 29.203125 39.59375 26.953125 
Q 35.25 24.703125 29.984375 24.703125 
Q 19.046875 24.703125 12.671875 31.3125 
Q 6.296875 37.9375 6.296875 49.421875 
Q 6.296875 60.640625 12.9375 67.421875 
Q 19.578125 74.21875 30.609375 74.21875 
Q 43.265625 74.21875 49.921875 64.515625 
Q 56.59375 54.828125 56.59375 36.375 
Q 56.59375 19.140625 48.40625 8.859375 
Q 40.234375 -1.421875 26.421875 -1.421875 
Q 22.703125 -1.421875 18.890625 -0.6875 
Q 15.09375 0.046875 10.984375 1.515625 
z
M 30.609375 32.421875 
Q 37.25 32.421875 41.125 36.953125 
Q 45.015625 41.5 45.015625 49.421875 
Q 45.015625 57.28125 41.125 61.84375 
Q 37.25 66.40625 30.609375 66.40625 
Q 23.96875 66.40625 20.09375 61.84375 
Q 16.21875 57.28125 16.21875 49.421875 
Q 16.21875 41.5 20.09375 36.953125 
Q 23.96875 32.421875 30.609375 32.421875 
z
" id="DejaVuSans-57"/>
      <path d="M 10.796875 72.90625 
L 49.515625 72.90625 
L 49.515625 64.59375 
L 19.828125 64.59375 
L 19.828125 46.734375 
Q 21.96875 47.46875 24.109375 47.828125 
Q 26.265625 48.1875 28.421875 48.1875 
Q 40.625 48.1875 47.75 41.5 
Q 54.890625 34.8125 54.890625 23.390625 
Q 54.890625 11.625 47.5625 5.09375 
Q 40.234375 -1.421875 26.90625 -1.421875 
Q 22.3125 -1.421875 17.546875 -0.640625 
Q 12.796875 0.140625 7.71875 1.703125 
L 7.71875 11.625 
Q 12.109375 9.234375 16.796875 8.0625 
Q 21.484375 6.890625 26.703125 6.890625 
Q 35.15625 6.890625 40.078125 11.328125 
Q 45.015625 15.765625 45.015625 23.390625 
Q 45.015625 31 40.078125 35.4375 
Q 35.15625 39.890625 26.703125 39.890625 
Q 22.75 39.890625 18.8125 39.015625 
Q 14.890625 38.140625 10.796875 36.28125 
z
" id="DejaVuSans-53"/>
      <path d="M 46 62.703125 
L 46 43.796875 
L 73.1875 43.796875 
L 73.1875 35.5 
L 46 35.5 
L 46 16.609375 
L 37.796875 16.609375 
L 37.796875 35.5 
L 10.59375 35.5 
L 10.59375 43.796875 
L 37.796875 43.796875 
L 37.796875 62.703125 
z
M 10.59375 8.296875 
L 73.1875 8.296875 
L 73.1875 0 
L 10.59375 0 
z
" id="DejaVuSans-177"/>
      <path d="M 8.015625 75.875 
L 15.828125 75.875 
Q 23.140625 64.359375 26.78125 53.3125 
Q 30.421875 42.28125 30.421875 31.390625 
Q 30.421875 20.453125 26.78125 9.375 
Q 23.140625 -1.703125 15.828125 -13.1875 
L 8.015625 -13.1875 
Q 14.5 -2 17.703125 9.0625 
Q 20.90625 20.125 20.90625 31.390625 
Q 20.90625 42.671875 17.703125 53.65625 
Q 14.5 64.65625 8.015625 75.875 
z
" id="DejaVuSans-41"/>
     </defs>
     <g transform="translate(418.3 429.051563)scale(0.1 -0.1)">
      <use transform="translate(0 0.125)" xlink:href="#DejaVuSans-66"/>
      <use transform="translate(68.603516 0.125)" xlink:href="#DejaVuSans-68"/>
      <use transform="translate(145.605469 0.125)" xlink:href="#DejaVuSans-67"/>
      <use transform="translate(215.429688 0.125)" xlink:href="#DejaVuSans-78"/>
      <use transform="translate(290.234375 0.125)" xlink:href="#DejaVuSans-78"/>
      <use transform="translate(365.039062 0.125)" xlink:href="#DejaVuSans-32"/>
      <use transform="translate(396.826172 0.125)" xlink:href="#DejaVuSans-54"/>
      <use transform="translate(460.449219 0.125)" xlink:href="#DejaVuSans-52"/>
      <use transform="translate(524.072266 0.125)" xlink:href="#DejaVuSans-120"/>
      <use transform="translate(583.251953 0.125)" xlink:href="#DejaVuSans-54"/>
      <use transform="translate(646.875 0.125)" xlink:href="#DejaVuSans-52"/>
      <use transform="translate(710.498047 0.125)" xlink:href="#DejaVuSans-47"/>
      <use transform="translate(744.189453 0.125)" xlink:href="#DejaVuSans-49"/>
      <use transform="translate(807.8125 0.125)" xlink:href="#DejaVuSans-50"/>
      <use transform="translate(871.435547 0.125)" xlink:href="#DejaVuSans-56"/>
      <use transform="translate(935.058594 0.125)" xlink:href="#DejaVuSans-120"/>
      <use transform="translate(994.238281 0.125)" xlink:href="#DejaVuSans-49"/>
      <use transform="translate(1057.861328 0.125)" xlink:href="#DejaVuSans-50"/>
      <use transform="translate(1121.484375 0.125)" xlink:href="#DejaVuSans-56"/>
      <use transform="translate(1185.107422 0.125)" xlink:href="#DejaVuSans-32"/>
      <use transform="translate(1216.894531 0.125)" xlink:href="#DejaVuSans-45"/>
      <use transform="translate(1252.978516 0.125)" xlink:href="#DejaVuSans-32"/>
      <use transform="translate(1284.765625 0.125)" xlink:href="#DejaVuSans-82"/>
      <use transform="translate(1354.248047 0.125)" xlink:href="#DejaVuSans-79"/>
      <use transform="translate(1432.958984 0.125)" xlink:href="#DejaVuSans-67"/>
      <use transform="translate(1502.783203 0.125)" xlink:href="#DejaVuSans-32"/>
      <use transform="translate(1534.570312 0.125)" xlink:href="#DejaVuSans-40"/>
      <use transform="translate(1573.583984 0.125)" xlink:href="#DejaVuSans-65"/>
      <use transform="translate(1641.992188 0.125)" xlink:href="#DejaVuSans-85"/>
      <use transform="translate(1715.185547 0.125)" xlink:href="#DejaVuSans-67"/>
      <use transform="translate(1785.009766 0.125)" xlink:href="#DejaVuSans-32"/>
      <use transform="translate(1816.796875 0.125)" xlink:href="#DejaVuSans-61"/>
      <use transform="translate(1900.585938 0.125)" xlink:href="#DejaVuSans-32"/>
      <use transform="translate(1932.373047 0.125)" xlink:href="#DejaVuSans-48"/>
      <use transform="translate(1995.996094 0.125)" xlink:href="#DejaVuSans-46"/>
      <use transform="translate(2027.783203 0.125)" xlink:href="#DejaVuSans-57"/>
      <use transform="translate(2091.40625 0.125)" xlink:href="#DejaVuSans-53"/>
      <use transform="translate(2155.029297 0.125)" xlink:href="#DejaVuSans-54"/>
      <use transform="translate(2218.652344 0.125)" xlink:href="#DejaVuSans-32"/>
      <use transform="translate(2250.439453 0.125)" xlink:href="#DejaVuSans-177"/>
      <use transform="translate(2334.228516 0.125)" xlink:href="#DejaVuSans-32"/>
      <use transform="translate(2366.015625 0.125)" xlink:href="#DejaVuSans-48"/>
      <use transform="translate(2429.638672 0.125)" xlink:href="#DejaVuSans-46"/>
      <use transform="translate(2461.425781 0.125)" xlink:href="#DejaVuSans-48"/>
      <use transform="translate(2525.048828 0.125)" xlink:href="#DejaVuSans-52"/>
      <use transform="translate(2588.671875 0.125)" xlink:href="#DejaVuSans-53"/>
      <use transform="translate(2652.294922 0.125)" xlink:href="#DejaVuSans-41"/>
     </g>
    </g>
    <g id="line2d_34">
     <path d="M 390.3 440.229688 
L 410.3 440.229688 
" style="fill:none;stroke:#008000;stroke-linecap:square;stroke-width:2;"/>
    </g>
    <g id="line2d_35"/>
    <g id="text_16">
     <!-- BDCNN 64x64/256x256 - ROC (AUC = 0.893 $\pm$ 0.112) -->
     <defs>
      <path d="M 40.578125 39.3125 
Q 47.65625 37.796875 51.625 33 
Q 55.609375 28.21875 55.609375 21.1875 
Q 55.609375 10.40625 48.1875 4.484375 
Q 40.765625 -1.421875 27.09375 -1.421875 
Q 22.515625 -1.421875 17.65625 -0.515625 
Q 12.796875 0.390625 7.625 2.203125 
L 7.625 11.71875 
Q 11.71875 9.328125 16.59375 8.109375 
Q 21.484375 6.890625 26.8125 6.890625 
Q 36.078125 6.890625 40.9375 10.546875 
Q 45.796875 14.203125 45.796875 21.1875 
Q 45.796875 27.640625 41.28125 31.265625 
Q 36.765625 34.90625 28.71875 34.90625 
L 20.21875 34.90625 
L 20.21875 43.015625 
L 29.109375 43.015625 
Q 36.375 43.015625 40.234375 45.921875 
Q 44.09375 48.828125 44.09375 54.296875 
Q 44.09375 59.90625 40.109375 62.90625 
Q 36.140625 65.921875 28.71875 65.921875 
Q 24.65625 65.921875 20.015625 65.03125 
Q 15.375 64.15625 9.8125 62.3125 
L 9.8125 71.09375 
Q 15.4375 72.65625 20.34375 73.4375 
Q 25.25 74.21875 29.59375 74.21875 
Q 40.828125 74.21875 47.359375 69.109375 
Q 53.90625 64.015625 53.90625 55.328125 
Q 53.90625 49.265625 50.4375 45.09375 
Q 46.96875 40.921875 40.578125 39.3125 
z
" id="DejaVuSans-51"/>
     </defs>
     <g transform="translate(418.3 443.729688)scale(0.1 -0.1)">
      <use transform="translate(0 0.125)" xlink:href="#DejaVuSans-66"/>
      <use transform="translate(68.603516 0.125)" xlink:href="#DejaVuSans-68"/>
      <use transform="translate(145.605469 0.125)" xlink:href="#DejaVuSans-67"/>
      <use transform="translate(215.429688 0.125)" xlink:href="#DejaVuSans-78"/>
      <use transform="translate(290.234375 0.125)" xlink:href="#DejaVuSans-78"/>
      <use transform="translate(365.039062 0.125)" xlink:href="#DejaVuSans-32"/>
      <use transform="translate(396.826172 0.125)" xlink:href="#DejaVuSans-54"/>
      <use transform="translate(460.449219 0.125)" xlink:href="#DejaVuSans-52"/>
      <use transform="translate(524.072266 0.125)" xlink:href="#DejaVuSans-120"/>
      <use transform="translate(583.251953 0.125)" xlink:href="#DejaVuSans-54"/>
      <use transform="translate(646.875 0.125)" xlink:href="#DejaVuSans-52"/>
      <use transform="translate(710.498047 0.125)" xlink:href="#DejaVuSans-47"/>
      <use transform="translate(744.142578 0.125)" xlink:href="#DejaVuSans-50"/>
      <use transform="translate(807.765625 0.125)" xlink:href="#DejaVuSans-53"/>
      <use transform="translate(871.388672 0.125)" xlink:href="#DejaVuSans-54"/>
      <use transform="translate(935.011719 0.125)" xlink:href="#DejaVuSans-120"/>
      <use transform="translate(994.191406 0.125)" xlink:href="#DejaVuSans-50"/>
      <use transform="translate(1057.814453 0.125)" xlink:href="#DejaVuSans-53"/>
      <use transform="translate(1121.4375 0.125)" xlink:href="#DejaVuSans-54"/>
      <use transform="translate(1185.060547 0.125)" xlink:href="#DejaVuSans-32"/>
      <use transform="translate(1216.847656 0.125)" xlink:href="#DejaVuSans-45"/>
      <use transform="translate(1252.931641 0.125)" xlink:href="#DejaVuSans-32"/>
      <use transform="translate(1284.71875 0.125)" xlink:href="#DejaVuSans-82"/>
      <use transform="translate(1354.201172 0.125)" xlink:href="#DejaVuSans-79"/>
      <use transform="translate(1432.912109 0.125)" xlink:href="#DejaVuSans-67"/>
      <use transform="translate(1502.736328 0.125)" xlink:href="#DejaVuSans-32"/>
      <use transform="translate(1534.523438 0.125)" xlink:href="#DejaVuSans-40"/>
      <use transform="translate(1573.537109 0.125)" xlink:href="#DejaVuSans-65"/>
      <use transform="translate(1641.945312 0.125)" xlink:href="#DejaVuSans-85"/>
      <use transform="translate(1715.138672 0.125)" xlink:href="#DejaVuSans-67"/>
      <use transform="translate(1784.962891 0.125)" xlink:href="#DejaVuSans-32"/>
      <use transform="translate(1816.75 0.125)" xlink:href="#DejaVuSans-61"/>
      <use transform="translate(1900.539062 0.125)" xlink:href="#DejaVuSans-32"/>
      <use transform="translate(1932.326172 0.125)" xlink:href="#DejaVuSans-48"/>
      <use transform="translate(1995.949219 0.125)" xlink:href="#DejaVuSans-46"/>
      <use transform="translate(2027.705078 0.125)" xlink:href="#DejaVuSans-56"/>
      <use transform="translate(2091.328125 0.125)" xlink:href="#DejaVuSans-57"/>
      <use transform="translate(2154.951172 0.125)" xlink:href="#DejaVuSans-51"/>
      <use transform="translate(2218.574219 0.125)" xlink:href="#DejaVuSans-32"/>
      <use transform="translate(2250.361328 0.125)" xlink:href="#DejaVuSans-177"/>
      <use transform="translate(2334.150391 0.125)" xlink:href="#DejaVuSans-32"/>
      <use transform="translate(2365.9375 0.125)" xlink:href="#DejaVuSans-48"/>
      <use transform="translate(2429.560547 0.125)" xlink:href="#DejaVuSans-46"/>
      <use transform="translate(2461.347656 0.125)" xlink:href="#DejaVuSans-49"/>
      <use transform="translate(2524.970703 0.125)" xlink:href="#DejaVuSans-49"/>
      <use transform="translate(2588.59375 0.125)" xlink:href="#DejaVuSans-50"/>
      <use transform="translate(2652.216797 0.125)" xlink:href="#DejaVuSans-41"/>
     </g>
    </g>
    <g id="line2d_36">
     <path d="M 390.3 454.907813 
L 410.3 454.907813 
" style="fill:none;stroke:#ff8c00;stroke-linecap:square;stroke-width:2;"/>
    </g>
    <g id="line2d_37"/>
    <g id="text_17">
     <!-- BDCNN 64x64/512x512 - ROC (AUC = 0.918 $\pm$ 0.108) -->
     <g transform="translate(418.3 458.407813)scale(0.1 -0.1)">
      <use transform="translate(0 0.125)" xlink:href="#DejaVuSans-66"/>
      <use transform="translate(68.603516 0.125)" xlink:href="#DejaVuSans-68"/>
      <use transform="translate(145.605469 0.125)" xlink:href="#DejaVuSans-67"/>
      <use transform="translate(215.429688 0.125)" xlink:href="#DejaVuSans-78"/>
      <use transform="translate(290.234375 0.125)" xlink:href="#DejaVuSans-78"/>
      <use transform="translate(365.039062 0.125)" xlink:href="#DejaVuSans-32"/>
      <use transform="translate(396.826172 0.125)" xlink:href="#DejaVuSans-54"/>
      <use transform="translate(460.449219 0.125)" xlink:href="#DejaVuSans-52"/>
      <use transform="translate(524.072266 0.125)" xlink:href="#DejaVuSans-120"/>
      <use transform="translate(583.251953 0.125)" xlink:href="#DejaVuSans-54"/>
      <use transform="translate(646.875 0.125)" xlink:href="#DejaVuSans-52"/>
      <use transform="translate(710.498047 0.125)" xlink:href="#DejaVuSans-47"/>
      <use transform="translate(744.189453 0.125)" xlink:href="#DejaVuSans-53"/>
      <use transform="translate(807.8125 0.125)" xlink:href="#DejaVuSans-49"/>
      <use transform="translate(871.435547 0.125)" xlink:href="#DejaVuSans-50"/>
      <use transform="translate(935.058594 0.125)" xlink:href="#DejaVuSans-120"/>
      <use transform="translate(994.238281 0.125)" xlink:href="#DejaVuSans-53"/>
      <use transform="translate(1057.861328 0.125)" xlink:href="#DejaVuSans-49"/>
      <use transform="translate(1121.484375 0.125)" xlink:href="#DejaVuSans-50"/>
      <use transform="translate(1185.107422 0.125)" xlink:href="#DejaVuSans-32"/>
      <use transform="translate(1216.894531 0.125)" xlink:href="#DejaVuSans-45"/>
      <use transform="translate(1252.978516 0.125)" xlink:href="#DejaVuSans-32"/>
      <use transform="translate(1284.765625 0.125)" xlink:href="#DejaVuSans-82"/>
      <use transform="translate(1354.248047 0.125)" xlink:href="#DejaVuSans-79"/>
      <use transform="translate(1432.958984 0.125)" xlink:href="#DejaVuSans-67"/>
      <use transform="translate(1502.783203 0.125)" xlink:href="#DejaVuSans-32"/>
      <use transform="translate(1534.570312 0.125)" xlink:href="#DejaVuSans-40"/>
      <use transform="translate(1573.583984 0.125)" xlink:href="#DejaVuSans-65"/>
      <use transform="translate(1641.992188 0.125)" xlink:href="#DejaVuSans-85"/>
      <use transform="translate(1715.185547 0.125)" xlink:href="#DejaVuSans-67"/>
      <use transform="translate(1785.009766 0.125)" xlink:href="#DejaVuSans-32"/>
      <use transform="translate(1816.796875 0.125)" xlink:href="#DejaVuSans-61"/>
      <use transform="translate(1900.585938 0.125)" xlink:href="#DejaVuSans-32"/>
      <use transform="translate(1932.373047 0.125)" xlink:href="#DejaVuSans-48"/>
      <use transform="translate(1995.996094 0.125)" xlink:href="#DejaVuSans-46"/>
      <use transform="translate(2027.783203 0.125)" xlink:href="#DejaVuSans-57"/>
      <use transform="translate(2091.40625 0.125)" xlink:href="#DejaVuSans-49"/>
      <use transform="translate(2155.029297 0.125)" xlink:href="#DejaVuSans-56"/>
      <use transform="translate(2218.652344 0.125)" xlink:href="#DejaVuSans-32"/>
      <use transform="translate(2250.439453 0.125)" xlink:href="#DejaVuSans-177"/>
      <use transform="translate(2334.228516 0.125)" xlink:href="#DejaVuSans-32"/>
      <use transform="translate(2366.015625 0.125)" xlink:href="#DejaVuSans-48"/>
      <use transform="translate(2429.638672 0.125)" xlink:href="#DejaVuSans-46"/>
      <use transform="translate(2461.425781 0.125)" xlink:href="#DejaVuSans-49"/>
      <use transform="translate(2525.048828 0.125)" xlink:href="#DejaVuSans-48"/>
      <use transform="translate(2588.671875 0.125)" xlink:href="#DejaVuSans-56"/>
      <use transform="translate(2652.294922 0.125)" xlink:href="#DejaVuSans-41"/>
     </g>
    </g>
    <g id="line2d_38">
     <path d="M 390.3 469.585938 
L 410.3 469.585938 
" style="fill:none;stroke:#ffff00;stroke-linecap:square;stroke-width:2;"/>
    </g>
    <g id="line2d_39"/>
    <g id="text_18">
     <!-- BDCNN 128x128/256x256 - ROC (AUC = 0.975 $\pm$ 0.018) -->
     <defs>
      <path d="M 8.203125 72.90625 
L 55.078125 72.90625 
L 55.078125 68.703125 
L 28.609375 0 
L 18.3125 0 
L 43.21875 64.59375 
L 8.203125 64.59375 
z
" id="DejaVuSans-55"/>
     </defs>
     <g transform="translate(418.3 473.085938)scale(0.1 -0.1)">
      <use transform="translate(0 0.125)" xlink:href="#DejaVuSans-66"/>
      <use transform="translate(68.603516 0.125)" xlink:href="#DejaVuSans-68"/>
      <use transform="translate(145.605469 0.125)" xlink:href="#DejaVuSans-67"/>
      <use transform="translate(215.429688 0.125)" xlink:href="#DejaVuSans-78"/>
      <use transform="translate(290.234375 0.125)" xlink:href="#DejaVuSans-78"/>
      <use transform="translate(365.039062 0.125)" xlink:href="#DejaVuSans-32"/>
      <use transform="translate(396.826172 0.125)" xlink:href="#DejaVuSans-49"/>
      <use transform="translate(460.449219 0.125)" xlink:href="#DejaVuSans-50"/>
      <use transform="translate(524.072266 0.125)" xlink:href="#DejaVuSans-56"/>
      <use transform="translate(587.695312 0.125)" xlink:href="#DejaVuSans-120"/>
      <use transform="translate(646.875 0.125)" xlink:href="#DejaVuSans-49"/>
      <use transform="translate(710.498047 0.125)" xlink:href="#DejaVuSans-50"/>
      <use transform="translate(774.121094 0.125)" xlink:href="#DejaVuSans-56"/>
      <use transform="translate(837.744141 0.125)" xlink:href="#DejaVuSans-47"/>
      <use transform="translate(871.388672 0.125)" xlink:href="#DejaVuSans-50"/>
      <use transform="translate(935.011719 0.125)" xlink:href="#DejaVuSans-53"/>
      <use transform="translate(998.634766 0.125)" xlink:href="#DejaVuSans-54"/>
      <use transform="translate(1062.257812 0.125)" xlink:href="#DejaVuSans-120"/>
      <use transform="translate(1121.4375 0.125)" xlink:href="#DejaVuSans-50"/>
      <use transform="translate(1185.060547 0.125)" xlink:href="#DejaVuSans-53"/>
      <use transform="translate(1248.683594 0.125)" xlink:href="#DejaVuSans-54"/>
      <use transform="translate(1312.306641 0.125)" xlink:href="#DejaVuSans-32"/>
      <use transform="translate(1344.09375 0.125)" xlink:href="#DejaVuSans-45"/>
      <use transform="translate(1380.177734 0.125)" xlink:href="#DejaVuSans-32"/>
      <use transform="translate(1411.964844 0.125)" xlink:href="#DejaVuSans-82"/>
      <use transform="translate(1481.447266 0.125)" xlink:href="#DejaVuSans-79"/>
      <use transform="translate(1560.158203 0.125)" xlink:href="#DejaVuSans-67"/>
      <use transform="translate(1629.982422 0.125)" xlink:href="#DejaVuSans-32"/>
      <use transform="translate(1661.769531 0.125)" xlink:href="#DejaVuSans-40"/>
      <use transform="translate(1700.783203 0.125)" xlink:href="#DejaVuSans-65"/>
      <use transform="translate(1769.191406 0.125)" xlink:href="#DejaVuSans-85"/>
      <use transform="translate(1842.384766 0.125)" xlink:href="#DejaVuSans-67"/>
      <use transform="translate(1912.208984 0.125)" xlink:href="#DejaVuSans-32"/>
      <use transform="translate(1943.996094 0.125)" xlink:href="#DejaVuSans-61"/>
      <use transform="translate(2027.785156 0.125)" xlink:href="#DejaVuSans-32"/>
      <use transform="translate(2059.572266 0.125)" xlink:href="#DejaVuSans-48"/>
      <use transform="translate(2123.195312 0.125)" xlink:href="#DejaVuSans-46"/>
      <use transform="translate(2154.982422 0.125)" xlink:href="#DejaVuSans-57"/>
      <use transform="translate(2218.605469 0.125)" xlink:href="#DejaVuSans-55"/>
      <use transform="translate(2282.228516 0.125)" xlink:href="#DejaVuSans-53"/>
      <use transform="translate(2345.851562 0.125)" xlink:href="#DejaVuSans-32"/>
      <use transform="translate(2377.638672 0.125)" xlink:href="#DejaVuSans-177"/>
      <use transform="translate(2461.427734 0.125)" xlink:href="#DejaVuSans-32"/>
      <use transform="translate(2493.214844 0.125)" xlink:href="#DejaVuSans-48"/>
      <use transform="translate(2556.837891 0.125)" xlink:href="#DejaVuSans-46"/>
      <use transform="translate(2588.625 0.125)" xlink:href="#DejaVuSans-48"/>
      <use transform="translate(2652.248047 0.125)" xlink:href="#DejaVuSans-49"/>
      <use transform="translate(2715.871094 0.125)" xlink:href="#DejaVuSans-56"/>
      <use transform="translate(2779.494141 0.125)" xlink:href="#DejaVuSans-41"/>
     </g>
    </g>
    <g id="line2d_40">
     <path d="M 390.3 484.264063 
L 410.3 484.264063 
" style="fill:none;stroke:#000000;stroke-linecap:square;stroke-width:2;"/>
    </g>
    <g id="line2d_41"/>
    <g id="text_19">
     <!-- BDCNN 128x128/512x512 - ROC (AUC = 0.968 $\pm$ 0.039) -->
     <g transform="translate(418.3 487.764063)scale(0.1 -0.1)">
      <use transform="translate(0 0.125)" xlink:href="#DejaVuSans-66"/>
      <use transform="translate(68.603516 0.125)" xlink:href="#DejaVuSans-68"/>
      <use transform="translate(145.605469 0.125)" xlink:href="#DejaVuSans-67"/>
      <use transform="translate(215.429688 0.125)" xlink:href="#DejaVuSans-78"/>
      <use transform="translate(290.234375 0.125)" xlink:href="#DejaVuSans-78"/>
      <use transform="translate(365.039062 0.125)" xlink:href="#DejaVuSans-32"/>
      <use transform="translate(396.826172 0.125)" xlink:href="#DejaVuSans-49"/>
      <use transform="translate(460.449219 0.125)" xlink:href="#DejaVuSans-50"/>
      <use transform="translate(524.072266 0.125)" xlink:href="#DejaVuSans-56"/>
      <use transform="translate(587.695312 0.125)" xlink:href="#DejaVuSans-120"/>
      <use transform="translate(646.875 0.125)" xlink:href="#DejaVuSans-49"/>
      <use transform="translate(710.498047 0.125)" xlink:href="#DejaVuSans-50"/>
      <use transform="translate(774.121094 0.125)" xlink:href="#DejaVuSans-56"/>
      <use transform="translate(837.744141 0.125)" xlink:href="#DejaVuSans-47"/>
      <use transform="translate(871.435547 0.125)" xlink:href="#DejaVuSans-53"/>
      <use transform="translate(935.058594 0.125)" xlink:href="#DejaVuSans-49"/>
      <use transform="translate(998.681641 0.125)" xlink:href="#DejaVuSans-50"/>
      <use transform="translate(1062.304688 0.125)" xlink:href="#DejaVuSans-120"/>
      <use transform="translate(1121.484375 0.125)" xlink:href="#DejaVuSans-53"/>
      <use transform="translate(1185.107422 0.125)" xlink:href="#DejaVuSans-49"/>
      <use transform="translate(1248.730469 0.125)" xlink:href="#DejaVuSans-50"/>
      <use transform="translate(1312.353516 0.125)" xlink:href="#DejaVuSans-32"/>
      <use transform="translate(1344.140625 0.125)" xlink:href="#DejaVuSans-45"/>
      <use transform="translate(1380.224609 0.125)" xlink:href="#DejaVuSans-32"/>
      <use transform="translate(1412.011719 0.125)" xlink:href="#DejaVuSans-82"/>
      <use transform="translate(1481.494141 0.125)" xlink:href="#DejaVuSans-79"/>
      <use transform="translate(1560.205078 0.125)" xlink:href="#DejaVuSans-67"/>
      <use transform="translate(1630.029297 0.125)" xlink:href="#DejaVuSans-32"/>
      <use transform="translate(1661.816406 0.125)" xlink:href="#DejaVuSans-40"/>
      <use transform="translate(1700.830078 0.125)" xlink:href="#DejaVuSans-65"/>
      <use transform="translate(1769.238281 0.125)" xlink:href="#DejaVuSans-85"/>
      <use transform="translate(1842.431641 0.125)" xlink:href="#DejaVuSans-67"/>
      <use transform="translate(1912.255859 0.125)" xlink:href="#DejaVuSans-32"/>
      <use transform="translate(1944.042969 0.125)" xlink:href="#DejaVuSans-61"/>
      <use transform="translate(2027.832031 0.125)" xlink:href="#DejaVuSans-32"/>
      <use transform="translate(2059.619141 0.125)" xlink:href="#DejaVuSans-48"/>
      <use transform="translate(2123.242188 0.125)" xlink:href="#DejaVuSans-46"/>
      <use transform="translate(2155.029297 0.125)" xlink:href="#DejaVuSans-57"/>
      <use transform="translate(2218.652344 0.125)" xlink:href="#DejaVuSans-54"/>
      <use transform="translate(2282.275391 0.125)" xlink:href="#DejaVuSans-56"/>
      <use transform="translate(2345.898438 0.125)" xlink:href="#DejaVuSans-32"/>
      <use transform="translate(2377.685547 0.125)" xlink:href="#DejaVuSans-177"/>
      <use transform="translate(2461.474609 0.125)" xlink:href="#DejaVuSans-32"/>
      <use transform="translate(2493.261719 0.125)" xlink:href="#DejaVuSans-48"/>
      <use transform="translate(2556.884766 0.125)" xlink:href="#DejaVuSans-46"/>
      <use transform="translate(2588.671875 0.125)" xlink:href="#DejaVuSans-48"/>
      <use transform="translate(2652.294922 0.125)" xlink:href="#DejaVuSans-51"/>
      <use transform="translate(2715.917969 0.125)" xlink:href="#DejaVuSans-57"/>
      <use transform="translate(2779.541016 0.125)" xlink:href="#DejaVuSans-41"/>
     </g>
    </g>
    <g id="line2d_42">
     <path d="M 390.3 498.942188 
L 410.3 498.942188 
" style="fill:none;stroke:#0000ff;stroke-linecap:square;stroke-width:2;"/>
    </g>
    <g id="line2d_43"/>
    <g id="text_20">
     <!-- BDCNN 256x256/512x512 - ROC (AUC = 0.985 $\pm$ 0.011) -->
     <g transform="translate(418.3 502.442188)scale(0.1 -0.1)">
      <use transform="translate(0 0.125)" xlink:href="#DejaVuSans-66"/>
      <use transform="translate(68.603516 0.125)" xlink:href="#DejaVuSans-68"/>
      <use transform="translate(145.605469 0.125)" xlink:href="#DejaVuSans-67"/>
      <use transform="translate(215.429688 0.125)" xlink:href="#DejaVuSans-78"/>
      <use transform="translate(290.234375 0.125)" xlink:href="#DejaVuSans-78"/>
      <use transform="translate(365.039062 0.125)" xlink:href="#DejaVuSans-32"/>
      <use transform="translate(396.826172 0.125)" xlink:href="#DejaVuSans-50"/>
      <use transform="translate(460.449219 0.125)" xlink:href="#DejaVuSans-53"/>
      <use transform="translate(524.072266 0.125)" xlink:href="#DejaVuSans-54"/>
      <use transform="translate(587.695312 0.125)" xlink:href="#DejaVuSans-120"/>
      <use transform="translate(646.875 0.125)" xlink:href="#DejaVuSans-50"/>
      <use transform="translate(710.498047 0.125)" xlink:href="#DejaVuSans-53"/>
      <use transform="translate(774.121094 0.125)" xlink:href="#DejaVuSans-54"/>
      <use transform="translate(837.744141 0.125)" xlink:href="#DejaVuSans-47"/>
      <use transform="translate(871.435547 0.125)" xlink:href="#DejaVuSans-53"/>
      <use transform="translate(935.058594 0.125)" xlink:href="#DejaVuSans-49"/>
      <use transform="translate(998.681641 0.125)" xlink:href="#DejaVuSans-50"/>
      <use transform="translate(1062.304688 0.125)" xlink:href="#DejaVuSans-120"/>
      <use transform="translate(1121.484375 0.125)" xlink:href="#DejaVuSans-53"/>
      <use transform="translate(1185.107422 0.125)" xlink:href="#DejaVuSans-49"/>
      <use transform="translate(1248.730469 0.125)" xlink:href="#DejaVuSans-50"/>
      <use transform="translate(1312.353516 0.125)" xlink:href="#DejaVuSans-32"/>
      <use transform="translate(1344.140625 0.125)" xlink:href="#DejaVuSans-45"/>
      <use transform="translate(1380.224609 0.125)" xlink:href="#DejaVuSans-32"/>
      <use transform="translate(1412.011719 0.125)" xlink:href="#DejaVuSans-82"/>
      <use transform="translate(1481.494141 0.125)" xlink:href="#DejaVuSans-79"/>
      <use transform="translate(1560.205078 0.125)" xlink:href="#DejaVuSans-67"/>
      <use transform="translate(1630.029297 0.125)" xlink:href="#DejaVuSans-32"/>
      <use transform="translate(1661.816406 0.125)" xlink:href="#DejaVuSans-40"/>
      <use transform="translate(1700.830078 0.125)" xlink:href="#DejaVuSans-65"/>
      <use transform="translate(1769.238281 0.125)" xlink:href="#DejaVuSans-85"/>
      <use transform="translate(1842.431641 0.125)" xlink:href="#DejaVuSans-67"/>
      <use transform="translate(1912.255859 0.125)" xlink:href="#DejaVuSans-32"/>
      <use transform="translate(1944.042969 0.125)" xlink:href="#DejaVuSans-61"/>
      <use transform="translate(2027.832031 0.125)" xlink:href="#DejaVuSans-32"/>
      <use transform="translate(2059.619141 0.125)" xlink:href="#DejaVuSans-48"/>
      <use transform="translate(2123.242188 0.125)" xlink:href="#DejaVuSans-46"/>
      <use transform="translate(2155.029297 0.125)" xlink:href="#DejaVuSans-57"/>
      <use transform="translate(2218.652344 0.125)" xlink:href="#DejaVuSans-56"/>
      <use transform="translate(2282.275391 0.125)" xlink:href="#DejaVuSans-53"/>
      <use transform="translate(2345.898438 0.125)" xlink:href="#DejaVuSans-32"/>
      <use transform="translate(2377.685547 0.125)" xlink:href="#DejaVuSans-177"/>
      <use transform="translate(2461.474609 0.125)" xlink:href="#DejaVuSans-32"/>
      <use transform="translate(2493.261719 0.125)" xlink:href="#DejaVuSans-48"/>
      <use transform="translate(2556.884766 0.125)" xlink:href="#DejaVuSans-46"/>
      <use transform="translate(2588.671875 0.125)" xlink:href="#DejaVuSans-48"/>
      <use transform="translate(2652.294922 0.125)" xlink:href="#DejaVuSans-49"/>
      <use transform="translate(2715.917969 0.125)" xlink:href="#DejaVuSans-49"/>
      <use transform="translate(2779.541016 0.125)" xlink:href="#DejaVuSans-41"/>
     </g>
    </g>
    <g id="line2d_44">
     <path d="M 390.3 513.620312 
L 410.3 513.620312 
" style="fill:none;stroke:#ff0000;stroke-dasharray:7.4,3.2;stroke-dashoffset:0;stroke-opacity:0.8;stroke-width:2;"/>
    </g>
    <g id="line2d_45"/>
    <g id="text_21">
     <!-- Chance -->
     <defs>
      <path d="M 54.890625 33.015625 
L 54.890625 0 
L 45.90625 0 
L 45.90625 32.71875 
Q 45.90625 40.484375 42.875 44.328125 
Q 39.84375 48.1875 33.796875 48.1875 
Q 26.515625 48.1875 22.3125 43.546875 
Q 18.109375 38.921875 18.109375 30.90625 
L 18.109375 0 
L 9.078125 0 
L 9.078125 75.984375 
L 18.109375 75.984375 
L 18.109375 46.1875 
Q 21.34375 51.125 25.703125 53.5625 
Q 30.078125 56 35.796875 56 
Q 45.21875 56 50.046875 50.171875 
Q 54.890625 44.34375 54.890625 33.015625 
z
" id="DejaVuSans-104"/>
      <path d="M 34.28125 27.484375 
Q 23.390625 27.484375 19.1875 25 
Q 14.984375 22.515625 14.984375 16.5 
Q 14.984375 11.71875 18.140625 8.90625 
Q 21.296875 6.109375 26.703125 6.109375 
Q 34.1875 6.109375 38.703125 11.40625 
Q 43.21875 16.703125 43.21875 25.484375 
L 43.21875 27.484375 
z
M 52.203125 31.203125 
L 52.203125 0 
L 43.21875 0 
L 43.21875 8.296875 
Q 40.140625 3.328125 35.546875 0.953125 
Q 30.953125 -1.421875 24.3125 -1.421875 
Q 15.921875 -1.421875 10.953125 3.296875 
Q 6 8.015625 6 15.921875 
Q 6 25.140625 12.171875 29.828125 
Q 18.359375 34.515625 30.609375 34.515625 
L 43.21875 34.515625 
L 43.21875 35.40625 
Q 43.21875 41.609375 39.140625 45 
Q 35.0625 48.390625 27.6875 48.390625 
Q 23 48.390625 18.546875 47.265625 
Q 14.109375 46.140625 10.015625 43.890625 
L 10.015625 52.203125 
Q 14.9375 54.109375 19.578125 55.046875 
Q 24.21875 56 28.609375 56 
Q 40.484375 56 46.34375 49.84375 
Q 52.203125 43.703125 52.203125 31.203125 
z
" id="DejaVuSans-97"/>
      <path d="M 54.890625 33.015625 
L 54.890625 0 
L 45.90625 0 
L 45.90625 32.71875 
Q 45.90625 40.484375 42.875 44.328125 
Q 39.84375 48.1875 33.796875 48.1875 
Q 26.515625 48.1875 22.3125 43.546875 
Q 18.109375 38.921875 18.109375 30.90625 
L 18.109375 0 
L 9.078125 0 
L 9.078125 54.6875 
L 18.109375 54.6875 
L 18.109375 46.1875 
Q 21.34375 51.125 25.703125 53.5625 
Q 30.078125 56 35.796875 56 
Q 45.21875 56 50.046875 50.171875 
Q 54.890625 44.34375 54.890625 33.015625 
z
" id="DejaVuSans-110"/>
      <path d="M 48.78125 52.59375 
L 48.78125 44.1875 
Q 44.96875 46.296875 41.140625 47.34375 
Q 37.3125 48.390625 33.40625 48.390625 
Q 24.65625 48.390625 19.8125 42.84375 
Q 14.984375 37.3125 14.984375 27.296875 
Q 14.984375 17.28125 19.8125 11.734375 
Q 24.65625 6.203125 33.40625 6.203125 
Q 37.3125 6.203125 41.140625 7.25 
Q 44.96875 8.296875 48.78125 10.40625 
L 48.78125 2.09375 
Q 45.015625 0.34375 40.984375 -0.53125 
Q 36.96875 -1.421875 32.421875 -1.421875 
Q 20.0625 -1.421875 12.78125 6.34375 
Q 5.515625 14.109375 5.515625 27.296875 
Q 5.515625 40.671875 12.859375 48.328125 
Q 20.21875 56 33.015625 56 
Q 37.15625 56 41.109375 55.140625 
Q 45.0625 54.296875 48.78125 52.59375 
z
" id="DejaVuSans-99"/>
      <path d="M 56.203125 29.59375 
L 56.203125 25.203125 
L 14.890625 25.203125 
Q 15.484375 15.921875 20.484375 11.0625 
Q 25.484375 6.203125 34.421875 6.203125 
Q 39.59375 6.203125 44.453125 7.46875 
Q 49.3125 8.734375 54.109375 11.28125 
L 54.109375 2.78125 
Q 49.265625 0.734375 44.1875 -0.34375 
Q 39.109375 -1.421875 33.890625 -1.421875 
Q 20.796875 -1.421875 13.15625 6.1875 
Q 5.515625 13.8125 5.515625 26.8125 
Q 5.515625 40.234375 12.765625 48.109375 
Q 20.015625 56 32.328125 56 
Q 43.359375 56 49.78125 48.890625 
Q 56.203125 41.796875 56.203125 29.59375 
z
M 47.21875 32.234375 
Q 47.125 39.59375 43.09375 43.984375 
Q 39.0625 48.390625 32.421875 48.390625 
Q 24.90625 48.390625 20.390625 44.140625 
Q 15.875 39.890625 15.1875 32.171875 
z
" id="DejaVuSans-101"/>
     </defs>
     <g transform="translate(418.3 517.120312)scale(0.1 -0.1)">
      <use xlink:href="#DejaVuSans-67"/>
      <use x="69.824219" xlink:href="#DejaVuSans-104"/>
      <use x="133.203125" xlink:href="#DejaVuSans-97"/>
      <use x="194.482422" xlink:href="#DejaVuSans-110"/>
      <use x="257.861328" xlink:href="#DejaVuSans-99"/>
      <use x="312.841797" xlink:href="#DejaVuSans-101"/>
     </g>
    </g>
   </g>
  </g>
 </g>
 <defs>
  <clipPath id="pb11021e712">
   <rect height="517.4" width="655.4" x="53.8" y="10.8"/>
  </clipPath>
 </defs>
</svg>
