<?xml version="1.0" encoding="utf-8" standalone="no"?>
<!DOCTYPE svg PUBLIC "-//W3C//DTD SVG 1.1//EN"
  "http://www.w3.org/Graphics/SVG/1.1/DTD/svg11.dtd">
<!-- Created with matplotlib (https://matplotlib.org/) -->
<svg height="432pt" version="1.1" viewBox="0 0 504 432" width="504pt" xmlns="http://www.w3.org/2000/svg" xmlns:xlink="http://www.w3.org/1999/xlink">
 <defs>
  <style type="text/css">
*{stroke-linecap:butt;stroke-linejoin:round;white-space:pre;}
  </style>
 </defs>
 <g id="figure_1">
  <g id="patch_1">
   <path d="M 0 432 
L 504 432 
L 504 0 
L 0 0 
z
" style="fill:#ffffff;"/>
  </g>
  <g id="axes_1">
   <g id="patch_2">
    <path d="M 53.8 384.2 
L 493.2 384.2 
L 493.2 10.8 
L 53.8 10.8 
z
" style="fill:#ffffff;"/>
   </g>
   <g id="matplotlib.axis_1">
    <g id="xtick_1">
     <g id="line2d_1">
      <path clip-path="url(#pbd38dea4c9)" d="M 73.772727 384.2 
L 73.772727 10.8 
" style="fill:none;stroke:#b0b0b0;stroke-dasharray:2.96,1.28;stroke-dashoffset:0;stroke-width:0.8;"/>
     </g>
     <g id="line2d_2">
      <defs>
       <path d="M 0 0 
L 0 3.5 
" id="m7063252591" style="stroke:#000000;stroke-width:0.8;"/>
      </defs>
      <g>
       <use style="stroke:#000000;stroke-width:0.8;" x="73.772727" xlink:href="#m7063252591" y="384.2"/>
      </g>
     </g>
     <g id="text_1">
      <!-- 0.0 -->
      <defs>
       <path d="M 31.78125 66.40625 
Q 24.171875 66.40625 20.328125 58.90625 
Q 16.5 51.421875 16.5 36.375 
Q 16.5 21.390625 20.328125 13.890625 
Q 24.171875 6.390625 31.78125 6.390625 
Q 39.453125 6.390625 43.28125 13.890625 
Q 47.125 21.390625 47.125 36.375 
Q 47.125 51.421875 43.28125 58.90625 
Q 39.453125 66.40625 31.78125 66.40625 
z
M 31.78125 74.21875 
Q 44.046875 74.21875 50.515625 64.515625 
Q 56.984375 54.828125 56.984375 36.375 
Q 56.984375 17.96875 50.515625 8.265625 
Q 44.046875 -1.421875 31.78125 -1.421875 
Q 19.53125 -1.421875 13.0625 8.265625 
Q 6.59375 17.96875 6.59375 36.375 
Q 6.59375 54.828125 13.0625 64.515625 
Q 19.53125 74.21875 31.78125 74.21875 
z
" id="DejaVuSans-48"/>
       <path d="M 10.6875 12.40625 
L 21 12.40625 
L 21 0 
L 10.6875 0 
z
" id="DejaVuSans-46"/>
      </defs>
      <g transform="translate(64.230852 400.318125)scale(0.12 -0.12)">
       <use xlink:href="#DejaVuSans-48"/>
       <use x="63.623047" xlink:href="#DejaVuSans-46"/>
       <use x="95.410156" xlink:href="#DejaVuSans-48"/>
      </g>
     </g>
    </g>
    <g id="xtick_2">
     <g id="line2d_3">
      <path clip-path="url(#pbd38dea4c9)" d="M 153.663636 384.2 
L 153.663636 10.8 
" style="fill:none;stroke:#b0b0b0;stroke-dasharray:2.96,1.28;stroke-dashoffset:0;stroke-width:0.8;"/>
     </g>
     <g id="line2d_4">
      <g>
       <use style="stroke:#000000;stroke-width:0.8;" x="153.663636" xlink:href="#m7063252591" y="384.2"/>
      </g>
     </g>
     <g id="text_2">
      <!-- 0.2 -->
      <defs>
       <path d="M 19.1875 8.296875 
L 53.609375 8.296875 
L 53.609375 0 
L 7.328125 0 
L 7.328125 8.296875 
Q 12.9375 14.109375 22.625 23.890625 
Q 32.328125 33.6875 34.8125 36.53125 
Q 39.546875 41.84375 41.421875 45.53125 
Q 43.3125 49.21875 43.3125 52.78125 
Q 43.3125 58.59375 39.234375 62.25 
Q 35.15625 65.921875 28.609375 65.921875 
Q 23.96875 65.921875 18.8125 64.3125 
Q 13.671875 62.703125 7.8125 59.421875 
L 7.8125 69.390625 
Q 13.765625 71.78125 18.9375 73 
Q 24.125 74.21875 28.421875 74.21875 
Q 39.75 74.21875 46.484375 68.546875 
Q 53.21875 62.890625 53.21875 53.421875 
Q 53.21875 48.921875 51.53125 44.890625 
Q 49.859375 40.875 45.40625 35.40625 
Q 44.1875 33.984375 37.640625 27.21875 
Q 31.109375 20.453125 19.1875 8.296875 
z
" id="DejaVuSans-50"/>
      </defs>
      <g transform="translate(144.121761 400.318125)scale(0.12 -0.12)">
       <use xlink:href="#DejaVuSans-48"/>
       <use x="63.623047" xlink:href="#DejaVuSans-46"/>
       <use x="95.410156" xlink:href="#DejaVuSans-50"/>
      </g>
     </g>
    </g>
    <g id="xtick_3">
     <g id="line2d_5">
      <path clip-path="url(#pbd38dea4c9)" d="M 233.554545 384.2 
L 233.554545 10.8 
" style="fill:none;stroke:#b0b0b0;stroke-dasharray:2.96,1.28;stroke-dashoffset:0;stroke-width:0.8;"/>
     </g>
     <g id="line2d_6">
      <g>
       <use style="stroke:#000000;stroke-width:0.8;" x="233.554545" xlink:href="#m7063252591" y="384.2"/>
      </g>
     </g>
     <g id="text_3">
      <!-- 0.4 -->
      <defs>
       <path d="M 37.796875 64.3125 
L 12.890625 25.390625 
L 37.796875 25.390625 
z
M 35.203125 72.90625 
L 47.609375 72.90625 
L 47.609375 25.390625 
L 58.015625 25.390625 
L 58.015625 17.1875 
L 47.609375 17.1875 
L 47.609375 0 
L 37.796875 0 
L 37.796875 17.1875 
L 4.890625 17.1875 
L 4.890625 26.703125 
z
" id="DejaVuSans-52"/>
      </defs>
      <g transform="translate(224.01267 400.318125)scale(0.12 -0.12)">
       <use xlink:href="#DejaVuSans-48"/>
       <use x="63.623047" xlink:href="#DejaVuSans-46"/>
       <use x="95.410156" xlink:href="#DejaVuSans-52"/>
      </g>
     </g>
    </g>
    <g id="xtick_4">
     <g id="line2d_7">
      <path clip-path="url(#pbd38dea4c9)" d="M 313.445455 384.2 
L 313.445455 10.8 
" style="fill:none;stroke:#b0b0b0;stroke-dasharray:2.96,1.28;stroke-dashoffset:0;stroke-width:0.8;"/>
     </g>
     <g id="line2d_8">
      <g>
       <use style="stroke:#000000;stroke-width:0.8;" x="313.445455" xlink:href="#m7063252591" y="384.2"/>
      </g>
     </g>
     <g id="text_4">
      <!-- 0.6 -->
      <defs>
       <path d="M 33.015625 40.375 
Q 26.375 40.375 22.484375 35.828125 
Q 18.609375 31.296875 18.609375 23.390625 
Q 18.609375 15.53125 22.484375 10.953125 
Q 26.375 6.390625 33.015625 6.390625 
Q 39.65625 6.390625 43.53125 10.953125 
Q 47.40625 15.53125 47.40625 23.390625 
Q 47.40625 31.296875 43.53125 35.828125 
Q 39.65625 40.375 33.015625 40.375 
z
M 52.59375 71.296875 
L 52.59375 62.3125 
Q 48.875 64.0625 45.09375 64.984375 
Q 41.3125 65.921875 37.59375 65.921875 
Q 27.828125 65.921875 22.671875 59.328125 
Q 17.53125 52.734375 16.796875 39.40625 
Q 19.671875 43.65625 24.015625 45.921875 
Q 28.375 48.1875 33.59375 48.1875 
Q 44.578125 48.1875 50.953125 41.515625 
Q 57.328125 34.859375 57.328125 23.390625 
Q 57.328125 12.15625 50.6875 5.359375 
Q 44.046875 -1.421875 33.015625 -1.421875 
Q 20.359375 -1.421875 13.671875 8.265625 
Q 6.984375 17.96875 6.984375 36.375 
Q 6.984375 53.65625 15.1875 63.9375 
Q 23.390625 74.21875 37.203125 74.21875 
Q 40.921875 74.21875 44.703125 73.484375 
Q 48.484375 72.75 52.59375 71.296875 
z
" id="DejaVuSans-54"/>
      </defs>
      <g transform="translate(303.90358 400.318125)scale(0.12 -0.12)">
       <use xlink:href="#DejaVuSans-48"/>
       <use x="63.623047" xlink:href="#DejaVuSans-46"/>
       <use x="95.410156" xlink:href="#DejaVuSans-54"/>
      </g>
     </g>
    </g>
    <g id="xtick_5">
     <g id="line2d_9">
      <path clip-path="url(#pbd38dea4c9)" d="M 393.336364 384.2 
L 393.336364 10.8 
" style="fill:none;stroke:#b0b0b0;stroke-dasharray:2.96,1.28;stroke-dashoffset:0;stroke-width:0.8;"/>
     </g>
     <g id="line2d_10">
      <g>
       <use style="stroke:#000000;stroke-width:0.8;" x="393.336364" xlink:href="#m7063252591" y="384.2"/>
      </g>
     </g>
     <g id="text_5">
      <!-- 0.8 -->
      <defs>
       <path d="M 31.78125 34.625 
Q 24.75 34.625 20.71875 30.859375 
Q 16.703125 27.09375 16.703125 20.515625 
Q 16.703125 13.921875 20.71875 10.15625 
Q 24.75 6.390625 31.78125 6.390625 
Q 38.8125 6.390625 42.859375 10.171875 
Q 46.921875 13.96875 46.921875 20.515625 
Q 46.921875 27.09375 42.890625 30.859375 
Q 38.875 34.625 31.78125 34.625 
z
M 21.921875 38.8125 
Q 15.578125 40.375 12.03125 44.71875 
Q 8.5 49.078125 8.5 55.328125 
Q 8.5 64.0625 14.71875 69.140625 
Q 20.953125 74.21875 31.78125 74.21875 
Q 42.671875 74.21875 48.875 69.140625 
Q 55.078125 64.0625 55.078125 55.328125 
Q 55.078125 49.078125 51.53125 44.71875 
Q 48 40.375 41.703125 38.8125 
Q 48.828125 37.15625 52.796875 32.3125 
Q 56.78125 27.484375 56.78125 20.515625 
Q 56.78125 9.90625 50.3125 4.234375 
Q 43.84375 -1.421875 31.78125 -1.421875 
Q 19.734375 -1.421875 13.25 4.234375 
Q 6.78125 9.90625 6.78125 20.515625 
Q 6.78125 27.484375 10.78125 32.3125 
Q 14.796875 37.15625 21.921875 38.8125 
z
M 18.3125 54.390625 
Q 18.3125 48.734375 21.84375 45.5625 
Q 25.390625 42.390625 31.78125 42.390625 
Q 38.140625 42.390625 41.71875 45.5625 
Q 45.3125 48.734375 45.3125 54.390625 
Q 45.3125 60.0625 41.71875 63.234375 
Q 38.140625 66.40625 31.78125 66.40625 
Q 25.390625 66.40625 21.84375 63.234375 
Q 18.3125 60.0625 18.3125 54.390625 
z
" id="DejaVuSans-56"/>
      </defs>
      <g transform="translate(383.794489 400.318125)scale(0.12 -0.12)">
       <use xlink:href="#DejaVuSans-48"/>
       <use x="63.623047" xlink:href="#DejaVuSans-46"/>
       <use x="95.410156" xlink:href="#DejaVuSans-56"/>
      </g>
     </g>
    </g>
    <g id="xtick_6">
     <g id="line2d_11">
      <path clip-path="url(#pbd38dea4c9)" d="M 473.227273 384.2 
L 473.227273 10.8 
" style="fill:none;stroke:#b0b0b0;stroke-dasharray:2.96,1.28;stroke-dashoffset:0;stroke-width:0.8;"/>
     </g>
     <g id="line2d_12">
      <g>
       <use style="stroke:#000000;stroke-width:0.8;" x="473.227273" xlink:href="#m7063252591" y="384.2"/>
      </g>
     </g>
     <g id="text_6">
      <!-- 1.0 -->
      <defs>
       <path d="M 12.40625 8.296875 
L 28.515625 8.296875 
L 28.515625 63.921875 
L 10.984375 60.40625 
L 10.984375 69.390625 
L 28.421875 72.90625 
L 38.28125 72.90625 
L 38.28125 8.296875 
L 54.390625 8.296875 
L 54.390625 0 
L 12.40625 0 
z
" id="DejaVuSans-49"/>
      </defs>
      <g transform="translate(463.685398 400.318125)scale(0.12 -0.12)">
       <use xlink:href="#DejaVuSans-49"/>
       <use x="63.623047" xlink:href="#DejaVuSans-46"/>
       <use x="95.410156" xlink:href="#DejaVuSans-48"/>
      </g>
     </g>
    </g>
    <g id="text_7">
     <!-- False Positive Rate -->
     <defs>
      <path d="M 9.1875 72.90625 
L 59.90625 72.90625 
L 59.90625 58.6875 
L 27.984375 58.6875 
L 27.984375 45.125 
L 58.015625 45.125 
L 58.015625 30.90625 
L 27.984375 30.90625 
L 27.984375 0 
L 9.1875 0 
z
" id="DejaVuSans-Bold-70"/>
      <path d="M 32.90625 24.609375 
Q 27.4375 24.609375 24.671875 22.75 
Q 21.921875 20.90625 21.921875 17.28125 
Q 21.921875 13.96875 24.140625 12.078125 
Q 26.375 10.203125 30.328125 10.203125 
Q 35.25 10.203125 38.625 13.734375 
Q 42 17.28125 42 22.609375 
L 42 24.609375 
z
M 59.625 31.203125 
L 59.625 0 
L 42 0 
L 42 8.109375 
Q 38.484375 3.125 34.078125 0.84375 
Q 29.6875 -1.421875 23.390625 -1.421875 
Q 14.890625 -1.421875 9.59375 3.53125 
Q 4.296875 8.5 4.296875 16.40625 
Q 4.296875 26.03125 10.90625 30.515625 
Q 17.53125 35.015625 31.6875 35.015625 
L 42 35.015625 
L 42 36.375 
Q 42 40.53125 38.71875 42.453125 
Q 35.453125 44.390625 28.515625 44.390625 
Q 22.90625 44.390625 18.0625 43.265625 
Q 13.234375 42.140625 9.078125 39.890625 
L 9.078125 53.21875 
Q 14.703125 54.59375 20.359375 55.296875 
Q 26.03125 56 31.6875 56 
Q 46.484375 56 53.046875 50.171875 
Q 59.625 44.34375 59.625 31.203125 
z
" id="DejaVuSans-Bold-97"/>
      <path d="M 8.40625 75.984375 
L 25.875 75.984375 
L 25.875 0 
L 8.40625 0 
z
" id="DejaVuSans-Bold-108"/>
      <path d="M 51.125 52.984375 
L 51.125 39.703125 
Q 45.515625 42.046875 40.28125 43.21875 
Q 35.0625 44.390625 30.421875 44.390625 
Q 25.4375 44.390625 23.015625 43.140625 
Q 20.609375 41.890625 20.609375 39.3125 
Q 20.609375 37.203125 22.4375 36.078125 
Q 24.265625 34.96875 29 34.421875 
L 32.078125 33.984375 
Q 45.515625 32.28125 50.140625 28.375 
Q 54.78125 24.46875 54.78125 16.109375 
Q 54.78125 7.375 48.328125 2.96875 
Q 41.890625 -1.421875 29.109375 -1.421875 
Q 23.6875 -1.421875 17.890625 -0.5625 
Q 12.109375 0.296875 6 2 
L 6 15.28125 
Q 11.234375 12.75 16.71875 11.46875 
Q 22.21875 10.203125 27.875 10.203125 
Q 33.015625 10.203125 35.59375 11.609375 
Q 38.1875 13.03125 38.1875 15.828125 
Q 38.1875 18.171875 36.40625 19.3125 
Q 34.625 20.453125 29.296875 21.09375 
L 26.21875 21.484375 
Q 14.546875 22.953125 9.859375 26.90625 
Q 5.171875 30.859375 5.171875 38.921875 
Q 5.171875 47.609375 11.125 51.796875 
Q 17.09375 56 29.390625 56 
Q 34.234375 56 39.546875 55.265625 
Q 44.875 54.546875 51.125 52.984375 
z
" id="DejaVuSans-Bold-115"/>
      <path d="M 62.984375 27.484375 
L 62.984375 22.515625 
L 22.125 22.515625 
Q 22.75 16.359375 26.5625 13.28125 
Q 30.375 10.203125 37.203125 10.203125 
Q 42.71875 10.203125 48.5 11.84375 
Q 54.296875 13.484375 60.40625 16.796875 
L 60.40625 3.328125 
Q 54.203125 0.984375 48 -0.21875 
Q 41.796875 -1.421875 35.59375 -1.421875 
Q 20.75 -1.421875 12.515625 6.125 
Q 4.296875 13.671875 4.296875 27.296875 
Q 4.296875 40.671875 12.375 48.328125 
Q 20.453125 56 34.625 56 
Q 47.515625 56 55.25 48.234375 
Q 62.984375 40.484375 62.984375 27.484375 
z
M 45.015625 33.296875 
Q 45.015625 38.28125 42.109375 41.328125 
Q 39.203125 44.390625 34.515625 44.390625 
Q 29.4375 44.390625 26.265625 41.53125 
Q 23.09375 38.671875 22.3125 33.296875 
z
" id="DejaVuSans-Bold-101"/>
      <path id="DejaVuSans-Bold-32"/>
      <path d="M 9.1875 72.90625 
L 40.375 72.90625 
Q 54.296875 72.90625 61.734375 66.71875 
Q 69.1875 60.546875 69.1875 49.125 
Q 69.1875 37.640625 61.734375 31.46875 
Q 54.296875 25.296875 40.375 25.296875 
L 27.984375 25.296875 
L 27.984375 0 
L 9.1875 0 
z
M 27.984375 59.28125 
L 27.984375 38.921875 
L 38.375 38.921875 
Q 43.84375 38.921875 46.828125 41.578125 
Q 49.8125 44.234375 49.8125 49.125 
Q 49.8125 54 46.828125 56.640625 
Q 43.84375 59.28125 38.375 59.28125 
z
" id="DejaVuSans-Bold-80"/>
      <path d="M 34.421875 43.5 
Q 28.609375 43.5 25.5625 39.328125 
Q 22.515625 35.15625 22.515625 27.296875 
Q 22.515625 19.4375 25.5625 15.25 
Q 28.609375 11.078125 34.421875 11.078125 
Q 40.140625 11.078125 43.15625 15.25 
Q 46.1875 19.4375 46.1875 27.296875 
Q 46.1875 35.15625 43.15625 39.328125 
Q 40.140625 43.5 34.421875 43.5 
z
M 34.421875 56 
Q 48.53125 56 56.46875 48.375 
Q 64.40625 40.765625 64.40625 27.296875 
Q 64.40625 13.8125 56.46875 6.1875 
Q 48.53125 -1.421875 34.421875 -1.421875 
Q 20.265625 -1.421875 12.28125 6.1875 
Q 4.296875 13.8125 4.296875 27.296875 
Q 4.296875 40.765625 12.28125 48.375 
Q 20.265625 56 34.421875 56 
z
" id="DejaVuSans-Bold-111"/>
      <path d="M 8.40625 54.6875 
L 25.875 54.6875 
L 25.875 0 
L 8.40625 0 
z
M 8.40625 75.984375 
L 25.875 75.984375 
L 25.875 61.71875 
L 8.40625 61.71875 
z
" id="DejaVuSans-Bold-105"/>
      <path d="M 27.484375 70.21875 
L 27.484375 54.6875 
L 45.515625 54.6875 
L 45.515625 42.1875 
L 27.484375 42.1875 
L 27.484375 19 
Q 27.484375 15.1875 29 13.84375 
Q 30.515625 12.5 35.015625 12.5 
L 44 12.5 
L 44 0 
L 29 0 
Q 18.65625 0 14.328125 4.3125 
Q 10.015625 8.640625 10.015625 19 
L 10.015625 42.1875 
L 1.3125 42.1875 
L 1.3125 54.6875 
L 10.015625 54.6875 
L 10.015625 70.21875 
z
" id="DejaVuSans-Bold-116"/>
      <path d="M 1.515625 54.6875 
L 19 54.6875 
L 32.625 16.890625 
L 46.1875 54.6875 
L 63.71875 54.6875 
L 42.1875 0 
L 23 0 
z
" id="DejaVuSans-Bold-118"/>
      <path d="M 35.890625 40.578125 
Q 41.796875 40.578125 44.359375 42.765625 
Q 46.921875 44.96875 46.921875 50 
Q 46.921875 54.984375 44.359375 57.125 
Q 41.796875 59.28125 35.890625 59.28125 
L 27.984375 59.28125 
L 27.984375 40.578125 
z
M 27.984375 27.59375 
L 27.984375 0 
L 9.1875 0 
L 9.1875 72.90625 
L 37.890625 72.90625 
Q 52.296875 72.90625 59 68.0625 
Q 65.71875 63.234375 65.71875 52.78125 
Q 65.71875 45.5625 62.21875 40.921875 
Q 58.734375 36.28125 51.703125 34.078125 
Q 55.5625 33.203125 58.609375 30.09375 
Q 61.671875 27 64.796875 20.703125 
L 75 0 
L 54.984375 0 
L 46.09375 18.109375 
Q 43.40625 23.578125 40.640625 25.578125 
Q 37.890625 27.59375 33.296875 27.59375 
z
" id="DejaVuSans-Bold-82"/>
     </defs>
     <g transform="translate(208.821875 415.931875)scale(0.12 -0.12)">
      <use xlink:href="#DejaVuSans-Bold-70"/>
      <use x="68.232422" xlink:href="#DejaVuSans-Bold-97"/>
      <use x="135.712891" xlink:href="#DejaVuSans-Bold-108"/>
      <use x="169.990234" xlink:href="#DejaVuSans-Bold-115"/>
      <use x="229.511719" xlink:href="#DejaVuSans-Bold-101"/>
      <use x="297.333984" xlink:href="#DejaVuSans-Bold-32"/>
      <use x="332.148438" xlink:href="#DejaVuSans-Bold-80"/>
      <use x="405.439453" xlink:href="#DejaVuSans-Bold-111"/>
      <use x="474.140625" xlink:href="#DejaVuSans-Bold-115"/>
      <use x="533.662109" xlink:href="#DejaVuSans-Bold-105"/>
      <use x="567.939453" xlink:href="#DejaVuSans-Bold-116"/>
      <use x="615.742188" xlink:href="#DejaVuSans-Bold-105"/>
      <use x="650.019531" xlink:href="#DejaVuSans-Bold-118"/>
      <use x="715.205078" xlink:href="#DejaVuSans-Bold-101"/>
      <use x="783.027344" xlink:href="#DejaVuSans-Bold-32"/>
      <use x="817.841797" xlink:href="#DejaVuSans-Bold-82"/>
      <use x="894.84375" xlink:href="#DejaVuSans-Bold-97"/>
      <use x="962.324219" xlink:href="#DejaVuSans-Bold-116"/>
      <use x="1010.126953" xlink:href="#DejaVuSans-Bold-101"/>
     </g>
    </g>
   </g>
   <g id="matplotlib.axis_2">
    <g id="ytick_1">
     <g id="line2d_13">
      <path clip-path="url(#pbd38dea4c9)" d="M 53.8 367.227273 
L 493.2 367.227273 
" style="fill:none;stroke:#b0b0b0;stroke-dasharray:2.96,1.28;stroke-dashoffset:0;stroke-width:0.8;"/>
     </g>
     <g id="line2d_14">
      <defs>
       <path d="M 0 0 
L -3.5 0 
" id="m394f1b6468" style="stroke:#000000;stroke-width:0.8;"/>
      </defs>
      <g>
       <use style="stroke:#000000;stroke-width:0.8;" x="53.8" xlink:href="#m394f1b6468" y="367.227273"/>
      </g>
     </g>
     <g id="text_8">
      <!-- 0.0 -->
      <g transform="translate(27.71625 371.786335)scale(0.12 -0.12)">
       <use xlink:href="#DejaVuSans-48"/>
       <use x="63.623047" xlink:href="#DejaVuSans-46"/>
       <use x="95.410156" xlink:href="#DejaVuSans-48"/>
      </g>
     </g>
    </g>
    <g id="ytick_2">
     <g id="line2d_15">
      <path clip-path="url(#pbd38dea4c9)" d="M 53.8 299.336364 
L 493.2 299.336364 
" style="fill:none;stroke:#b0b0b0;stroke-dasharray:2.96,1.28;stroke-dashoffset:0;stroke-width:0.8;"/>
     </g>
     <g id="line2d_16">
      <g>
       <use style="stroke:#000000;stroke-width:0.8;" x="53.8" xlink:href="#m394f1b6468" y="299.336364"/>
      </g>
     </g>
     <g id="text_9">
      <!-- 0.2 -->
      <g transform="translate(27.71625 303.895426)scale(0.12 -0.12)">
       <use xlink:href="#DejaVuSans-48"/>
       <use x="63.623047" xlink:href="#DejaVuSans-46"/>
       <use x="95.410156" xlink:href="#DejaVuSans-50"/>
      </g>
     </g>
    </g>
    <g id="ytick_3">
     <g id="line2d_17">
      <path clip-path="url(#pbd38dea4c9)" d="M 53.8 231.445455 
L 493.2 231.445455 
" style="fill:none;stroke:#b0b0b0;stroke-dasharray:2.96,1.28;stroke-dashoffset:0;stroke-width:0.8;"/>
     </g>
     <g id="line2d_18">
      <g>
       <use style="stroke:#000000;stroke-width:0.8;" x="53.8" xlink:href="#m394f1b6468" y="231.445455"/>
      </g>
     </g>
     <g id="text_10">
      <!-- 0.4 -->
      <g transform="translate(27.71625 236.004517)scale(0.12 -0.12)">
       <use xlink:href="#DejaVuSans-48"/>
       <use x="63.623047" xlink:href="#DejaVuSans-46"/>
       <use x="95.410156" xlink:href="#DejaVuSans-52"/>
      </g>
     </g>
    </g>
    <g id="ytick_4">
     <g id="line2d_19">
      <path clip-path="url(#pbd38dea4c9)" d="M 53.8 163.554545 
L 493.2 163.554545 
" style="fill:none;stroke:#b0b0b0;stroke-dasharray:2.96,1.28;stroke-dashoffset:0;stroke-width:0.8;"/>
     </g>
     <g id="line2d_20">
      <g>
       <use style="stroke:#000000;stroke-width:0.8;" x="53.8" xlink:href="#m394f1b6468" y="163.554545"/>
      </g>
     </g>
     <g id="text_11">
      <!-- 0.6 -->
      <g transform="translate(27.71625 168.113608)scale(0.12 -0.12)">
       <use xlink:href="#DejaVuSans-48"/>
       <use x="63.623047" xlink:href="#DejaVuSans-46"/>
       <use x="95.410156" xlink:href="#DejaVuSans-54"/>
      </g>
     </g>
    </g>
    <g id="ytick_5">
     <g id="line2d_21">
      <path clip-path="url(#pbd38dea4c9)" d="M 53.8 95.663636 
L 493.2 95.663636 
" style="fill:none;stroke:#b0b0b0;stroke-dasharray:2.96,1.28;stroke-dashoffset:0;stroke-width:0.8;"/>
     </g>
     <g id="line2d_22">
      <g>
       <use style="stroke:#000000;stroke-width:0.8;" x="53.8" xlink:href="#m394f1b6468" y="95.663636"/>
      </g>
     </g>
     <g id="text_12">
      <!-- 0.8 -->
      <g transform="translate(27.71625 100.222699)scale(0.12 -0.12)">
       <use xlink:href="#DejaVuSans-48"/>
       <use x="63.623047" xlink:href="#DejaVuSans-46"/>
       <use x="95.410156" xlink:href="#DejaVuSans-56"/>
      </g>
     </g>
    </g>
    <g id="ytick_6">
     <g id="line2d_23">
      <path clip-path="url(#pbd38dea4c9)" d="M 53.8 27.772727 
L 493.2 27.772727 
" style="fill:none;stroke:#b0b0b0;stroke-dasharray:2.96,1.28;stroke-dashoffset:0;stroke-width:0.8;"/>
     </g>
     <g id="line2d_24">
      <g>
       <use style="stroke:#000000;stroke-width:0.8;" x="53.8" xlink:href="#m394f1b6468" y="27.772727"/>
      </g>
     </g>
     <g id="text_13">
      <!-- 1.0 -->
      <g transform="translate(27.71625 32.33179)scale(0.12 -0.12)">
       <use xlink:href="#DejaVuSans-49"/>
       <use x="63.623047" xlink:href="#DejaVuSans-46"/>
       <use x="95.410156" xlink:href="#DejaVuSans-48"/>
      </g>
     </g>
    </g>
    <g id="text_14">
     <!-- True Positive Rate -->
     <defs>
      <path d="M 0.484375 72.90625 
L 67.671875 72.90625 
L 67.671875 58.6875 
L 43.5 58.6875 
L 43.5 0 
L 24.703125 0 
L 24.703125 58.6875 
L 0.484375 58.6875 
z
" id="DejaVuSans-Bold-84"/>
      <path d="M 49.03125 39.796875 
Q 46.734375 40.875 44.453125 41.375 
Q 42.1875 41.890625 39.890625 41.890625 
Q 33.15625 41.890625 29.515625 37.5625 
Q 25.875 33.25 25.875 25.203125 
L 25.875 0 
L 8.40625 0 
L 8.40625 54.6875 
L 25.875 54.6875 
L 25.875 45.703125 
Q 29.25 51.078125 33.609375 53.53125 
Q 37.984375 56 44.09375 56 
Q 44.96875 56 45.984375 55.921875 
Q 47.015625 55.859375 48.96875 55.609375 
z
" id="DejaVuSans-Bold-114"/>
      <path d="M 7.8125 21.296875 
L 7.8125 54.6875 
L 25.390625 54.6875 
L 25.390625 49.21875 
Q 25.390625 44.78125 25.34375 38.0625 
Q 25.296875 31.34375 25.296875 29.109375 
Q 25.296875 22.515625 25.640625 19.609375 
Q 25.984375 16.703125 26.8125 15.375 
Q 27.875 13.671875 29.609375 12.734375 
Q 31.34375 11.8125 33.59375 11.8125 
Q 39.0625 11.8125 42.1875 16.015625 
Q 45.3125 20.21875 45.3125 27.6875 
L 45.3125 54.6875 
L 62.796875 54.6875 
L 62.796875 0 
L 45.3125 0 
L 45.3125 7.90625 
Q 41.359375 3.125 36.9375 0.84375 
Q 32.515625 -1.421875 27.203125 -1.421875 
Q 17.71875 -1.421875 12.765625 4.390625 
Q 7.8125 10.203125 7.8125 21.296875 
z
" id="DejaVuSans-Bold-117"/>
     </defs>
     <g transform="translate(21.220625 259.72)rotate(-90)scale(0.12 -0.12)">
      <use xlink:href="#DejaVuSans-Bold-84"/>
      <use x="68.041016" xlink:href="#DejaVuSans-Bold-114"/>
      <use x="117.357422" xlink:href="#DejaVuSans-Bold-117"/>
      <use x="188.548828" xlink:href="#DejaVuSans-Bold-101"/>
      <use x="256.371094" xlink:href="#DejaVuSans-Bold-32"/>
      <use x="291.185547" xlink:href="#DejaVuSans-Bold-80"/>
      <use x="364.476562" xlink:href="#DejaVuSans-Bold-111"/>
      <use x="433.177734" xlink:href="#DejaVuSans-Bold-115"/>
      <use x="492.699219" xlink:href="#DejaVuSans-Bold-105"/>
      <use x="526.976562" xlink:href="#DejaVuSans-Bold-116"/>
      <use x="574.779297" xlink:href="#DejaVuSans-Bold-105"/>
      <use x="609.056641" xlink:href="#DejaVuSans-Bold-118"/>
      <use x="674.242188" xlink:href="#DejaVuSans-Bold-101"/>
      <use x="742.064453" xlink:href="#DejaVuSans-Bold-32"/>
      <use x="776.878906" xlink:href="#DejaVuSans-Bold-82"/>
      <use x="853.880859" xlink:href="#DejaVuSans-Bold-97"/>
      <use x="921.361328" xlink:href="#DejaVuSans-Bold-116"/>
      <use x="969.164062" xlink:href="#DejaVuSans-Bold-101"/>
     </g>
    </g>
   </g>
   <g id="line2d_25">
    <path clip-path="url(#pbd38dea4c9)" d="M 73.772727 367.227273 
L 77.807622 202.19851 
L 81.842516 152.020486 
L 85.87741 128.057121 
L 89.912305 102.527659 
L 93.947199 97.437004 
L 97.982094 88.451545 
L 102.016988 81.815991 
L 106.051882 79.041956 
L 110.086777 74.780915 
L 114.121671 72.710545 
L 118.156566 70.112583 
L 122.19146 69.103008 
L 126.226354 68.357229 
L 130.261249 67.560229 
L 134.296143 67.206631 
L 138.331038 66.056033 
L 142.365932 51.525525 
L 146.400826 49.898556 
L 150.435721 49.865587 
L 154.470615 49.511988 
L 158.50551 48.36139 
L 162.540404 47.654193 
L 166.575298 47.120989 
L 170.610193 46.76739 
L 174.645087 46.413792 
L 178.679982 44.999398 
L 182.714876 44.6458 
L 186.74977 44.6458 
L 190.784665 30.468891 
L 194.819559 29.761694 
L 198.854454 29.761694 
L 202.889348 29.408095 
L 206.924242 29.021527 
L 210.959137 29.021527 
L 214.994031 29.021527 
L 219.028926 29.021527 
L 223.06382 28.31433 
L 227.098714 28.248391 
L 231.133609 28.248391 
L 235.168503 28.248391 
L 239.203398 28.248391 
L 243.238292 28.159295 
L 247.273186 27.805697 
L 251.308081 27.805697 
L 255.342975 27.805697 
L 259.37787 27.805697 
L 263.412764 27.805697 
L 267.447658 27.805697 
L 271.482553 27.805697 
L 275.517447 27.805697 
L 279.552342 27.805697 
L 283.587236 27.805697 
L 287.62213 27.805697 
L 291.657025 27.805697 
L 295.691919 27.805697 
L 299.726814 27.805697 
L 303.761708 27.805697 
L 307.796602 27.805697 
L 311.831497 27.805697 
L 315.866391 27.805697 
L 319.901286 27.772727 
L 323.93618 27.772727 
L 327.971074 27.772727 
L 332.005969 27.772727 
L 336.040863 27.772727 
L 340.075758 27.772727 
L 344.110652 27.772727 
L 348.145546 27.772727 
L 352.180441 27.772727 
L 356.215335 27.772727 
L 360.25023 27.772727 
L 364.285124 27.772727 
L 368.320018 27.772727 
L 372.354913 27.772727 
L 376.389807 27.772727 
L 380.424702 27.772727 
L 384.459596 27.772727 
L 388.49449 27.772727 
L 392.529385 27.772727 
L 396.564279 27.772727 
L 400.599174 27.772727 
L 404.634068 27.772727 
L 408.668962 27.772727 
L 412.703857 27.772727 
L 416.738751 27.772727 
L 420.773646 27.772727 
L 424.80854 27.772727 
L 428.843434 27.772727 
L 432.878329 27.772727 
L 436.913223 27.772727 
L 440.948118 27.772727 
L 444.983012 27.772727 
L 449.017906 27.772727 
L 453.052801 27.772727 
L 457.087695 27.772727 
L 461.12259 27.772727 
L 465.157484 27.772727 
L 469.192378 27.772727 
L 473.227273 27.772727 
" style="fill:none;stroke:#00ffff;stroke-linecap:square;stroke-width:2;"/>
   </g>
   <g id="line2d_26">
    <path clip-path="url(#pbd38dea4c9)" d="M 73.772727 367.227273 
L 77.807622 219.625589 
L 81.842516 185.542238 
L 85.87741 163.475448 
L 89.912305 150.32735 
L 93.947199 143.291256 
L 97.982094 139.292286 
L 102.016988 132.344188 
L 106.051882 130.295562 
L 110.086777 129.164629 
L 114.121671 127.82532 
L 118.156566 126.938517 
L 122.19146 126.282541 
L 126.226354 125.928942 
L 130.261249 124.508936 
L 134.296143 119.810107 
L 138.331038 101.939038 
L 142.365932 100.524644 
L 146.400826 99.727644 
L 150.435721 96.448822 
L 154.470615 82.18211 
L 158.50551 78.459887 
L 162.540404 77.399091 
L 166.575298 77.399091 
L 170.610193 77.012523 
L 174.645087 74.440898 
L 178.679982 74.351095 
L 182.714876 73.997497 
L 186.74977 73.643898 
L 190.784665 73.2903 
L 194.819559 72.583103 
L 198.854454 58.34936 
L 202.889348 57.995762 
L 206.924242 57.642163 
L 210.959137 57.642163 
L 214.994031 57.288565 
L 219.028926 57.288565 
L 223.06382 57.288565 
L 227.098714 57.198762 
L 231.133609 57.108959 
L 235.168503 56.755361 
L 239.203398 56.401762 
L 243.238292 56.401762 
L 247.273186 56.401762 
L 251.308081 56.048164 
L 255.342975 56.015194 
L 259.37787 56.015194 
L 263.412764 56.015194 
L 267.447658 56.015194 
L 271.482553 56.015194 
L 275.517447 55.661596 
L 279.552342 55.661596 
L 283.587236 53.089971 
L 287.62213 53.089971 
L 291.657025 53.089971 
L 295.691919 53.089971 
L 299.726814 53.000168 
L 303.761708 38.856228 
L 307.796602 38.766426 
L 311.831497 38.766426 
L 315.866391 38.766426 
L 319.901286 38.766426 
L 323.93618 35.841202 
L 327.971074 35.841202 
L 332.005969 30.697951 
L 336.040863 30.697951 
L 340.075758 30.697951 
L 344.110652 30.697951 
L 348.145546 30.697951 
L 352.180441 30.697951 
L 356.215335 30.697951 
L 360.25023 30.697951 
L 364.285124 30.697951 
L 368.320018 30.697951 
L 372.354913 30.697951 
L 376.389807 30.697951 
L 380.424702 30.697951 
L 384.459596 30.697951 
L 388.49449 30.697951 
L 392.529385 30.697951 
L 396.564279 30.697951 
L 400.599174 30.697951 
L 404.634068 30.344353 
L 408.668962 30.344353 
L 412.703857 30.344353 
L 416.738751 30.344353 
L 420.773646 30.344353 
L 424.80854 27.772727 
L 428.843434 27.772727 
L 432.878329 27.772727 
L 436.913223 27.772727 
L 440.948118 27.772727 
L 444.983012 27.772727 
L 449.017906 27.772727 
L 453.052801 27.772727 
L 457.087695 27.772727 
L 461.12259 27.772727 
L 465.157484 27.772727 
L 469.192378 27.772727 
L 473.227273 27.772727 
" style="fill:none;stroke:#008000;stroke-linecap:square;stroke-width:2;"/>
   </g>
   <g id="line2d_27">
    <path clip-path="url(#pbd38dea4c9)" d="M 73.772727 367.227273 
L 77.807622 164.514924 
L 81.842516 147.199448 
L 85.87741 141.436067 
L 89.912305 133.633828 
L 93.947199 130.775607 
L 97.982094 127.762351 
L 102.016988 125.139154 
L 106.051882 122.544729 
L 110.086777 119.655615 
L 114.121671 116.715281 
L 118.156566 114.982378 
L 122.19146 114.205751 
L 126.226354 112.421627 
L 130.261249 111.080905 
L 134.296143 93.790376 
L 138.331038 92.45456 
L 142.365932 91.567757 
L 146.400826 89.434941 
L 150.435721 88.542526 
L 154.470615 87.476118 
L 158.50551 87.296512 
L 162.540404 85.960696 
L 166.575298 84.720294 
L 170.610193 83.884712 
L 174.645087 83.531114 
L 178.679982 81.673319 
L 182.714876 80.786516 
L 186.74977 64.515373 
L 190.784665 63.562632 
L 194.819559 62.675829 
L 198.854454 62.322231 
L 202.889348 61.699931 
L 206.924242 60.902931 
L 210.959137 59.842136 
L 214.994031 59.752333 
L 219.028926 45.608393 
L 223.06382 45.254795 
L 227.098714 45.164992 
L 231.133609 44.811394 
L 235.168503 44.811394 
L 239.203398 43.043401 
L 243.238292 43.043401 
L 247.273186 42.336204 
L 251.308081 41.982606 
L 255.342975 41.982606 
L 259.37787 27.838666 
L 263.412764 27.805697 
L 267.447658 27.805697 
L 271.482553 27.805697 
L 275.517447 27.805697 
L 279.552342 27.805697 
L 283.587236 27.805697 
L 287.62213 27.805697 
L 291.657025 27.805697 
L 295.691919 27.772727 
L 299.726814 27.772727 
L 303.761708 27.772727 
L 307.796602 27.772727 
L 311.831497 27.772727 
L 315.866391 27.772727 
L 319.901286 27.772727 
L 323.93618 27.772727 
L 327.971074 27.772727 
L 332.005969 27.772727 
L 336.040863 27.772727 
L 340.075758 27.772727 
L 344.110652 27.772727 
L 348.145546 27.772727 
L 352.180441 27.772727 
L 356.215335 27.772727 
L 360.25023 27.772727 
L 364.285124 27.772727 
L 368.320018 27.772727 
L 372.354913 27.772727 
L 376.389807 27.772727 
L 380.424702 27.772727 
L 384.459596 27.772727 
L 388.49449 27.772727 
L 392.529385 27.772727 
L 396.564279 27.772727 
L 400.599174 27.772727 
L 404.634068 27.772727 
L 408.668962 27.772727 
L 412.703857 27.772727 
L 416.738751 27.772727 
L 420.773646 27.772727 
L 424.80854 27.772727 
L 428.843434 27.772727 
L 432.878329 27.772727 
L 436.913223 27.772727 
L 440.948118 27.772727 
L 444.983012 27.772727 
L 449.017906 27.772727 
L 453.052801 27.772727 
L 457.087695 27.772727 
L 461.12259 27.772727 
L 465.157484 27.772727 
L 469.192378 27.772727 
L 473.227273 27.772727 
" style="fill:none;stroke:#ff8c00;stroke-linecap:square;stroke-width:2;"/>
   </g>
   <g id="line2d_28">
    <path clip-path="url(#pbd38dea4c9)" d="M 73.772727 367.227273 
L 77.807622 157.967473 
L 81.842516 140.806248 
L 85.87741 97.866584 
L 89.912305 76.494975 
L 93.947199 69.61215 
L 97.982094 59.517463 
L 102.016988 54.067949 
L 106.051882 52.647942 
L 110.086777 49.252981 
L 114.121671 48.80958 
L 118.156566 47.27312 
L 122.19146 46.122522 
L 126.226354 41.956897 
L 130.261249 38.588272 
L 134.296143 37.791273 
L 138.331038 34.51245 
L 142.365932 34.158852 
L 146.400826 31.233628 
L 150.435721 30.526431 
L 154.470615 30.526431 
L 158.50551 30.460492 
L 162.540404 30.460492 
L 166.575298 30.017091 
L 170.610193 29.309894 
L 174.645087 29.309894 
L 178.679982 29.309894 
L 182.714876 28.956295 
L 186.74977 28.602697 
L 190.784665 28.602697 
L 194.819559 28.602697 
L 198.854454 28.602697 
L 202.889348 28.602697 
L 206.924242 28.249098 
L 210.959137 28.249098 
L 214.994031 28.249098 
L 219.028926 28.249098 
L 223.06382 28.249098 
L 227.098714 28.249098 
L 231.133609 28.249098 
L 235.168503 28.249098 
L 239.203398 28.249098 
L 243.238292 28.249098 
L 247.273186 28.249098 
L 251.308081 28.249098 
L 255.342975 28.216129 
L 259.37787 28.216129 
L 263.412764 28.216129 
L 267.447658 28.216129 
L 271.482553 28.216129 
L 275.517447 28.216129 
L 279.552342 28.216129 
L 283.587236 28.216129 
L 287.62213 28.216129 
L 291.657025 28.216129 
L 295.691919 28.216129 
L 299.726814 28.216129 
L 303.761708 28.216129 
L 307.796602 28.216129 
L 311.831497 28.216129 
L 315.866391 28.216129 
L 319.901286 28.216129 
L 323.93618 28.216129 
L 327.971074 28.216129 
L 332.005969 28.216129 
L 336.040863 27.86253 
L 340.075758 27.86253 
L 344.110652 27.86253 
L 348.145546 27.86253 
L 352.180441 27.86253 
L 356.215335 27.86253 
L 360.25023 27.86253 
L 364.285124 27.86253 
L 368.320018 27.86253 
L 372.354913 27.86253 
L 376.389807 27.772727 
L 380.424702 27.772727 
L 384.459596 27.772727 
L 388.49449 27.772727 
L 392.529385 27.772727 
L 396.564279 27.772727 
L 400.599174 27.772727 
L 404.634068 27.772727 
L 408.668962 27.772727 
L 412.703857 27.772727 
L 416.738751 27.772727 
L 420.773646 27.772727 
L 424.80854 27.772727 
L 428.843434 27.772727 
L 432.878329 27.772727 
L 436.913223 27.772727 
L 440.948118 27.772727 
L 444.983012 27.772727 
L 449.017906 27.772727 
L 453.052801 27.772727 
L 457.087695 27.772727 
L 461.12259 27.772727 
L 465.157484 27.772727 
L 469.192378 27.772727 
L 473.227273 27.772727 
" style="fill:none;stroke:#ffff00;stroke-linecap:square;stroke-width:2;"/>
   </g>
   <g id="line2d_29">
    <path clip-path="url(#pbd38dea4c9)" d="M 73.772727 367.227273 
L 77.807622 130.420008 
L 81.842516 112.131652 
L 85.87741 106.345026 
L 89.912305 98.431941 
L 93.947199 77.064176 
L 97.982094 72.281156 
L 102.016988 68.739559 
L 106.051882 65.63473 
L 110.086777 62.973301 
L 114.121671 62.143332 
L 118.156566 61.756764 
L 122.19146 61.403166 
L 126.226354 60.34237 
L 130.261249 59.809166 
L 134.296143 58.922363 
L 138.331038 58.568765 
L 142.365932 43.717629 
L 146.400826 43.010432 
L 150.435721 43.010432 
L 154.470615 42.656833 
L 158.50551 42.656833 
L 162.540404 42.656833 
L 166.575298 42.656833 
L 170.610193 42.656833 
L 174.645087 28.512894 
L 178.679982 28.512894 
L 182.714876 28.512894 
L 186.74977 28.512894 
L 190.784665 28.512894 
L 194.819559 28.512894 
L 198.854454 28.512894 
L 202.889348 28.512894 
L 206.924242 28.479924 
L 210.959137 28.479924 
L 214.994031 28.479924 
L 219.028926 28.479924 
L 223.06382 28.479924 
L 227.098714 28.479924 
L 231.133609 28.126326 
L 235.168503 27.772727 
L 239.203398 27.772727 
L 243.238292 27.772727 
L 247.273186 27.772727 
L 251.308081 27.772727 
L 255.342975 27.772727 
L 259.37787 27.772727 
L 263.412764 27.772727 
L 267.447658 27.772727 
L 271.482553 27.772727 
L 275.517447 27.772727 
L 279.552342 27.772727 
L 283.587236 27.772727 
L 287.62213 27.772727 
L 291.657025 27.772727 
L 295.691919 27.772727 
L 299.726814 27.772727 
L 303.761708 27.772727 
L 307.796602 27.772727 
L 311.831497 27.772727 
L 315.866391 27.772727 
L 319.901286 27.772727 
L 323.93618 27.772727 
L 327.971074 27.772727 
L 332.005969 27.772727 
L 336.040863 27.772727 
L 340.075758 27.772727 
L 344.110652 27.772727 
L 348.145546 27.772727 
L 352.180441 27.772727 
L 356.215335 27.772727 
L 360.25023 27.772727 
L 364.285124 27.772727 
L 368.320018 27.772727 
L 372.354913 27.772727 
L 376.389807 27.772727 
L 380.424702 27.772727 
L 384.459596 27.772727 
L 388.49449 27.772727 
L 392.529385 27.772727 
L 396.564279 27.772727 
L 400.599174 27.772727 
L 404.634068 27.772727 
L 408.668962 27.772727 
L 412.703857 27.772727 
L 416.738751 27.772727 
L 420.773646 27.772727 
L 424.80854 27.772727 
L 428.843434 27.772727 
L 432.878329 27.772727 
L 436.913223 27.772727 
L 440.948118 27.772727 
L 444.983012 27.772727 
L 449.017906 27.772727 
L 453.052801 27.772727 
L 457.087695 27.772727 
L 461.12259 27.772727 
L 465.157484 27.772727 
L 469.192378 27.772727 
L 473.227273 27.772727 
" style="fill:none;stroke:#000000;stroke-linecap:square;stroke-width:2;"/>
   </g>
   <g id="line2d_30">
    <path clip-path="url(#pbd38dea4c9)" d="M 73.772727 367.227273 
L 77.807622 136.390161 
L 81.842516 87.236022 
L 85.87741 65.748313 
L 89.912305 47.665026 
L 93.947199 45.38208 
L 97.982094 40.174618 
L 102.016988 38.250884 
L 106.051882 37.010483 
L 110.086777 35.770082 
L 114.121671 35.147075 
L 118.156566 33.379082 
L 122.19146 32.318287 
L 126.226354 31.521287 
L 130.261249 31.167689 
L 134.296143 30.106893 
L 138.331038 29.753295 
L 142.365932 29.753295 
L 146.400826 29.753295 
L 150.435721 29.753295 
L 154.470615 29.663492 
L 158.50551 29.309894 
L 162.540404 29.309894 
L 166.575298 28.956295 
L 170.610193 28.956295 
L 174.645087 28.602697 
L 178.679982 28.602697 
L 182.714876 28.602697 
L 186.74977 28.602697 
L 190.784665 28.602697 
L 194.819559 28.602697 
L 198.854454 28.602697 
L 202.889348 28.602697 
L 206.924242 28.602697 
L 210.959137 28.249098 
L 214.994031 28.249098 
L 219.028926 27.8955 
L 223.06382 27.8955 
L 227.098714 27.8955 
L 231.133609 27.8955 
L 235.168503 27.8955 
L 239.203398 27.8955 
L 243.238292 27.8955 
L 247.273186 27.8955 
L 251.308081 27.8955 
L 255.342975 27.8955 
L 259.37787 27.8955 
L 263.412764 27.8955 
L 267.447658 27.8955 
L 271.482553 27.8955 
L 275.517447 27.86253 
L 279.552342 27.86253 
L 283.587236 27.86253 
L 287.62213 27.86253 
L 291.657025 27.86253 
L 295.691919 27.86253 
L 299.726814 27.86253 
L 303.761708 27.772727 
L 307.796602 27.772727 
L 311.831497 27.772727 
L 315.866391 27.772727 
L 319.901286 27.772727 
L 323.93618 27.772727 
L 327.971074 27.772727 
L 332.005969 27.772727 
L 336.040863 27.772727 
L 340.075758 27.772727 
L 344.110652 27.772727 
L 348.145546 27.772727 
L 352.180441 27.772727 
L 356.215335 27.772727 
L 360.25023 27.772727 
L 364.285124 27.772727 
L 368.320018 27.772727 
L 372.354913 27.772727 
L 376.389807 27.772727 
L 380.424702 27.772727 
L 384.459596 27.772727 
L 388.49449 27.772727 
L 392.529385 27.772727 
L 396.564279 27.772727 
L 400.599174 27.772727 
L 404.634068 27.772727 
L 408.668962 27.772727 
L 412.703857 27.772727 
L 416.738751 27.772727 
L 420.773646 27.772727 
L 424.80854 27.772727 
L 428.843434 27.772727 
L 432.878329 27.772727 
L 436.913223 27.772727 
L 440.948118 27.772727 
L 444.983012 27.772727 
L 449.017906 27.772727 
L 453.052801 27.772727 
L 457.087695 27.772727 
L 461.12259 27.772727 
L 465.157484 27.772727 
L 469.192378 27.772727 
L 473.227273 27.772727 
" style="fill:none;stroke:#0000ff;stroke-linecap:square;stroke-width:2;"/>
   </g>
   <g id="line2d_31">
    <path clip-path="url(#pbd38dea4c9)" d="M 73.772727 367.227273 
L 473.227273 27.772727 
" style="fill:none;stroke:#ff0000;stroke-dasharray:7.4,3.2;stroke-dashoffset:0;stroke-opacity:0.8;stroke-width:2;"/>
   </g>
   <g id="patch_3">
    <path d="M 53.8 384.2 
L 53.8 10.8 
" style="fill:none;stroke:#000000;stroke-linecap:square;stroke-linejoin:miter;stroke-width:0.8;"/>
   </g>
   <g id="patch_4">
    <path d="M 53.8 384.2 
L 493.2 384.2 
" style="fill:none;stroke:#000000;stroke-linecap:square;stroke-linejoin:miter;stroke-width:0.8;"/>
   </g>
   <g id="legend_1">
    <g id="patch_5">
     <path d="M 180 379.2 
L 486.2 379.2 
Q 488.2 379.2 488.2 377.2 
L 488.2 275.453125 
Q 488.2 273.453125 486.2 273.453125 
L 180 273.453125 
Q 178 273.453125 178 275.453125 
L 178 377.2 
Q 178 379.2 180 379.2 
z
" style="fill:#ffffff;opacity:0.8;stroke:#cccccc;stroke-linejoin:miter;"/>
    </g>
    <g id="line2d_32">
     <path d="M 182 281.551563 
L 202 281.551563 
" style="fill:none;stroke:#00ffff;stroke-linecap:square;stroke-width:2;"/>
    </g>
    <g id="line2d_33"/>
    <g id="text_15">
     <!-- BCNN 64x64/128x128 - ROC (AUC = 0.956 $\pm$ 0.045) -->
     <defs>
      <path d="M 19.671875 34.8125 
L 19.671875 8.109375 
L 35.5 8.109375 
Q 43.453125 8.109375 47.28125 11.40625 
Q 51.125 14.703125 51.125 21.484375 
Q 51.125 28.328125 47.28125 31.5625 
Q 43.453125 34.8125 35.5 34.8125 
z
M 19.671875 64.796875 
L 19.671875 42.828125 
L 34.28125 42.828125 
Q 41.5 42.828125 45.03125 45.53125 
Q 48.578125 48.25 48.578125 53.8125 
Q 48.578125 59.328125 45.03125 62.0625 
Q 41.5 64.796875 34.28125 64.796875 
z
M 9.8125 72.90625 
L 35.015625 72.90625 
Q 46.296875 72.90625 52.390625 68.21875 
Q 58.5 63.53125 58.5 54.890625 
Q 58.5 48.1875 55.375 44.234375 
Q 52.25 40.28125 46.1875 39.3125 
Q 53.46875 37.75 57.5 32.78125 
Q 61.53125 27.828125 61.53125 20.40625 
Q 61.53125 10.640625 54.890625 5.3125 
Q 48.25 0 35.984375 0 
L 9.8125 0 
z
" id="DejaVuSans-66"/>
      <path d="M 64.40625 67.28125 
L 64.40625 56.890625 
Q 59.421875 61.53125 53.78125 63.8125 
Q 48.140625 66.109375 41.796875 66.109375 
Q 29.296875 66.109375 22.65625 58.46875 
Q 16.015625 50.828125 16.015625 36.375 
Q 16.015625 21.96875 22.65625 14.328125 
Q 29.296875 6.6875 41.796875 6.6875 
Q 48.140625 6.6875 53.78125 8.984375 
Q 59.421875 11.28125 64.40625 15.921875 
L 64.40625 5.609375 
Q 59.234375 2.09375 53.4375 0.328125 
Q 47.65625 -1.421875 41.21875 -1.421875 
Q 24.65625 -1.421875 15.125 8.703125 
Q 5.609375 18.84375 5.609375 36.375 
Q 5.609375 53.953125 15.125 64.078125 
Q 24.65625 74.21875 41.21875 74.21875 
Q 47.75 74.21875 53.53125 72.484375 
Q 59.328125 70.75 64.40625 67.28125 
z
" id="DejaVuSans-67"/>
      <path d="M 9.8125 72.90625 
L 23.09375 72.90625 
L 55.421875 11.921875 
L 55.421875 72.90625 
L 64.984375 72.90625 
L 64.984375 0 
L 51.703125 0 
L 19.390625 60.984375 
L 19.390625 0 
L 9.8125 0 
z
" id="DejaVuSans-78"/>
      <path id="DejaVuSans-32"/>
      <path d="M 54.890625 54.6875 
L 35.109375 28.078125 
L 55.90625 0 
L 45.3125 0 
L 29.390625 21.484375 
L 13.484375 0 
L 2.875 0 
L 24.125 28.609375 
L 4.6875 54.6875 
L 15.28125 54.6875 
L 29.78125 35.203125 
L 44.28125 54.6875 
z
" id="DejaVuSans-120"/>
      <path d="M 25.390625 72.90625 
L 33.6875 72.90625 
L 8.296875 -9.28125 
L 0 -9.28125 
z
" id="DejaVuSans-47"/>
      <path d="M 4.890625 31.390625 
L 31.203125 31.390625 
L 31.203125 23.390625 
L 4.890625 23.390625 
z
" id="DejaVuSans-45"/>
      <path d="M 44.390625 34.1875 
Q 47.5625 33.109375 50.5625 29.59375 
Q 53.5625 26.078125 56.59375 19.921875 
L 66.609375 0 
L 56 0 
L 46.6875 18.703125 
Q 43.0625 26.03125 39.671875 28.421875 
Q 36.28125 30.8125 30.421875 30.8125 
L 19.671875 30.8125 
L 19.671875 0 
L 9.8125 0 
L 9.8125 72.90625 
L 32.078125 72.90625 
Q 44.578125 72.90625 50.734375 67.671875 
Q 56.890625 62.453125 56.890625 51.90625 
Q 56.890625 45.015625 53.6875 40.46875 
Q 50.484375 35.9375 44.390625 34.1875 
z
M 19.671875 64.796875 
L 19.671875 38.921875 
L 32.078125 38.921875 
Q 39.203125 38.921875 42.84375 42.21875 
Q 46.484375 45.515625 46.484375 51.90625 
Q 46.484375 58.296875 42.84375 61.546875 
Q 39.203125 64.796875 32.078125 64.796875 
z
" id="DejaVuSans-82"/>
      <path d="M 39.40625 66.21875 
Q 28.65625 66.21875 22.328125 58.203125 
Q 16.015625 50.203125 16.015625 36.375 
Q 16.015625 22.609375 22.328125 14.59375 
Q 28.65625 6.59375 39.40625 6.59375 
Q 50.140625 6.59375 56.421875 14.59375 
Q 62.703125 22.609375 62.703125 36.375 
Q 62.703125 50.203125 56.421875 58.203125 
Q 50.140625 66.21875 39.40625 66.21875 
z
M 39.40625 74.21875 
Q 54.734375 74.21875 63.90625 63.9375 
Q 73.09375 53.65625 73.09375 36.375 
Q 73.09375 19.140625 63.90625 8.859375 
Q 54.734375 -1.421875 39.40625 -1.421875 
Q 24.03125 -1.421875 14.8125 8.828125 
Q 5.609375 19.09375 5.609375 36.375 
Q 5.609375 53.65625 14.8125 63.9375 
Q 24.03125 74.21875 39.40625 74.21875 
z
" id="DejaVuSans-79"/>
      <path d="M 31 75.875 
Q 24.46875 64.65625 21.28125 53.65625 
Q 18.109375 42.671875 18.109375 31.390625 
Q 18.109375 20.125 21.3125 9.0625 
Q 24.515625 -2 31 -13.1875 
L 23.1875 -13.1875 
Q 15.875 -1.703125 12.234375 9.375 
Q 8.59375 20.453125 8.59375 31.390625 
Q 8.59375 42.28125 12.203125 53.3125 
Q 15.828125 64.359375 23.1875 75.875 
z
" id="DejaVuSans-40"/>
      <path d="M 34.1875 63.1875 
L 20.796875 26.90625 
L 47.609375 26.90625 
z
M 28.609375 72.90625 
L 39.796875 72.90625 
L 67.578125 0 
L 57.328125 0 
L 50.6875 18.703125 
L 17.828125 18.703125 
L 11.1875 0 
L 0.78125 0 
z
" id="DejaVuSans-65"/>
      <path d="M 8.6875 72.90625 
L 18.609375 72.90625 
L 18.609375 28.609375 
Q 18.609375 16.890625 22.84375 11.734375 
Q 27.09375 6.59375 36.625 6.59375 
Q 46.09375 6.59375 50.34375 11.734375 
Q 54.59375 16.890625 54.59375 28.609375 
L 54.59375 72.90625 
L 64.5 72.90625 
L 64.5 27.390625 
Q 64.5 13.140625 57.4375 5.859375 
Q 50.390625 -1.421875 36.625 -1.421875 
Q 22.796875 -1.421875 15.734375 5.859375 
Q 8.6875 13.140625 8.6875 27.390625 
z
" id="DejaVuSans-85"/>
      <path d="M 10.59375 45.40625 
L 73.1875 45.40625 
L 73.1875 37.203125 
L 10.59375 37.203125 
z
M 10.59375 25.484375 
L 73.1875 25.484375 
L 73.1875 17.1875 
L 10.59375 17.1875 
z
" id="DejaVuSans-61"/>
      <path d="M 10.984375 1.515625 
L 10.984375 10.5 
Q 14.703125 8.734375 18.5 7.8125 
Q 22.3125 6.890625 25.984375 6.890625 
Q 35.75 6.890625 40.890625 13.453125 
Q 46.046875 20.015625 46.78125 33.40625 
Q 43.953125 29.203125 39.59375 26.953125 
Q 35.25 24.703125 29.984375 24.703125 
Q 19.046875 24.703125 12.671875 31.3125 
Q 6.296875 37.9375 6.296875 49.421875 
Q 6.296875 60.640625 12.9375 67.421875 
Q 19.578125 74.21875 30.609375 74.21875 
Q 43.265625 74.21875 49.921875 64.515625 
Q 56.59375 54.828125 56.59375 36.375 
Q 56.59375 19.140625 48.40625 8.859375 
Q 40.234375 -1.421875 26.421875 -1.421875 
Q 22.703125 -1.421875 18.890625 -0.6875 
Q 15.09375 0.046875 10.984375 1.515625 
z
M 30.609375 32.421875 
Q 37.25 32.421875 41.125 36.953125 
Q 45.015625 41.5 45.015625 49.421875 
Q 45.015625 57.28125 41.125 61.84375 
Q 37.25 66.40625 30.609375 66.40625 
Q 23.96875 66.40625 20.09375 61.84375 
Q 16.21875 57.28125 16.21875 49.421875 
Q 16.21875 41.5 20.09375 36.953125 
Q 23.96875 32.421875 30.609375 32.421875 
z
" id="DejaVuSans-57"/>
      <path d="M 10.796875 72.90625 
L 49.515625 72.90625 
L 49.515625 64.59375 
L 19.828125 64.59375 
L 19.828125 46.734375 
Q 21.96875 47.46875 24.109375 47.828125 
Q 26.265625 48.1875 28.421875 48.1875 
Q 40.625 48.1875 47.75 41.5 
Q 54.890625 34.8125 54.890625 23.390625 
Q 54.890625 11.625 47.5625 5.09375 
Q 40.234375 -1.421875 26.90625 -1.421875 
Q 22.3125 -1.421875 17.546875 -0.640625 
Q 12.796875 0.140625 7.71875 1.703125 
L 7.71875 11.625 
Q 12.109375 9.234375 16.796875 8.0625 
Q 21.484375 6.890625 26.703125 6.890625 
Q 35.15625 6.890625 40.078125 11.328125 
Q 45.015625 15.765625 45.015625 23.390625 
Q 45.015625 31 40.078125 35.4375 
Q 35.15625 39.890625 26.703125 39.890625 
Q 22.75 39.890625 18.8125 39.015625 
Q 14.890625 38.140625 10.796875 36.28125 
z
" id="DejaVuSans-53"/>
      <path d="M 46 62.703125 
L 46 43.796875 
L 73.1875 43.796875 
L 73.1875 35.5 
L 46 35.5 
L 46 16.609375 
L 37.796875 16.609375 
L 37.796875 35.5 
L 10.59375 35.5 
L 10.59375 43.796875 
L 37.796875 43.796875 
L 37.796875 62.703125 
z
M 10.59375 8.296875 
L 73.1875 8.296875 
L 73.1875 0 
L 10.59375 0 
z
" id="DejaVuSans-177"/>
      <path d="M 8.015625 75.875 
L 15.828125 75.875 
Q 23.140625 64.359375 26.78125 53.3125 
Q 30.421875 42.28125 30.421875 31.390625 
Q 30.421875 20.453125 26.78125 9.375 
Q 23.140625 -1.703125 15.828125 -13.1875 
L 8.015625 -13.1875 
Q 14.5 -2 17.703125 9.0625 
Q 20.90625 20.125 20.90625 31.390625 
Q 20.90625 42.671875 17.703125 53.65625 
Q 14.5 64.65625 8.015625 75.875 
z
" id="DejaVuSans-41"/>
     </defs>
     <g transform="translate(210 285.051563)scale(0.1 -0.1)">
      <use transform="translate(0 0.125)" xlink:href="#DejaVuSans-66"/>
      <use transform="translate(68.603516 0.125)" xlink:href="#DejaVuSans-67"/>
      <use transform="translate(138.427734 0.125)" xlink:href="#DejaVuSans-78"/>
      <use transform="translate(213.232422 0.125)" xlink:href="#DejaVuSans-78"/>
      <use transform="translate(288.037109 0.125)" xlink:href="#DejaVuSans-32"/>
      <use transform="translate(319.824219 0.125)" xlink:href="#DejaVuSans-54"/>
      <use transform="translate(383.447266 0.125)" xlink:href="#DejaVuSans-52"/>
      <use transform="translate(447.070312 0.125)" xlink:href="#DejaVuSans-120"/>
      <use transform="translate(506.25 0.125)" xlink:href="#DejaVuSans-54"/>
      <use transform="translate(569.873047 0.125)" xlink:href="#DejaVuSans-52"/>
      <use transform="translate(633.496094 0.125)" xlink:href="#DejaVuSans-47"/>
      <use transform="translate(667.1875 0.125)" xlink:href="#DejaVuSans-49"/>
      <use transform="translate(730.810547 0.125)" xlink:href="#DejaVuSans-50"/>
      <use transform="translate(794.433594 0.125)" xlink:href="#DejaVuSans-56"/>
      <use transform="translate(858.056641 0.125)" xlink:href="#DejaVuSans-120"/>
      <use transform="translate(917.236328 0.125)" xlink:href="#DejaVuSans-49"/>
      <use transform="translate(980.859375 0.125)" xlink:href="#DejaVuSans-50"/>
      <use transform="translate(1044.482422 0.125)" xlink:href="#DejaVuSans-56"/>
      <use transform="translate(1108.105469 0.125)" xlink:href="#DejaVuSans-32"/>
      <use transform="translate(1139.892578 0.125)" xlink:href="#DejaVuSans-45"/>
      <use transform="translate(1175.976562 0.125)" xlink:href="#DejaVuSans-32"/>
      <use transform="translate(1207.763672 0.125)" xlink:href="#DejaVuSans-82"/>
      <use transform="translate(1277.246094 0.125)" xlink:href="#DejaVuSans-79"/>
      <use transform="translate(1355.957031 0.125)" xlink:href="#DejaVuSans-67"/>
      <use transform="translate(1425.78125 0.125)" xlink:href="#DejaVuSans-32"/>
      <use transform="translate(1457.568359 0.125)" xlink:href="#DejaVuSans-40"/>
      <use transform="translate(1496.582031 0.125)" xlink:href="#DejaVuSans-65"/>
      <use transform="translate(1564.990234 0.125)" xlink:href="#DejaVuSans-85"/>
      <use transform="translate(1638.183594 0.125)" xlink:href="#DejaVuSans-67"/>
      <use transform="translate(1708.007812 0.125)" xlink:href="#DejaVuSans-32"/>
      <use transform="translate(1739.794922 0.125)" xlink:href="#DejaVuSans-61"/>
      <use transform="translate(1823.583984 0.125)" xlink:href="#DejaVuSans-32"/>
      <use transform="translate(1855.371094 0.125)" xlink:href="#DejaVuSans-48"/>
      <use transform="translate(1918.994141 0.125)" xlink:href="#DejaVuSans-46"/>
      <use transform="translate(1950.78125 0.125)" xlink:href="#DejaVuSans-57"/>
      <use transform="translate(2014.404297 0.125)" xlink:href="#DejaVuSans-53"/>
      <use transform="translate(2078.027344 0.125)" xlink:href="#DejaVuSans-54"/>
      <use transform="translate(2141.650391 0.125)" xlink:href="#DejaVuSans-32"/>
      <use transform="translate(2173.4375 0.125)" xlink:href="#DejaVuSans-177"/>
      <use transform="translate(2257.226562 0.125)" xlink:href="#DejaVuSans-32"/>
      <use transform="translate(2289.013672 0.125)" xlink:href="#DejaVuSans-48"/>
      <use transform="translate(2352.636719 0.125)" xlink:href="#DejaVuSans-46"/>
      <use transform="translate(2384.423828 0.125)" xlink:href="#DejaVuSans-48"/>
      <use transform="translate(2448.046875 0.125)" xlink:href="#DejaVuSans-52"/>
      <use transform="translate(2511.669922 0.125)" xlink:href="#DejaVuSans-53"/>
      <use transform="translate(2575.292969 0.125)" xlink:href="#DejaVuSans-41"/>
     </g>
    </g>
    <g id="line2d_34">
     <path d="M 182 296.229688 
L 202 296.229688 
" style="fill:none;stroke:#008000;stroke-linecap:square;stroke-width:2;"/>
    </g>
    <g id="line2d_35"/>
    <g id="text_16">
     <!-- BCNN 64x64/256x256 - ROC (AUC = 0.893 $\pm$ 0.112) -->
     <defs>
      <path d="M 40.578125 39.3125 
Q 47.65625 37.796875 51.625 33 
Q 55.609375 28.21875 55.609375 21.1875 
Q 55.609375 10.40625 48.1875 4.484375 
Q 40.765625 -1.421875 27.09375 -1.421875 
Q 22.515625 -1.421875 17.65625 -0.515625 
Q 12.796875 0.390625 7.625 2.203125 
L 7.625 11.71875 
Q 11.71875 9.328125 16.59375 8.109375 
Q 21.484375 6.890625 26.8125 6.890625 
Q 36.078125 6.890625 40.9375 10.546875 
Q 45.796875 14.203125 45.796875 21.1875 
Q 45.796875 27.640625 41.28125 31.265625 
Q 36.765625 34.90625 28.71875 34.90625 
L 20.21875 34.90625 
L 20.21875 43.015625 
L 29.109375 43.015625 
Q 36.375 43.015625 40.234375 45.921875 
Q 44.09375 48.828125 44.09375 54.296875 
Q 44.09375 59.90625 40.109375 62.90625 
Q 36.140625 65.921875 28.71875 65.921875 
Q 24.65625 65.921875 20.015625 65.03125 
Q 15.375 64.15625 9.8125 62.3125 
L 9.8125 71.09375 
Q 15.4375 72.65625 20.34375 73.4375 
Q 25.25 74.21875 29.59375 74.21875 
Q 40.828125 74.21875 47.359375 69.109375 
Q 53.90625 64.015625 53.90625 55.328125 
Q 53.90625 49.265625 50.4375 45.09375 
Q 46.96875 40.921875 40.578125 39.3125 
z
" id="DejaVuSans-51"/>
     </defs>
     <g transform="translate(210 299.729688)scale(0.1 -0.1)">
      <use transform="translate(0 0.125)" xlink:href="#DejaVuSans-66"/>
      <use transform="translate(68.603516 0.125)" xlink:href="#DejaVuSans-67"/>
      <use transform="translate(138.427734 0.125)" xlink:href="#DejaVuSans-78"/>
      <use transform="translate(213.232422 0.125)" xlink:href="#DejaVuSans-78"/>
      <use transform="translate(288.037109 0.125)" xlink:href="#DejaVuSans-32"/>
      <use transform="translate(319.824219 0.125)" xlink:href="#DejaVuSans-54"/>
      <use transform="translate(383.447266 0.125)" xlink:href="#DejaVuSans-52"/>
      <use transform="translate(447.070312 0.125)" xlink:href="#DejaVuSans-120"/>
      <use transform="translate(506.25 0.125)" xlink:href="#DejaVuSans-54"/>
      <use transform="translate(569.873047 0.125)" xlink:href="#DejaVuSans-52"/>
      <use transform="translate(633.496094 0.125)" xlink:href="#DejaVuSans-47"/>
      <use transform="translate(667.140625 0.125)" xlink:href="#DejaVuSans-50"/>
      <use transform="translate(730.763672 0.125)" xlink:href="#DejaVuSans-53"/>
      <use transform="translate(794.386719 0.125)" xlink:href="#DejaVuSans-54"/>
      <use transform="translate(858.009766 0.125)" xlink:href="#DejaVuSans-120"/>
      <use transform="translate(917.189453 0.125)" xlink:href="#DejaVuSans-50"/>
      <use transform="translate(980.8125 0.125)" xlink:href="#DejaVuSans-53"/>
      <use transform="translate(1044.435547 0.125)" xlink:href="#DejaVuSans-54"/>
      <use transform="translate(1108.058594 0.125)" xlink:href="#DejaVuSans-32"/>
      <use transform="translate(1139.845703 0.125)" xlink:href="#DejaVuSans-45"/>
      <use transform="translate(1175.929688 0.125)" xlink:href="#DejaVuSans-32"/>
      <use transform="translate(1207.716797 0.125)" xlink:href="#DejaVuSans-82"/>
      <use transform="translate(1277.199219 0.125)" xlink:href="#DejaVuSans-79"/>
      <use transform="translate(1355.910156 0.125)" xlink:href="#DejaVuSans-67"/>
      <use transform="translate(1425.734375 0.125)" xlink:href="#DejaVuSans-32"/>
      <use transform="translate(1457.521484 0.125)" xlink:href="#DejaVuSans-40"/>
      <use transform="translate(1496.535156 0.125)" xlink:href="#DejaVuSans-65"/>
      <use transform="translate(1564.943359 0.125)" xlink:href="#DejaVuSans-85"/>
      <use transform="translate(1638.136719 0.125)" xlink:href="#DejaVuSans-67"/>
      <use transform="translate(1707.960938 0.125)" xlink:href="#DejaVuSans-32"/>
      <use transform="translate(1739.748047 0.125)" xlink:href="#DejaVuSans-61"/>
      <use transform="translate(1823.537109 0.125)" xlink:href="#DejaVuSans-32"/>
      <use transform="translate(1855.324219 0.125)" xlink:href="#DejaVuSans-48"/>
      <use transform="translate(1918.947266 0.125)" xlink:href="#DejaVuSans-46"/>
      <use transform="translate(1950.703125 0.125)" xlink:href="#DejaVuSans-56"/>
      <use transform="translate(2014.326172 0.125)" xlink:href="#DejaVuSans-57"/>
      <use transform="translate(2077.949219 0.125)" xlink:href="#DejaVuSans-51"/>
      <use transform="translate(2141.572266 0.125)" xlink:href="#DejaVuSans-32"/>
      <use transform="translate(2173.359375 0.125)" xlink:href="#DejaVuSans-177"/>
      <use transform="translate(2257.148438 0.125)" xlink:href="#DejaVuSans-32"/>
      <use transform="translate(2288.935547 0.125)" xlink:href="#DejaVuSans-48"/>
      <use transform="translate(2352.558594 0.125)" xlink:href="#DejaVuSans-46"/>
      <use transform="translate(2384.345703 0.125)" xlink:href="#DejaVuSans-49"/>
      <use transform="translate(2447.96875 0.125)" xlink:href="#DejaVuSans-49"/>
      <use transform="translate(2511.591797 0.125)" xlink:href="#DejaVuSans-50"/>
      <use transform="translate(2575.214844 0.125)" xlink:href="#DejaVuSans-41"/>
     </g>
    </g>
    <g id="line2d_36">
     <path d="M 182 310.907813 
L 202 310.907813 
" style="fill:none;stroke:#ff8c00;stroke-linecap:square;stroke-width:2;"/>
    </g>
    <g id="line2d_37"/>
    <g id="text_17">
     <!-- BCNN 64x64/512x512 - ROC (AUC = 0.918 $\pm$ 0.108) -->
     <g transform="translate(210 314.407813)scale(0.1 -0.1)">
      <use transform="translate(0 0.125)" xlink:href="#DejaVuSans-66"/>
      <use transform="translate(68.603516 0.125)" xlink:href="#DejaVuSans-67"/>
      <use transform="translate(138.427734 0.125)" xlink:href="#DejaVuSans-78"/>
      <use transform="translate(213.232422 0.125)" xlink:href="#DejaVuSans-78"/>
      <use transform="translate(288.037109 0.125)" xlink:href="#DejaVuSans-32"/>
      <use transform="translate(319.824219 0.125)" xlink:href="#DejaVuSans-54"/>
      <use transform="translate(383.447266 0.125)" xlink:href="#DejaVuSans-52"/>
      <use transform="translate(447.070312 0.125)" xlink:href="#DejaVuSans-120"/>
      <use transform="translate(506.25 0.125)" xlink:href="#DejaVuSans-54"/>
      <use transform="translate(569.873047 0.125)" xlink:href="#DejaVuSans-52"/>
      <use transform="translate(633.496094 0.125)" xlink:href="#DejaVuSans-47"/>
      <use transform="translate(667.1875 0.125)" xlink:href="#DejaVuSans-53"/>
      <use transform="translate(730.810547 0.125)" xlink:href="#DejaVuSans-49"/>
      <use transform="translate(794.433594 0.125)" xlink:href="#DejaVuSans-50"/>
      <use transform="translate(858.056641 0.125)" xlink:href="#DejaVuSans-120"/>
      <use transform="translate(917.236328 0.125)" xlink:href="#DejaVuSans-53"/>
      <use transform="translate(980.859375 0.125)" xlink:href="#DejaVuSans-49"/>
      <use transform="translate(1044.482422 0.125)" xlink:href="#DejaVuSans-50"/>
      <use transform="translate(1108.105469 0.125)" xlink:href="#DejaVuSans-32"/>
      <use transform="translate(1139.892578 0.125)" xlink:href="#DejaVuSans-45"/>
      <use transform="translate(1175.976562 0.125)" xlink:href="#DejaVuSans-32"/>
      <use transform="translate(1207.763672 0.125)" xlink:href="#DejaVuSans-82"/>
      <use transform="translate(1277.246094 0.125)" xlink:href="#DejaVuSans-79"/>
      <use transform="translate(1355.957031 0.125)" xlink:href="#DejaVuSans-67"/>
      <use transform="translate(1425.78125 0.125)" xlink:href="#DejaVuSans-32"/>
      <use transform="translate(1457.568359 0.125)" xlink:href="#DejaVuSans-40"/>
      <use transform="translate(1496.582031 0.125)" xlink:href="#DejaVuSans-65"/>
      <use transform="translate(1564.990234 0.125)" xlink:href="#DejaVuSans-85"/>
      <use transform="translate(1638.183594 0.125)" xlink:href="#DejaVuSans-67"/>
      <use transform="translate(1708.007812 0.125)" xlink:href="#DejaVuSans-32"/>
      <use transform="translate(1739.794922 0.125)" xlink:href="#DejaVuSans-61"/>
      <use transform="translate(1823.583984 0.125)" xlink:href="#DejaVuSans-32"/>
      <use transform="translate(1855.371094 0.125)" xlink:href="#DejaVuSans-48"/>
      <use transform="translate(1918.994141 0.125)" xlink:href="#DejaVuSans-46"/>
      <use transform="translate(1950.78125 0.125)" xlink:href="#DejaVuSans-57"/>
      <use transform="translate(2014.404297 0.125)" xlink:href="#DejaVuSans-49"/>
      <use transform="translate(2078.027344 0.125)" xlink:href="#DejaVuSans-56"/>
      <use transform="translate(2141.650391 0.125)" xlink:href="#DejaVuSans-32"/>
      <use transform="translate(2173.4375 0.125)" xlink:href="#DejaVuSans-177"/>
      <use transform="translate(2257.226562 0.125)" xlink:href="#DejaVuSans-32"/>
      <use transform="translate(2289.013672 0.125)" xlink:href="#DejaVuSans-48"/>
      <use transform="translate(2352.636719 0.125)" xlink:href="#DejaVuSans-46"/>
      <use transform="translate(2384.423828 0.125)" xlink:href="#DejaVuSans-49"/>
      <use transform="translate(2448.046875 0.125)" xlink:href="#DejaVuSans-48"/>
      <use transform="translate(2511.669922 0.125)" xlink:href="#DejaVuSans-56"/>
      <use transform="translate(2575.292969 0.125)" xlink:href="#DejaVuSans-41"/>
     </g>
    </g>
    <g id="line2d_38">
     <path d="M 182 325.585938 
L 202 325.585938 
" style="fill:none;stroke:#ffff00;stroke-linecap:square;stroke-width:2;"/>
    </g>
    <g id="line2d_39"/>
    <g id="text_18">
     <!-- BCNN 128x128/256x256 - ROC (AUC = 0.975 $\pm$ 0.018) -->
     <defs>
      <path d="M 8.203125 72.90625 
L 55.078125 72.90625 
L 55.078125 68.703125 
L 28.609375 0 
L 18.3125 0 
L 43.21875 64.59375 
L 8.203125 64.59375 
z
" id="DejaVuSans-55"/>
     </defs>
     <g transform="translate(210 329.085938)scale(0.1 -0.1)">
      <use transform="translate(0 0.125)" xlink:href="#DejaVuSans-66"/>
      <use transform="translate(68.603516 0.125)" xlink:href="#DejaVuSans-67"/>
      <use transform="translate(138.427734 0.125)" xlink:href="#DejaVuSans-78"/>
      <use transform="translate(213.232422 0.125)" xlink:href="#DejaVuSans-78"/>
      <use transform="translate(288.037109 0.125)" xlink:href="#DejaVuSans-32"/>
      <use transform="translate(319.824219 0.125)" xlink:href="#DejaVuSans-49"/>
      <use transform="translate(383.447266 0.125)" xlink:href="#DejaVuSans-50"/>
      <use transform="translate(447.070312 0.125)" xlink:href="#DejaVuSans-56"/>
      <use transform="translate(510.693359 0.125)" xlink:href="#DejaVuSans-120"/>
      <use transform="translate(569.873047 0.125)" xlink:href="#DejaVuSans-49"/>
      <use transform="translate(633.496094 0.125)" xlink:href="#DejaVuSans-50"/>
      <use transform="translate(697.119141 0.125)" xlink:href="#DejaVuSans-56"/>
      <use transform="translate(760.742188 0.125)" xlink:href="#DejaVuSans-47"/>
      <use transform="translate(794.386719 0.125)" xlink:href="#DejaVuSans-50"/>
      <use transform="translate(858.009766 0.125)" xlink:href="#DejaVuSans-53"/>
      <use transform="translate(921.632812 0.125)" xlink:href="#DejaVuSans-54"/>
      <use transform="translate(985.255859 0.125)" xlink:href="#DejaVuSans-120"/>
      <use transform="translate(1044.435547 0.125)" xlink:href="#DejaVuSans-50"/>
      <use transform="translate(1108.058594 0.125)" xlink:href="#DejaVuSans-53"/>
      <use transform="translate(1171.681641 0.125)" xlink:href="#DejaVuSans-54"/>
      <use transform="translate(1235.304688 0.125)" xlink:href="#DejaVuSans-32"/>
      <use transform="translate(1267.091797 0.125)" xlink:href="#DejaVuSans-45"/>
      <use transform="translate(1303.175781 0.125)" xlink:href="#DejaVuSans-32"/>
      <use transform="translate(1334.962891 0.125)" xlink:href="#DejaVuSans-82"/>
      <use transform="translate(1404.445312 0.125)" xlink:href="#DejaVuSans-79"/>
      <use transform="translate(1483.15625 0.125)" xlink:href="#DejaVuSans-67"/>
      <use transform="translate(1552.980469 0.125)" xlink:href="#DejaVuSans-32"/>
      <use transform="translate(1584.767578 0.125)" xlink:href="#DejaVuSans-40"/>
      <use transform="translate(1623.78125 0.125)" xlink:href="#DejaVuSans-65"/>
      <use transform="translate(1692.189453 0.125)" xlink:href="#DejaVuSans-85"/>
      <use transform="translate(1765.382812 0.125)" xlink:href="#DejaVuSans-67"/>
      <use transform="translate(1835.207031 0.125)" xlink:href="#DejaVuSans-32"/>
      <use transform="translate(1866.994141 0.125)" xlink:href="#DejaVuSans-61"/>
      <use transform="translate(1950.783203 0.125)" xlink:href="#DejaVuSans-32"/>
      <use transform="translate(1982.570312 0.125)" xlink:href="#DejaVuSans-48"/>
      <use transform="translate(2046.193359 0.125)" xlink:href="#DejaVuSans-46"/>
      <use transform="translate(2077.980469 0.125)" xlink:href="#DejaVuSans-57"/>
      <use transform="translate(2141.603516 0.125)" xlink:href="#DejaVuSans-55"/>
      <use transform="translate(2205.226562 0.125)" xlink:href="#DejaVuSans-53"/>
      <use transform="translate(2268.849609 0.125)" xlink:href="#DejaVuSans-32"/>
      <use transform="translate(2300.636719 0.125)" xlink:href="#DejaVuSans-177"/>
      <use transform="translate(2384.425781 0.125)" xlink:href="#DejaVuSans-32"/>
      <use transform="translate(2416.212891 0.125)" xlink:href="#DejaVuSans-48"/>
      <use transform="translate(2479.835938 0.125)" xlink:href="#DejaVuSans-46"/>
      <use transform="translate(2511.623047 0.125)" xlink:href="#DejaVuSans-48"/>
      <use transform="translate(2575.246094 0.125)" xlink:href="#DejaVuSans-49"/>
      <use transform="translate(2638.869141 0.125)" xlink:href="#DejaVuSans-56"/>
      <use transform="translate(2702.492188 0.125)" xlink:href="#DejaVuSans-41"/>
     </g>
    </g>
    <g id="line2d_40">
     <path d="M 182 340.264063 
L 202 340.264063 
" style="fill:none;stroke:#000000;stroke-linecap:square;stroke-width:2;"/>
    </g>
    <g id="line2d_41"/>
    <g id="text_19">
     <!-- BCNN 128x128/512x512 - ROC (AUC = 0.968 $\pm$ 0.039) -->
     <g transform="translate(210 343.764063)scale(0.1 -0.1)">
      <use transform="translate(0 0.125)" xlink:href="#DejaVuSans-66"/>
      <use transform="translate(68.603516 0.125)" xlink:href="#DejaVuSans-67"/>
      <use transform="translate(138.427734 0.125)" xlink:href="#DejaVuSans-78"/>
      <use transform="translate(213.232422 0.125)" xlink:href="#DejaVuSans-78"/>
      <use transform="translate(288.037109 0.125)" xlink:href="#DejaVuSans-32"/>
      <use transform="translate(319.824219 0.125)" xlink:href="#DejaVuSans-49"/>
      <use transform="translate(383.447266 0.125)" xlink:href="#DejaVuSans-50"/>
      <use transform="translate(447.070312 0.125)" xlink:href="#DejaVuSans-56"/>
      <use transform="translate(510.693359 0.125)" xlink:href="#DejaVuSans-120"/>
      <use transform="translate(569.873047 0.125)" xlink:href="#DejaVuSans-49"/>
      <use transform="translate(633.496094 0.125)" xlink:href="#DejaVuSans-50"/>
      <use transform="translate(697.119141 0.125)" xlink:href="#DejaVuSans-56"/>
      <use transform="translate(760.742188 0.125)" xlink:href="#DejaVuSans-47"/>
      <use transform="translate(794.433594 0.125)" xlink:href="#DejaVuSans-53"/>
      <use transform="translate(858.056641 0.125)" xlink:href="#DejaVuSans-49"/>
      <use transform="translate(921.679688 0.125)" xlink:href="#DejaVuSans-50"/>
      <use transform="translate(985.302734 0.125)" xlink:href="#DejaVuSans-120"/>
      <use transform="translate(1044.482422 0.125)" xlink:href="#DejaVuSans-53"/>
      <use transform="translate(1108.105469 0.125)" xlink:href="#DejaVuSans-49"/>
      <use transform="translate(1171.728516 0.125)" xlink:href="#DejaVuSans-50"/>
      <use transform="translate(1235.351562 0.125)" xlink:href="#DejaVuSans-32"/>
      <use transform="translate(1267.138672 0.125)" xlink:href="#DejaVuSans-45"/>
      <use transform="translate(1303.222656 0.125)" xlink:href="#DejaVuSans-32"/>
      <use transform="translate(1335.009766 0.125)" xlink:href="#DejaVuSans-82"/>
      <use transform="translate(1404.492188 0.125)" xlink:href="#DejaVuSans-79"/>
      <use transform="translate(1483.203125 0.125)" xlink:href="#DejaVuSans-67"/>
      <use transform="translate(1553.027344 0.125)" xlink:href="#DejaVuSans-32"/>
      <use transform="translate(1584.814453 0.125)" xlink:href="#DejaVuSans-40"/>
      <use transform="translate(1623.828125 0.125)" xlink:href="#DejaVuSans-65"/>
      <use transform="translate(1692.236328 0.125)" xlink:href="#DejaVuSans-85"/>
      <use transform="translate(1765.429688 0.125)" xlink:href="#DejaVuSans-67"/>
      <use transform="translate(1835.253906 0.125)" xlink:href="#DejaVuSans-32"/>
      <use transform="translate(1867.041016 0.125)" xlink:href="#DejaVuSans-61"/>
      <use transform="translate(1950.830078 0.125)" xlink:href="#DejaVuSans-32"/>
      <use transform="translate(1982.617188 0.125)" xlink:href="#DejaVuSans-48"/>
      <use transform="translate(2046.240234 0.125)" xlink:href="#DejaVuSans-46"/>
      <use transform="translate(2078.027344 0.125)" xlink:href="#DejaVuSans-57"/>
      <use transform="translate(2141.650391 0.125)" xlink:href="#DejaVuSans-54"/>
      <use transform="translate(2205.273438 0.125)" xlink:href="#DejaVuSans-56"/>
      <use transform="translate(2268.896484 0.125)" xlink:href="#DejaVuSans-32"/>
      <use transform="translate(2300.683594 0.125)" xlink:href="#DejaVuSans-177"/>
      <use transform="translate(2384.472656 0.125)" xlink:href="#DejaVuSans-32"/>
      <use transform="translate(2416.259766 0.125)" xlink:href="#DejaVuSans-48"/>
      <use transform="translate(2479.882812 0.125)" xlink:href="#DejaVuSans-46"/>
      <use transform="translate(2511.669922 0.125)" xlink:href="#DejaVuSans-48"/>
      <use transform="translate(2575.292969 0.125)" xlink:href="#DejaVuSans-51"/>
      <use transform="translate(2638.916016 0.125)" xlink:href="#DejaVuSans-57"/>
      <use transform="translate(2702.539062 0.125)" xlink:href="#DejaVuSans-41"/>
     </g>
    </g>
    <g id="line2d_42">
     <path d="M 182 354.942188 
L 202 354.942188 
" style="fill:none;stroke:#0000ff;stroke-linecap:square;stroke-width:2;"/>
    </g>
    <g id="line2d_43"/>
    <g id="text_20">
     <!-- BCNN 256x256/512x512 - ROC (AUC = 0.985 $\pm$ 0.011) -->
     <g transform="translate(210 358.442188)scale(0.1 -0.1)">
      <use transform="translate(0 0.125)" xlink:href="#DejaVuSans-66"/>
      <use transform="translate(68.603516 0.125)" xlink:href="#DejaVuSans-67"/>
      <use transform="translate(138.427734 0.125)" xlink:href="#DejaVuSans-78"/>
      <use transform="translate(213.232422 0.125)" xlink:href="#DejaVuSans-78"/>
      <use transform="translate(288.037109 0.125)" xlink:href="#DejaVuSans-32"/>
      <use transform="translate(319.824219 0.125)" xlink:href="#DejaVuSans-50"/>
      <use transform="translate(383.447266 0.125)" xlink:href="#DejaVuSans-53"/>
      <use transform="translate(447.070312 0.125)" xlink:href="#DejaVuSans-54"/>
      <use transform="translate(510.693359 0.125)" xlink:href="#DejaVuSans-120"/>
      <use transform="translate(569.873047 0.125)" xlink:href="#DejaVuSans-50"/>
      <use transform="translate(633.496094 0.125)" xlink:href="#DejaVuSans-53"/>
      <use transform="translate(697.119141 0.125)" xlink:href="#DejaVuSans-54"/>
      <use transform="translate(760.742188 0.125)" xlink:href="#DejaVuSans-47"/>
      <use transform="translate(794.433594 0.125)" xlink:href="#DejaVuSans-53"/>
      <use transform="translate(858.056641 0.125)" xlink:href="#DejaVuSans-49"/>
      <use transform="translate(921.679688 0.125)" xlink:href="#DejaVuSans-50"/>
      <use transform="translate(985.302734 0.125)" xlink:href="#DejaVuSans-120"/>
      <use transform="translate(1044.482422 0.125)" xlink:href="#DejaVuSans-53"/>
      <use transform="translate(1108.105469 0.125)" xlink:href="#DejaVuSans-49"/>
      <use transform="translate(1171.728516 0.125)" xlink:href="#DejaVuSans-50"/>
      <use transform="translate(1235.351562 0.125)" xlink:href="#DejaVuSans-32"/>
      <use transform="translate(1267.138672 0.125)" xlink:href="#DejaVuSans-45"/>
      <use transform="translate(1303.222656 0.125)" xlink:href="#DejaVuSans-32"/>
      <use transform="translate(1335.009766 0.125)" xlink:href="#DejaVuSans-82"/>
      <use transform="translate(1404.492188 0.125)" xlink:href="#DejaVuSans-79"/>
      <use transform="translate(1483.203125 0.125)" xlink:href="#DejaVuSans-67"/>
      <use transform="translate(1553.027344 0.125)" xlink:href="#DejaVuSans-32"/>
      <use transform="translate(1584.814453 0.125)" xlink:href="#DejaVuSans-40"/>
      <use transform="translate(1623.828125 0.125)" xlink:href="#DejaVuSans-65"/>
      <use transform="translate(1692.236328 0.125)" xlink:href="#DejaVuSans-85"/>
      <use transform="translate(1765.429688 0.125)" xlink:href="#DejaVuSans-67"/>
      <use transform="translate(1835.253906 0.125)" xlink:href="#DejaVuSans-32"/>
      <use transform="translate(1867.041016 0.125)" xlink:href="#DejaVuSans-61"/>
      <use transform="translate(1950.830078 0.125)" xlink:href="#DejaVuSans-32"/>
      <use transform="translate(1982.617188 0.125)" xlink:href="#DejaVuSans-48"/>
      <use transform="translate(2046.240234 0.125)" xlink:href="#DejaVuSans-46"/>
      <use transform="translate(2078.027344 0.125)" xlink:href="#DejaVuSans-57"/>
      <use transform="translate(2141.650391 0.125)" xlink:href="#DejaVuSans-56"/>
      <use transform="translate(2205.273438 0.125)" xlink:href="#DejaVuSans-53"/>
      <use transform="translate(2268.896484 0.125)" xlink:href="#DejaVuSans-32"/>
      <use transform="translate(2300.683594 0.125)" xlink:href="#DejaVuSans-177"/>
      <use transform="translate(2384.472656 0.125)" xlink:href="#DejaVuSans-32"/>
      <use transform="translate(2416.259766 0.125)" xlink:href="#DejaVuSans-48"/>
      <use transform="translate(2479.882812 0.125)" xlink:href="#DejaVuSans-46"/>
      <use transform="translate(2511.669922 0.125)" xlink:href="#DejaVuSans-48"/>
      <use transform="translate(2575.292969 0.125)" xlink:href="#DejaVuSans-49"/>
      <use transform="translate(2638.916016 0.125)" xlink:href="#DejaVuSans-49"/>
      <use transform="translate(2702.539062 0.125)" xlink:href="#DejaVuSans-41"/>
     </g>
    </g>
    <g id="line2d_44">
     <path d="M 182 369.620313 
L 202 369.620313 
" style="fill:none;stroke:#ff0000;stroke-dasharray:7.4,3.2;stroke-dashoffset:0;stroke-opacity:0.8;stroke-width:2;"/>
    </g>
    <g id="line2d_45"/>
    <g id="text_21">
     <!-- Chance -->
     <defs>
      <path d="M 54.890625 33.015625 
L 54.890625 0 
L 45.90625 0 
L 45.90625 32.71875 
Q 45.90625 40.484375 42.875 44.328125 
Q 39.84375 48.1875 33.796875 48.1875 
Q 26.515625 48.1875 22.3125 43.546875 
Q 18.109375 38.921875 18.109375 30.90625 
L 18.109375 0 
L 9.078125 0 
L 9.078125 75.984375 
L 18.109375 75.984375 
L 18.109375 46.1875 
Q 21.34375 51.125 25.703125 53.5625 
Q 30.078125 56 35.796875 56 
Q 45.21875 56 50.046875 50.171875 
Q 54.890625 44.34375 54.890625 33.015625 
z
" id="DejaVuSans-104"/>
      <path d="M 34.28125 27.484375 
Q 23.390625 27.484375 19.1875 25 
Q 14.984375 22.515625 14.984375 16.5 
Q 14.984375 11.71875 18.140625 8.90625 
Q 21.296875 6.109375 26.703125 6.109375 
Q 34.1875 6.109375 38.703125 11.40625 
Q 43.21875 16.703125 43.21875 25.484375 
L 43.21875 27.484375 
z
M 52.203125 31.203125 
L 52.203125 0 
L 43.21875 0 
L 43.21875 8.296875 
Q 40.140625 3.328125 35.546875 0.953125 
Q 30.953125 -1.421875 24.3125 -1.421875 
Q 15.921875 -1.421875 10.953125 3.296875 
Q 6 8.015625 6 15.921875 
Q 6 25.140625 12.171875 29.828125 
Q 18.359375 34.515625 30.609375 34.515625 
L 43.21875 34.515625 
L 43.21875 35.40625 
Q 43.21875 41.609375 39.140625 45 
Q 35.0625 48.390625 27.6875 48.390625 
Q 23 48.390625 18.546875 47.265625 
Q 14.109375 46.140625 10.015625 43.890625 
L 10.015625 52.203125 
Q 14.9375 54.109375 19.578125 55.046875 
Q 24.21875 56 28.609375 56 
Q 40.484375 56 46.34375 49.84375 
Q 52.203125 43.703125 52.203125 31.203125 
z
" id="DejaVuSans-97"/>
      <path d="M 54.890625 33.015625 
L 54.890625 0 
L 45.90625 0 
L 45.90625 32.71875 
Q 45.90625 40.484375 42.875 44.328125 
Q 39.84375 48.1875 33.796875 48.1875 
Q 26.515625 48.1875 22.3125 43.546875 
Q 18.109375 38.921875 18.109375 30.90625 
L 18.109375 0 
L 9.078125 0 
L 9.078125 54.6875 
L 18.109375 54.6875 
L 18.109375 46.1875 
Q 21.34375 51.125 25.703125 53.5625 
Q 30.078125 56 35.796875 56 
Q 45.21875 56 50.046875 50.171875 
Q 54.890625 44.34375 54.890625 33.015625 
z
" id="DejaVuSans-110"/>
      <path d="M 48.78125 52.59375 
L 48.78125 44.1875 
Q 44.96875 46.296875 41.140625 47.34375 
Q 37.3125 48.390625 33.40625 48.390625 
Q 24.65625 48.390625 19.8125 42.84375 
Q 14.984375 37.3125 14.984375 27.296875 
Q 14.984375 17.28125 19.8125 11.734375 
Q 24.65625 6.203125 33.40625 6.203125 
Q 37.3125 6.203125 41.140625 7.25 
Q 44.96875 8.296875 48.78125 10.40625 
L 48.78125 2.09375 
Q 45.015625 0.34375 40.984375 -0.53125 
Q 36.96875 -1.421875 32.421875 -1.421875 
Q 20.0625 -1.421875 12.78125 6.34375 
Q 5.515625 14.109375 5.515625 27.296875 
Q 5.515625 40.671875 12.859375 48.328125 
Q 20.21875 56 33.015625 56 
Q 37.15625 56 41.109375 55.140625 
Q 45.0625 54.296875 48.78125 52.59375 
z
" id="DejaVuSans-99"/>
      <path d="M 56.203125 29.59375 
L 56.203125 25.203125 
L 14.890625 25.203125 
Q 15.484375 15.921875 20.484375 11.0625 
Q 25.484375 6.203125 34.421875 6.203125 
Q 39.59375 6.203125 44.453125 7.46875 
Q 49.3125 8.734375 54.109375 11.28125 
L 54.109375 2.78125 
Q 49.265625 0.734375 44.1875 -0.34375 
Q 39.109375 -1.421875 33.890625 -1.421875 
Q 20.796875 -1.421875 13.15625 6.1875 
Q 5.515625 13.8125 5.515625 26.8125 
Q 5.515625 40.234375 12.765625 48.109375 
Q 20.015625 56 32.328125 56 
Q 43.359375 56 49.78125 48.890625 
Q 56.203125 41.796875 56.203125 29.59375 
z
M 47.21875 32.234375 
Q 47.125 39.59375 43.09375 43.984375 
Q 39.0625 48.390625 32.421875 48.390625 
Q 24.90625 48.390625 20.390625 44.140625 
Q 15.875 39.890625 15.1875 32.171875 
z
" id="DejaVuSans-101"/>
     </defs>
     <g transform="translate(210 373.120313)scale(0.1 -0.1)">
      <use xlink:href="#DejaVuSans-67"/>
      <use x="69.824219" xlink:href="#DejaVuSans-104"/>
      <use x="133.203125" xlink:href="#DejaVuSans-97"/>
      <use x="194.482422" xlink:href="#DejaVuSans-110"/>
      <use x="257.861328" xlink:href="#DejaVuSans-99"/>
      <use x="312.841797" xlink:href="#DejaVuSans-101"/>
     </g>
    </g>
   </g>
  </g>
 </g>
 <defs>
  <clipPath id="pbd38dea4c9">
   <rect height="373.4" width="439.4" x="53.8" y="10.8"/>
  </clipPath>
 </defs>
</svg>
