<?xml version="1.0" encoding="utf-8" standalone="no"?>
<!DOCTYPE svg PUBLIC "-//W3C//DTD SVG 1.1//EN"
  "http://www.w3.org/Graphics/SVG/1.1/DTD/svg11.dtd">
<!-- Created with matplotlib (https://matplotlib.org/) -->
<svg height="432pt" version="1.1" viewBox="0 0 504 432" width="504pt" xmlns="http://www.w3.org/2000/svg" xmlns:xlink="http://www.w3.org/1999/xlink">
 <defs>
  <style type="text/css">
*{stroke-linecap:butt;stroke-linejoin:round;white-space:pre;}
  </style>
 </defs>
 <g id="figure_1">
  <g id="patch_1">
   <path d="M 0 432 
L 504 432 
L 504 0 
L 0 0 
z
" style="fill:#ffffff;"/>
  </g>
  <g id="axes_1">
   <g id="patch_2">
    <path d="M 53.8 384.2 
L 493.2 384.2 
L 493.2 10.8 
L 53.8 10.8 
z
" style="fill:#ffffff;"/>
   </g>
   <g id="matplotlib.axis_1">
    <g id="xtick_1">
     <g id="line2d_1">
      <path clip-path="url(#p60d0f96990)" d="M 73.772727 384.2 
L 73.772727 10.8 
" style="fill:none;stroke:#b0b0b0;stroke-dasharray:2.96,1.28;stroke-dashoffset:0;stroke-width:0.8;"/>
     </g>
     <g id="line2d_2">
      <defs>
       <path d="M 0 0 
L 0 3.5 
" id="m60464242a4" style="stroke:#000000;stroke-width:0.8;"/>
      </defs>
      <g>
       <use style="stroke:#000000;stroke-width:0.8;" x="73.772727" xlink:href="#m60464242a4" y="384.2"/>
      </g>
     </g>
     <g id="text_1">
      <!-- 0.0 -->
      <defs>
       <path d="M 31.78125 66.40625 
Q 24.171875 66.40625 20.328125 58.90625 
Q 16.5 51.421875 16.5 36.375 
Q 16.5 21.390625 20.328125 13.890625 
Q 24.171875 6.390625 31.78125 6.390625 
Q 39.453125 6.390625 43.28125 13.890625 
Q 47.125 21.390625 47.125 36.375 
Q 47.125 51.421875 43.28125 58.90625 
Q 39.453125 66.40625 31.78125 66.40625 
z
M 31.78125 74.21875 
Q 44.046875 74.21875 50.515625 64.515625 
Q 56.984375 54.828125 56.984375 36.375 
Q 56.984375 17.96875 50.515625 8.265625 
Q 44.046875 -1.421875 31.78125 -1.421875 
Q 19.53125 -1.421875 13.0625 8.265625 
Q 6.59375 17.96875 6.59375 36.375 
Q 6.59375 54.828125 13.0625 64.515625 
Q 19.53125 74.21875 31.78125 74.21875 
z
" id="DejaVuSans-48"/>
       <path d="M 10.6875 12.40625 
L 21 12.40625 
L 21 0 
L 10.6875 0 
z
" id="DejaVuSans-46"/>
      </defs>
      <g transform="translate(64.230852 400.318125)scale(0.12 -0.12)">
       <use xlink:href="#DejaVuSans-48"/>
       <use x="63.623047" xlink:href="#DejaVuSans-46"/>
       <use x="95.410156" xlink:href="#DejaVuSans-48"/>
      </g>
     </g>
    </g>
    <g id="xtick_2">
     <g id="line2d_3">
      <path clip-path="url(#p60d0f96990)" d="M 153.663636 384.2 
L 153.663636 10.8 
" style="fill:none;stroke:#b0b0b0;stroke-dasharray:2.96,1.28;stroke-dashoffset:0;stroke-width:0.8;"/>
     </g>
     <g id="line2d_4">
      <g>
       <use style="stroke:#000000;stroke-width:0.8;" x="153.663636" xlink:href="#m60464242a4" y="384.2"/>
      </g>
     </g>
     <g id="text_2">
      <!-- 0.2 -->
      <defs>
       <path d="M 19.1875 8.296875 
L 53.609375 8.296875 
L 53.609375 0 
L 7.328125 0 
L 7.328125 8.296875 
Q 12.9375 14.109375 22.625 23.890625 
Q 32.328125 33.6875 34.8125 36.53125 
Q 39.546875 41.84375 41.421875 45.53125 
Q 43.3125 49.21875 43.3125 52.78125 
Q 43.3125 58.59375 39.234375 62.25 
Q 35.15625 65.921875 28.609375 65.921875 
Q 23.96875 65.921875 18.8125 64.3125 
Q 13.671875 62.703125 7.8125 59.421875 
L 7.8125 69.390625 
Q 13.765625 71.78125 18.9375 73 
Q 24.125 74.21875 28.421875 74.21875 
Q 39.75 74.21875 46.484375 68.546875 
Q 53.21875 62.890625 53.21875 53.421875 
Q 53.21875 48.921875 51.53125 44.890625 
Q 49.859375 40.875 45.40625 35.40625 
Q 44.1875 33.984375 37.640625 27.21875 
Q 31.109375 20.453125 19.1875 8.296875 
z
" id="DejaVuSans-50"/>
      </defs>
      <g transform="translate(144.121761 400.318125)scale(0.12 -0.12)">
       <use xlink:href="#DejaVuSans-48"/>
       <use x="63.623047" xlink:href="#DejaVuSans-46"/>
       <use x="95.410156" xlink:href="#DejaVuSans-50"/>
      </g>
     </g>
    </g>
    <g id="xtick_3">
     <g id="line2d_5">
      <path clip-path="url(#p60d0f96990)" d="M 233.554545 384.2 
L 233.554545 10.8 
" style="fill:none;stroke:#b0b0b0;stroke-dasharray:2.96,1.28;stroke-dashoffset:0;stroke-width:0.8;"/>
     </g>
     <g id="line2d_6">
      <g>
       <use style="stroke:#000000;stroke-width:0.8;" x="233.554545" xlink:href="#m60464242a4" y="384.2"/>
      </g>
     </g>
     <g id="text_3">
      <!-- 0.4 -->
      <defs>
       <path d="M 37.796875 64.3125 
L 12.890625 25.390625 
L 37.796875 25.390625 
z
M 35.203125 72.90625 
L 47.609375 72.90625 
L 47.609375 25.390625 
L 58.015625 25.390625 
L 58.015625 17.1875 
L 47.609375 17.1875 
L 47.609375 0 
L 37.796875 0 
L 37.796875 17.1875 
L 4.890625 17.1875 
L 4.890625 26.703125 
z
" id="DejaVuSans-52"/>
      </defs>
      <g transform="translate(224.01267 400.318125)scale(0.12 -0.12)">
       <use xlink:href="#DejaVuSans-48"/>
       <use x="63.623047" xlink:href="#DejaVuSans-46"/>
       <use x="95.410156" xlink:href="#DejaVuSans-52"/>
      </g>
     </g>
    </g>
    <g id="xtick_4">
     <g id="line2d_7">
      <path clip-path="url(#p60d0f96990)" d="M 313.445455 384.2 
L 313.445455 10.8 
" style="fill:none;stroke:#b0b0b0;stroke-dasharray:2.96,1.28;stroke-dashoffset:0;stroke-width:0.8;"/>
     </g>
     <g id="line2d_8">
      <g>
       <use style="stroke:#000000;stroke-width:0.8;" x="313.445455" xlink:href="#m60464242a4" y="384.2"/>
      </g>
     </g>
     <g id="text_4">
      <!-- 0.6 -->
      <defs>
       <path d="M 33.015625 40.375 
Q 26.375 40.375 22.484375 35.828125 
Q 18.609375 31.296875 18.609375 23.390625 
Q 18.609375 15.53125 22.484375 10.953125 
Q 26.375 6.390625 33.015625 6.390625 
Q 39.65625 6.390625 43.53125 10.953125 
Q 47.40625 15.53125 47.40625 23.390625 
Q 47.40625 31.296875 43.53125 35.828125 
Q 39.65625 40.375 33.015625 40.375 
z
M 52.59375 71.296875 
L 52.59375 62.3125 
Q 48.875 64.0625 45.09375 64.984375 
Q 41.3125 65.921875 37.59375 65.921875 
Q 27.828125 65.921875 22.671875 59.328125 
Q 17.53125 52.734375 16.796875 39.40625 
Q 19.671875 43.65625 24.015625 45.921875 
Q 28.375 48.1875 33.59375 48.1875 
Q 44.578125 48.1875 50.953125 41.515625 
Q 57.328125 34.859375 57.328125 23.390625 
Q 57.328125 12.15625 50.6875 5.359375 
Q 44.046875 -1.421875 33.015625 -1.421875 
Q 20.359375 -1.421875 13.671875 8.265625 
Q 6.984375 17.96875 6.984375 36.375 
Q 6.984375 53.65625 15.1875 63.9375 
Q 23.390625 74.21875 37.203125 74.21875 
Q 40.921875 74.21875 44.703125 73.484375 
Q 48.484375 72.75 52.59375 71.296875 
z
" id="DejaVuSans-54"/>
      </defs>
      <g transform="translate(303.90358 400.318125)scale(0.12 -0.12)">
       <use xlink:href="#DejaVuSans-48"/>
       <use x="63.623047" xlink:href="#DejaVuSans-46"/>
       <use x="95.410156" xlink:href="#DejaVuSans-54"/>
      </g>
     </g>
    </g>
    <g id="xtick_5">
     <g id="line2d_9">
      <path clip-path="url(#p60d0f96990)" d="M 393.336364 384.2 
L 393.336364 10.8 
" style="fill:none;stroke:#b0b0b0;stroke-dasharray:2.96,1.28;stroke-dashoffset:0;stroke-width:0.8;"/>
     </g>
     <g id="line2d_10">
      <g>
       <use style="stroke:#000000;stroke-width:0.8;" x="393.336364" xlink:href="#m60464242a4" y="384.2"/>
      </g>
     </g>
     <g id="text_5">
      <!-- 0.8 -->
      <defs>
       <path d="M 31.78125 34.625 
Q 24.75 34.625 20.71875 30.859375 
Q 16.703125 27.09375 16.703125 20.515625 
Q 16.703125 13.921875 20.71875 10.15625 
Q 24.75 6.390625 31.78125 6.390625 
Q 38.8125 6.390625 42.859375 10.171875 
Q 46.921875 13.96875 46.921875 20.515625 
Q 46.921875 27.09375 42.890625 30.859375 
Q 38.875 34.625 31.78125 34.625 
z
M 21.921875 38.8125 
Q 15.578125 40.375 12.03125 44.71875 
Q 8.5 49.078125 8.5 55.328125 
Q 8.5 64.0625 14.71875 69.140625 
Q 20.953125 74.21875 31.78125 74.21875 
Q 42.671875 74.21875 48.875 69.140625 
Q 55.078125 64.0625 55.078125 55.328125 
Q 55.078125 49.078125 51.53125 44.71875 
Q 48 40.375 41.703125 38.8125 
Q 48.828125 37.15625 52.796875 32.3125 
Q 56.78125 27.484375 56.78125 20.515625 
Q 56.78125 9.90625 50.3125 4.234375 
Q 43.84375 -1.421875 31.78125 -1.421875 
Q 19.734375 -1.421875 13.25 4.234375 
Q 6.78125 9.90625 6.78125 20.515625 
Q 6.78125 27.484375 10.78125 32.3125 
Q 14.796875 37.15625 21.921875 38.8125 
z
M 18.3125 54.390625 
Q 18.3125 48.734375 21.84375 45.5625 
Q 25.390625 42.390625 31.78125 42.390625 
Q 38.140625 42.390625 41.71875 45.5625 
Q 45.3125 48.734375 45.3125 54.390625 
Q 45.3125 60.0625 41.71875 63.234375 
Q 38.140625 66.40625 31.78125 66.40625 
Q 25.390625 66.40625 21.84375 63.234375 
Q 18.3125 60.0625 18.3125 54.390625 
z
" id="DejaVuSans-56"/>
      </defs>
      <g transform="translate(383.794489 400.318125)scale(0.12 -0.12)">
       <use xlink:href="#DejaVuSans-48"/>
       <use x="63.623047" xlink:href="#DejaVuSans-46"/>
       <use x="95.410156" xlink:href="#DejaVuSans-56"/>
      </g>
     </g>
    </g>
    <g id="xtick_6">
     <g id="line2d_11">
      <path clip-path="url(#p60d0f96990)" d="M 473.227273 384.2 
L 473.227273 10.8 
" style="fill:none;stroke:#b0b0b0;stroke-dasharray:2.96,1.28;stroke-dashoffset:0;stroke-width:0.8;"/>
     </g>
     <g id="line2d_12">
      <g>
       <use style="stroke:#000000;stroke-width:0.8;" x="473.227273" xlink:href="#m60464242a4" y="384.2"/>
      </g>
     </g>
     <g id="text_6">
      <!-- 1.0 -->
      <defs>
       <path d="M 12.40625 8.296875 
L 28.515625 8.296875 
L 28.515625 63.921875 
L 10.984375 60.40625 
L 10.984375 69.390625 
L 28.421875 72.90625 
L 38.28125 72.90625 
L 38.28125 8.296875 
L 54.390625 8.296875 
L 54.390625 0 
L 12.40625 0 
z
" id="DejaVuSans-49"/>
      </defs>
      <g transform="translate(463.685398 400.318125)scale(0.12 -0.12)">
       <use xlink:href="#DejaVuSans-49"/>
       <use x="63.623047" xlink:href="#DejaVuSans-46"/>
       <use x="95.410156" xlink:href="#DejaVuSans-48"/>
      </g>
     </g>
    </g>
    <g id="text_7">
     <!-- False Positive Rate -->
     <defs>
      <path d="M 9.1875 72.90625 
L 59.90625 72.90625 
L 59.90625 58.6875 
L 27.984375 58.6875 
L 27.984375 45.125 
L 58.015625 45.125 
L 58.015625 30.90625 
L 27.984375 30.90625 
L 27.984375 0 
L 9.1875 0 
z
" id="DejaVuSans-Bold-70"/>
      <path d="M 32.90625 24.609375 
Q 27.4375 24.609375 24.671875 22.75 
Q 21.921875 20.90625 21.921875 17.28125 
Q 21.921875 13.96875 24.140625 12.078125 
Q 26.375 10.203125 30.328125 10.203125 
Q 35.25 10.203125 38.625 13.734375 
Q 42 17.28125 42 22.609375 
L 42 24.609375 
z
M 59.625 31.203125 
L 59.625 0 
L 42 0 
L 42 8.109375 
Q 38.484375 3.125 34.078125 0.84375 
Q 29.6875 -1.421875 23.390625 -1.421875 
Q 14.890625 -1.421875 9.59375 3.53125 
Q 4.296875 8.5 4.296875 16.40625 
Q 4.296875 26.03125 10.90625 30.515625 
Q 17.53125 35.015625 31.6875 35.015625 
L 42 35.015625 
L 42 36.375 
Q 42 40.53125 38.71875 42.453125 
Q 35.453125 44.390625 28.515625 44.390625 
Q 22.90625 44.390625 18.0625 43.265625 
Q 13.234375 42.140625 9.078125 39.890625 
L 9.078125 53.21875 
Q 14.703125 54.59375 20.359375 55.296875 
Q 26.03125 56 31.6875 56 
Q 46.484375 56 53.046875 50.171875 
Q 59.625 44.34375 59.625 31.203125 
z
" id="DejaVuSans-Bold-97"/>
      <path d="M 8.40625 75.984375 
L 25.875 75.984375 
L 25.875 0 
L 8.40625 0 
z
" id="DejaVuSans-Bold-108"/>
      <path d="M 51.125 52.984375 
L 51.125 39.703125 
Q 45.515625 42.046875 40.28125 43.21875 
Q 35.0625 44.390625 30.421875 44.390625 
Q 25.4375 44.390625 23.015625 43.140625 
Q 20.609375 41.890625 20.609375 39.3125 
Q 20.609375 37.203125 22.4375 36.078125 
Q 24.265625 34.96875 29 34.421875 
L 32.078125 33.984375 
Q 45.515625 32.28125 50.140625 28.375 
Q 54.78125 24.46875 54.78125 16.109375 
Q 54.78125 7.375 48.328125 2.96875 
Q 41.890625 -1.421875 29.109375 -1.421875 
Q 23.6875 -1.421875 17.890625 -0.5625 
Q 12.109375 0.296875 6 2 
L 6 15.28125 
Q 11.234375 12.75 16.71875 11.46875 
Q 22.21875 10.203125 27.875 10.203125 
Q 33.015625 10.203125 35.59375 11.609375 
Q 38.1875 13.03125 38.1875 15.828125 
Q 38.1875 18.171875 36.40625 19.3125 
Q 34.625 20.453125 29.296875 21.09375 
L 26.21875 21.484375 
Q 14.546875 22.953125 9.859375 26.90625 
Q 5.171875 30.859375 5.171875 38.921875 
Q 5.171875 47.609375 11.125 51.796875 
Q 17.09375 56 29.390625 56 
Q 34.234375 56 39.546875 55.265625 
Q 44.875 54.546875 51.125 52.984375 
z
" id="DejaVuSans-Bold-115"/>
      <path d="M 62.984375 27.484375 
L 62.984375 22.515625 
L 22.125 22.515625 
Q 22.75 16.359375 26.5625 13.28125 
Q 30.375 10.203125 37.203125 10.203125 
Q 42.71875 10.203125 48.5 11.84375 
Q 54.296875 13.484375 60.40625 16.796875 
L 60.40625 3.328125 
Q 54.203125 0.984375 48 -0.21875 
Q 41.796875 -1.421875 35.59375 -1.421875 
Q 20.75 -1.421875 12.515625 6.125 
Q 4.296875 13.671875 4.296875 27.296875 
Q 4.296875 40.671875 12.375 48.328125 
Q 20.453125 56 34.625 56 
Q 47.515625 56 55.25 48.234375 
Q 62.984375 40.484375 62.984375 27.484375 
z
M 45.015625 33.296875 
Q 45.015625 38.28125 42.109375 41.328125 
Q 39.203125 44.390625 34.515625 44.390625 
Q 29.4375 44.390625 26.265625 41.53125 
Q 23.09375 38.671875 22.3125 33.296875 
z
" id="DejaVuSans-Bold-101"/>
      <path id="DejaVuSans-Bold-32"/>
      <path d="M 9.1875 72.90625 
L 40.375 72.90625 
Q 54.296875 72.90625 61.734375 66.71875 
Q 69.1875 60.546875 69.1875 49.125 
Q 69.1875 37.640625 61.734375 31.46875 
Q 54.296875 25.296875 40.375 25.296875 
L 27.984375 25.296875 
L 27.984375 0 
L 9.1875 0 
z
M 27.984375 59.28125 
L 27.984375 38.921875 
L 38.375 38.921875 
Q 43.84375 38.921875 46.828125 41.578125 
Q 49.8125 44.234375 49.8125 49.125 
Q 49.8125 54 46.828125 56.640625 
Q 43.84375 59.28125 38.375 59.28125 
z
" id="DejaVuSans-Bold-80"/>
      <path d="M 34.421875 43.5 
Q 28.609375 43.5 25.5625 39.328125 
Q 22.515625 35.15625 22.515625 27.296875 
Q 22.515625 19.4375 25.5625 15.25 
Q 28.609375 11.078125 34.421875 11.078125 
Q 40.140625 11.078125 43.15625 15.25 
Q 46.1875 19.4375 46.1875 27.296875 
Q 46.1875 35.15625 43.15625 39.328125 
Q 40.140625 43.5 34.421875 43.5 
z
M 34.421875 56 
Q 48.53125 56 56.46875 48.375 
Q 64.40625 40.765625 64.40625 27.296875 
Q 64.40625 13.8125 56.46875 6.1875 
Q 48.53125 -1.421875 34.421875 -1.421875 
Q 20.265625 -1.421875 12.28125 6.1875 
Q 4.296875 13.8125 4.296875 27.296875 
Q 4.296875 40.765625 12.28125 48.375 
Q 20.265625 56 34.421875 56 
z
" id="DejaVuSans-Bold-111"/>
      <path d="M 8.40625 54.6875 
L 25.875 54.6875 
L 25.875 0 
L 8.40625 0 
z
M 8.40625 75.984375 
L 25.875 75.984375 
L 25.875 61.71875 
L 8.40625 61.71875 
z
" id="DejaVuSans-Bold-105"/>
      <path d="M 27.484375 70.21875 
L 27.484375 54.6875 
L 45.515625 54.6875 
L 45.515625 42.1875 
L 27.484375 42.1875 
L 27.484375 19 
Q 27.484375 15.1875 29 13.84375 
Q 30.515625 12.5 35.015625 12.5 
L 44 12.5 
L 44 0 
L 29 0 
Q 18.65625 0 14.328125 4.3125 
Q 10.015625 8.640625 10.015625 19 
L 10.015625 42.1875 
L 1.3125 42.1875 
L 1.3125 54.6875 
L 10.015625 54.6875 
L 10.015625 70.21875 
z
" id="DejaVuSans-Bold-116"/>
      <path d="M 1.515625 54.6875 
L 19 54.6875 
L 32.625 16.890625 
L 46.1875 54.6875 
L 63.71875 54.6875 
L 42.1875 0 
L 23 0 
z
" id="DejaVuSans-Bold-118"/>
      <path d="M 35.890625 40.578125 
Q 41.796875 40.578125 44.359375 42.765625 
Q 46.921875 44.96875 46.921875 50 
Q 46.921875 54.984375 44.359375 57.125 
Q 41.796875 59.28125 35.890625 59.28125 
L 27.984375 59.28125 
L 27.984375 40.578125 
z
M 27.984375 27.59375 
L 27.984375 0 
L 9.1875 0 
L 9.1875 72.90625 
L 37.890625 72.90625 
Q 52.296875 72.90625 59 68.0625 
Q 65.71875 63.234375 65.71875 52.78125 
Q 65.71875 45.5625 62.21875 40.921875 
Q 58.734375 36.28125 51.703125 34.078125 
Q 55.5625 33.203125 58.609375 30.09375 
Q 61.671875 27 64.796875 20.703125 
L 75 0 
L 54.984375 0 
L 46.09375 18.109375 
Q 43.40625 23.578125 40.640625 25.578125 
Q 37.890625 27.59375 33.296875 27.59375 
z
" id="DejaVuSans-Bold-82"/>
     </defs>
     <g transform="translate(208.821875 415.931875)scale(0.12 -0.12)">
      <use xlink:href="#DejaVuSans-Bold-70"/>
      <use x="68.232422" xlink:href="#DejaVuSans-Bold-97"/>
      <use x="135.712891" xlink:href="#DejaVuSans-Bold-108"/>
      <use x="169.990234" xlink:href="#DejaVuSans-Bold-115"/>
      <use x="229.511719" xlink:href="#DejaVuSans-Bold-101"/>
      <use x="297.333984" xlink:href="#DejaVuSans-Bold-32"/>
      <use x="332.148438" xlink:href="#DejaVuSans-Bold-80"/>
      <use x="405.439453" xlink:href="#DejaVuSans-Bold-111"/>
      <use x="474.140625" xlink:href="#DejaVuSans-Bold-115"/>
      <use x="533.662109" xlink:href="#DejaVuSans-Bold-105"/>
      <use x="567.939453" xlink:href="#DejaVuSans-Bold-116"/>
      <use x="615.742188" xlink:href="#DejaVuSans-Bold-105"/>
      <use x="650.019531" xlink:href="#DejaVuSans-Bold-118"/>
      <use x="715.205078" xlink:href="#DejaVuSans-Bold-101"/>
      <use x="783.027344" xlink:href="#DejaVuSans-Bold-32"/>
      <use x="817.841797" xlink:href="#DejaVuSans-Bold-82"/>
      <use x="894.84375" xlink:href="#DejaVuSans-Bold-97"/>
      <use x="962.324219" xlink:href="#DejaVuSans-Bold-116"/>
      <use x="1010.126953" xlink:href="#DejaVuSans-Bold-101"/>
     </g>
    </g>
   </g>
   <g id="matplotlib.axis_2">
    <g id="ytick_1">
     <g id="line2d_13">
      <path clip-path="url(#p60d0f96990)" d="M 53.8 367.227273 
L 493.2 367.227273 
" style="fill:none;stroke:#b0b0b0;stroke-dasharray:2.96,1.28;stroke-dashoffset:0;stroke-width:0.8;"/>
     </g>
     <g id="line2d_14">
      <defs>
       <path d="M 0 0 
L -3.5 0 
" id="m87820cf3f2" style="stroke:#000000;stroke-width:0.8;"/>
      </defs>
      <g>
       <use style="stroke:#000000;stroke-width:0.8;" x="53.8" xlink:href="#m87820cf3f2" y="367.227273"/>
      </g>
     </g>
     <g id="text_8">
      <!-- 0.0 -->
      <g transform="translate(27.71625 371.786335)scale(0.12 -0.12)">
       <use xlink:href="#DejaVuSans-48"/>
       <use x="63.623047" xlink:href="#DejaVuSans-46"/>
       <use x="95.410156" xlink:href="#DejaVuSans-48"/>
      </g>
     </g>
    </g>
    <g id="ytick_2">
     <g id="line2d_15">
      <path clip-path="url(#p60d0f96990)" d="M 53.8 299.336364 
L 493.2 299.336364 
" style="fill:none;stroke:#b0b0b0;stroke-dasharray:2.96,1.28;stroke-dashoffset:0;stroke-width:0.8;"/>
     </g>
     <g id="line2d_16">
      <g>
       <use style="stroke:#000000;stroke-width:0.8;" x="53.8" xlink:href="#m87820cf3f2" y="299.336364"/>
      </g>
     </g>
     <g id="text_9">
      <!-- 0.2 -->
      <g transform="translate(27.71625 303.895426)scale(0.12 -0.12)">
       <use xlink:href="#DejaVuSans-48"/>
       <use x="63.623047" xlink:href="#DejaVuSans-46"/>
       <use x="95.410156" xlink:href="#DejaVuSans-50"/>
      </g>
     </g>
    </g>
    <g id="ytick_3">
     <g id="line2d_17">
      <path clip-path="url(#p60d0f96990)" d="M 53.8 231.445455 
L 493.2 231.445455 
" style="fill:none;stroke:#b0b0b0;stroke-dasharray:2.96,1.28;stroke-dashoffset:0;stroke-width:0.8;"/>
     </g>
     <g id="line2d_18">
      <g>
       <use style="stroke:#000000;stroke-width:0.8;" x="53.8" xlink:href="#m87820cf3f2" y="231.445455"/>
      </g>
     </g>
     <g id="text_10">
      <!-- 0.4 -->
      <g transform="translate(27.71625 236.004517)scale(0.12 -0.12)">
       <use xlink:href="#DejaVuSans-48"/>
       <use x="63.623047" xlink:href="#DejaVuSans-46"/>
       <use x="95.410156" xlink:href="#DejaVuSans-52"/>
      </g>
     </g>
    </g>
    <g id="ytick_4">
     <g id="line2d_19">
      <path clip-path="url(#p60d0f96990)" d="M 53.8 163.554545 
L 493.2 163.554545 
" style="fill:none;stroke:#b0b0b0;stroke-dasharray:2.96,1.28;stroke-dashoffset:0;stroke-width:0.8;"/>
     </g>
     <g id="line2d_20">
      <g>
       <use style="stroke:#000000;stroke-width:0.8;" x="53.8" xlink:href="#m87820cf3f2" y="163.554545"/>
      </g>
     </g>
     <g id="text_11">
      <!-- 0.6 -->
      <g transform="translate(27.71625 168.113608)scale(0.12 -0.12)">
       <use xlink:href="#DejaVuSans-48"/>
       <use x="63.623047" xlink:href="#DejaVuSans-46"/>
       <use x="95.410156" xlink:href="#DejaVuSans-54"/>
      </g>
     </g>
    </g>
    <g id="ytick_5">
     <g id="line2d_21">
      <path clip-path="url(#p60d0f96990)" d="M 53.8 95.663636 
L 493.2 95.663636 
" style="fill:none;stroke:#b0b0b0;stroke-dasharray:2.96,1.28;stroke-dashoffset:0;stroke-width:0.8;"/>
     </g>
     <g id="line2d_22">
      <g>
       <use style="stroke:#000000;stroke-width:0.8;" x="53.8" xlink:href="#m87820cf3f2" y="95.663636"/>
      </g>
     </g>
     <g id="text_12">
      <!-- 0.8 -->
      <g transform="translate(27.71625 100.222699)scale(0.12 -0.12)">
       <use xlink:href="#DejaVuSans-48"/>
       <use x="63.623047" xlink:href="#DejaVuSans-46"/>
       <use x="95.410156" xlink:href="#DejaVuSans-56"/>
      </g>
     </g>
    </g>
    <g id="ytick_6">
     <g id="line2d_23">
      <path clip-path="url(#p60d0f96990)" d="M 53.8 27.772727 
L 493.2 27.772727 
" style="fill:none;stroke:#b0b0b0;stroke-dasharray:2.96,1.28;stroke-dashoffset:0;stroke-width:0.8;"/>
     </g>
     <g id="line2d_24">
      <g>
       <use style="stroke:#000000;stroke-width:0.8;" x="53.8" xlink:href="#m87820cf3f2" y="27.772727"/>
      </g>
     </g>
     <g id="text_13">
      <!-- 1.0 -->
      <g transform="translate(27.71625 32.33179)scale(0.12 -0.12)">
       <use xlink:href="#DejaVuSans-49"/>
       <use x="63.623047" xlink:href="#DejaVuSans-46"/>
       <use x="95.410156" xlink:href="#DejaVuSans-48"/>
      </g>
     </g>
    </g>
    <g id="text_14">
     <!-- True Positive Rate -->
     <defs>
      <path d="M 0.484375 72.90625 
L 67.671875 72.90625 
L 67.671875 58.6875 
L 43.5 58.6875 
L 43.5 0 
L 24.703125 0 
L 24.703125 58.6875 
L 0.484375 58.6875 
z
" id="DejaVuSans-Bold-84"/>
      <path d="M 49.03125 39.796875 
Q 46.734375 40.875 44.453125 41.375 
Q 42.1875 41.890625 39.890625 41.890625 
Q 33.15625 41.890625 29.515625 37.5625 
Q 25.875 33.25 25.875 25.203125 
L 25.875 0 
L 8.40625 0 
L 8.40625 54.6875 
L 25.875 54.6875 
L 25.875 45.703125 
Q 29.25 51.078125 33.609375 53.53125 
Q 37.984375 56 44.09375 56 
Q 44.96875 56 45.984375 55.921875 
Q 47.015625 55.859375 48.96875 55.609375 
z
" id="DejaVuSans-Bold-114"/>
      <path d="M 7.8125 21.296875 
L 7.8125 54.6875 
L 25.390625 54.6875 
L 25.390625 49.21875 
Q 25.390625 44.78125 25.34375 38.0625 
Q 25.296875 31.34375 25.296875 29.109375 
Q 25.296875 22.515625 25.640625 19.609375 
Q 25.984375 16.703125 26.8125 15.375 
Q 27.875 13.671875 29.609375 12.734375 
Q 31.34375 11.8125 33.59375 11.8125 
Q 39.0625 11.8125 42.1875 16.015625 
Q 45.3125 20.21875 45.3125 27.6875 
L 45.3125 54.6875 
L 62.796875 54.6875 
L 62.796875 0 
L 45.3125 0 
L 45.3125 7.90625 
Q 41.359375 3.125 36.9375 0.84375 
Q 32.515625 -1.421875 27.203125 -1.421875 
Q 17.71875 -1.421875 12.765625 4.390625 
Q 7.8125 10.203125 7.8125 21.296875 
z
" id="DejaVuSans-Bold-117"/>
     </defs>
     <g transform="translate(21.220625 259.72)rotate(-90)scale(0.12 -0.12)">
      <use xlink:href="#DejaVuSans-Bold-84"/>
      <use x="68.041016" xlink:href="#DejaVuSans-Bold-114"/>
      <use x="117.357422" xlink:href="#DejaVuSans-Bold-117"/>
      <use x="188.548828" xlink:href="#DejaVuSans-Bold-101"/>
      <use x="256.371094" xlink:href="#DejaVuSans-Bold-32"/>
      <use x="291.185547" xlink:href="#DejaVuSans-Bold-80"/>
      <use x="364.476562" xlink:href="#DejaVuSans-Bold-111"/>
      <use x="433.177734" xlink:href="#DejaVuSans-Bold-115"/>
      <use x="492.699219" xlink:href="#DejaVuSans-Bold-105"/>
      <use x="526.976562" xlink:href="#DejaVuSans-Bold-116"/>
      <use x="574.779297" xlink:href="#DejaVuSans-Bold-105"/>
      <use x="609.056641" xlink:href="#DejaVuSans-Bold-118"/>
      <use x="674.242188" xlink:href="#DejaVuSans-Bold-101"/>
      <use x="742.064453" xlink:href="#DejaVuSans-Bold-32"/>
      <use x="776.878906" xlink:href="#DejaVuSans-Bold-82"/>
      <use x="853.880859" xlink:href="#DejaVuSans-Bold-97"/>
      <use x="921.361328" xlink:href="#DejaVuSans-Bold-116"/>
      <use x="969.164062" xlink:href="#DejaVuSans-Bold-101"/>
     </g>
    </g>
   </g>
   <g id="line2d_25">
    <path clip-path="url(#p60d0f96990)" d="M 73.772727 367.227273 
L 77.807622 150.72977 
L 81.842516 102.44916 
L 85.87741 76.516563 
L 89.912305 57.308618 
L 93.947199 53.490627 
L 97.982094 49.911861 
L 102.016988 47.61769 
L 106.051882 46.371677 
L 110.086777 45.065336 
L 114.121671 43.168959 
L 118.156566 41.805786 
L 122.19146 40.91969 
L 126.226354 40.353517 
L 130.261249 38.726548 
L 134.296143 37.840452 
L 138.331038 35.892854 
L 142.365932 35.803051 
L 146.400826 35.803051 
L 150.435721 34.736643 
L 154.470615 34.736643 
L 158.50551 34.029446 
L 162.540404 34.029446 
L 166.575298 33.675848 
L 170.610193 33.642878 
L 174.645087 33.609909 
L 178.679982 33.25631 
L 182.714876 33.25631 
L 186.74977 32.902712 
L 190.784665 32.902712 
L 194.819559 32.195515 
L 198.854454 31.841916 
L 202.889348 31.841916 
L 206.924242 31.488318 
L 210.959137 31.134719 
L 214.994031 31.134719 
L 219.028926 30.073924 
L 223.06382 29.720325 
L 227.098714 29.187121 
L 231.133609 28.833523 
L 235.168503 28.833523 
L 239.203398 28.833523 
L 243.238292 28.833523 
L 247.273186 28.833523 
L 251.308081 28.833523 
L 255.342975 28.833523 
L 259.37787 28.479924 
L 263.412764 28.479924 
L 267.447658 28.479924 
L 271.482553 28.479924 
L 275.517447 28.126326 
L 279.552342 28.126326 
L 283.587236 27.772727 
L 287.62213 27.772727 
L 291.657025 27.772727 
L 295.691919 27.772727 
L 299.726814 27.772727 
L 303.761708 27.772727 
L 307.796602 27.772727 
L 311.831497 27.772727 
L 315.866391 27.772727 
L 319.901286 27.772727 
L 323.93618 27.772727 
L 327.971074 27.772727 
L 332.005969 27.772727 
L 336.040863 27.772727 
L 340.075758 27.772727 
L 344.110652 27.772727 
L 348.145546 27.772727 
L 352.180441 27.772727 
L 356.215335 27.772727 
L 360.25023 27.772727 
L 364.285124 27.772727 
L 368.320018 27.772727 
L 372.354913 27.772727 
L 376.389807 27.772727 
L 380.424702 27.772727 
L 384.459596 27.772727 
L 388.49449 27.772727 
L 392.529385 27.772727 
L 396.564279 27.772727 
L 400.599174 27.772727 
L 404.634068 27.772727 
L 408.668962 27.772727 
L 412.703857 27.772727 
L 416.738751 27.772727 
L 420.773646 27.772727 
L 424.80854 27.772727 
L 428.843434 27.772727 
L 432.878329 27.772727 
L 436.913223 27.772727 
L 440.948118 27.772727 
L 444.983012 27.772727 
L 449.017906 27.772727 
L 453.052801 27.772727 
L 457.087695 27.772727 
L 461.12259 27.772727 
L 465.157484 27.772727 
L 469.192378 27.772727 
L 473.227273 27.772727 
" style="fill:none;stroke:#00ffff;stroke-linecap:square;stroke-width:2;"/>
   </g>
   <g id="line2d_26">
    <path clip-path="url(#p60d0f96990)" d="M 73.772727 367.227273 
L 77.807622 166.684345 
L 81.842516 120.951621 
L 85.87741 108.676551 
L 89.912305 102.88086 
L 93.947199 98.68474 
L 97.982094 92.329113 
L 102.016988 89.174124 
L 106.051882 85.800948 
L 110.086777 81.360342 
L 114.121671 65.210598 
L 118.156566 63.338084 
L 122.19146 61.645176 
L 126.226354 59.691965 
L 130.261249 45.458223 
L 134.296143 44.892049 
L 138.331038 44.005247 
L 142.365932 42.821679 
L 146.400826 42.732583 
L 150.435721 41.581985 
L 154.470615 40.045526 
L 158.50551 39.069628 
L 162.540404 37.91903 
L 166.575298 37.12203 
L 170.610193 36.061234 
L 174.645087 35.707636 
L 178.679982 35.354037 
L 182.714876 34.64684 
L 186.74977 33.586045 
L 190.784665 33.232446 
L 194.819559 32.878848 
L 198.854454 32.878848 
L 202.889348 32.525249 
L 206.924242 32.171651 
L 210.959137 31.785083 
L 214.994031 31.431484 
L 219.028926 31.077886 
L 223.06382 30.634485 
L 227.098714 29.220091 
L 231.133609 29.220091 
L 235.168503 28.833523 
L 239.203398 28.479924 
L 243.238292 28.479924 
L 247.273186 28.126326 
L 251.308081 28.126326 
L 255.342975 28.126326 
L 259.37787 28.126326 
L 263.412764 28.126326 
L 267.447658 28.126326 
L 271.482553 28.126326 
L 275.517447 28.126326 
L 279.552342 28.126326 
L 283.587236 28.126326 
L 287.62213 27.772727 
L 291.657025 27.772727 
L 295.691919 27.772727 
L 299.726814 27.772727 
L 303.761708 27.772727 
L 307.796602 27.772727 
L 311.831497 27.772727 
L 315.866391 27.772727 
L 319.901286 27.772727 
L 323.93618 27.772727 
L 327.971074 27.772727 
L 332.005969 27.772727 
L 336.040863 27.772727 
L 340.075758 27.772727 
L 344.110652 27.772727 
L 348.145546 27.772727 
L 352.180441 27.772727 
L 356.215335 27.772727 
L 360.25023 27.772727 
L 364.285124 27.772727 
L 368.320018 27.772727 
L 372.354913 27.772727 
L 376.389807 27.772727 
L 380.424702 27.772727 
L 384.459596 27.772727 
L 388.49449 27.772727 
L 392.529385 27.772727 
L 396.564279 27.772727 
L 400.599174 27.772727 
L 404.634068 27.772727 
L 408.668962 27.772727 
L 412.703857 27.772727 
L 416.738751 27.772727 
L 420.773646 27.772727 
L 424.80854 27.772727 
L 428.843434 27.772727 
L 432.878329 27.772727 
L 436.913223 27.772727 
L 440.948118 27.772727 
L 444.983012 27.772727 
L 449.017906 27.772727 
L 453.052801 27.772727 
L 457.087695 27.772727 
L 461.12259 27.772727 
L 465.157484 27.772727 
L 469.192378 27.772727 
L 473.227273 27.772727 
" style="fill:none;stroke:#008000;stroke-linecap:square;stroke-width:2;"/>
   </g>
   <g id="line2d_27">
    <path clip-path="url(#p60d0f96990)" d="M 73.772727 367.227273 
L 77.807622 159.685779 
L 81.842516 121.057209 
L 85.87741 106.542604 
L 89.912305 99.942139 
L 93.947199 80.845035 
L 97.982094 78.359328 
L 102.016988 73.736604 
L 106.051882 57.163083 
L 110.086777 52.548444 
L 114.121671 51.397846 
L 118.156566 50.247247 
L 122.19146 49.360445 
L 126.226354 35.12741 
L 130.261249 33.359417 
L 134.296143 33.146842 
L 138.331038 32.967944 
L 142.365932 32.581376 
L 146.400826 31.874179 
L 150.435721 31.874179 
L 154.470615 31.874179 
L 158.50551 31.52058 
L 162.540404 31.166982 
L 166.575298 31.077179 
L 170.610193 30.369982 
L 174.645087 29.662785 
L 178.679982 29.662785 
L 182.714876 29.309186 
L 186.74977 28.601989 
L 190.784665 28.248391 
L 194.819559 28.248391 
L 198.854454 28.248391 
L 202.889348 27.894793 
L 206.924242 27.894793 
L 210.959137 27.894793 
L 214.994031 27.805697 
L 219.028926 27.805697 
L 223.06382 27.805697 
L 227.098714 27.805697 
L 231.133609 27.805697 
L 235.168503 27.805697 
L 239.203398 27.805697 
L 243.238292 27.805697 
L 247.273186 27.805697 
L 251.308081 27.805697 
L 255.342975 27.805697 
L 259.37787 27.805697 
L 263.412764 27.805697 
L 267.447658 27.805697 
L 271.482553 27.805697 
L 275.517447 27.772727 
L 279.552342 27.772727 
L 283.587236 27.772727 
L 287.62213 27.772727 
L 291.657025 27.772727 
L 295.691919 27.772727 
L 299.726814 27.772727 
L 303.761708 27.772727 
L 307.796602 27.772727 
L 311.831497 27.772727 
L 315.866391 27.772727 
L 319.901286 27.772727 
L 323.93618 27.772727 
L 327.971074 27.772727 
L 332.005969 27.772727 
L 336.040863 27.772727 
L 340.075758 27.772727 
L 344.110652 27.772727 
L 348.145546 27.772727 
L 352.180441 27.772727 
L 356.215335 27.772727 
L 360.25023 27.772727 
L 364.285124 27.772727 
L 368.320018 27.772727 
L 372.354913 27.772727 
L 376.389807 27.772727 
L 380.424702 27.772727 
L 384.459596 27.772727 
L 388.49449 27.772727 
L 392.529385 27.772727 
L 396.564279 27.772727 
L 400.599174 27.772727 
L 404.634068 27.772727 
L 408.668962 27.772727 
L 412.703857 27.772727 
L 416.738751 27.772727 
L 420.773646 27.772727 
L 424.80854 27.772727 
L 428.843434 27.772727 
L 432.878329 27.772727 
L 436.913223 27.772727 
L 440.948118 27.772727 
L 444.983012 27.772727 
L 449.017906 27.772727 
L 453.052801 27.772727 
L 457.087695 27.772727 
L 461.12259 27.772727 
L 465.157484 27.772727 
L 469.192378 27.772727 
L 473.227273 27.772727 
" style="fill:none;stroke:#ff8c00;stroke-linecap:square;stroke-width:2;"/>
   </g>
   <g id="line2d_28">
    <path clip-path="url(#p60d0f96990)" d="M 73.772727 367.227273 
L 77.807622 136.390161 
L 81.842516 87.236022 
L 85.87741 65.748313 
L 89.912305 47.665026 
L 93.947199 45.38208 
L 97.982094 40.174618 
L 102.016988 38.250884 
L 106.051882 37.010483 
L 110.086777 35.770082 
L 114.121671 35.147075 
L 118.156566 33.379082 
L 122.19146 32.318287 
L 126.226354 31.521287 
L 130.261249 31.167689 
L 134.296143 30.106893 
L 138.331038 29.753295 
L 142.365932 29.753295 
L 146.400826 29.753295 
L 150.435721 29.753295 
L 154.470615 29.663492 
L 158.50551 29.309894 
L 162.540404 29.309894 
L 166.575298 28.956295 
L 170.610193 28.956295 
L 174.645087 28.602697 
L 178.679982 28.602697 
L 182.714876 28.602697 
L 186.74977 28.602697 
L 190.784665 28.602697 
L 194.819559 28.602697 
L 198.854454 28.602697 
L 202.889348 28.602697 
L 206.924242 28.602697 
L 210.959137 28.249098 
L 214.994031 28.249098 
L 219.028926 27.8955 
L 223.06382 27.8955 
L 227.098714 27.8955 
L 231.133609 27.8955 
L 235.168503 27.8955 
L 239.203398 27.8955 
L 243.238292 27.8955 
L 247.273186 27.8955 
L 251.308081 27.8955 
L 255.342975 27.8955 
L 259.37787 27.8955 
L 263.412764 27.8955 
L 267.447658 27.8955 
L 271.482553 27.8955 
L 275.517447 27.86253 
L 279.552342 27.86253 
L 283.587236 27.86253 
L 287.62213 27.86253 
L 291.657025 27.86253 
L 295.691919 27.86253 
L 299.726814 27.86253 
L 303.761708 27.772727 
L 307.796602 27.772727 
L 311.831497 27.772727 
L 315.866391 27.772727 
L 319.901286 27.772727 
L 323.93618 27.772727 
L 327.971074 27.772727 
L 332.005969 27.772727 
L 336.040863 27.772727 
L 340.075758 27.772727 
L 344.110652 27.772727 
L 348.145546 27.772727 
L 352.180441 27.772727 
L 356.215335 27.772727 
L 360.25023 27.772727 
L 364.285124 27.772727 
L 368.320018 27.772727 
L 372.354913 27.772727 
L 376.389807 27.772727 
L 380.424702 27.772727 
L 384.459596 27.772727 
L 388.49449 27.772727 
L 392.529385 27.772727 
L 396.564279 27.772727 
L 400.599174 27.772727 
L 404.634068 27.772727 
L 408.668962 27.772727 
L 412.703857 27.772727 
L 416.738751 27.772727 
L 420.773646 27.772727 
L 424.80854 27.772727 
L 428.843434 27.772727 
L 432.878329 27.772727 
L 436.913223 27.772727 
L 440.948118 27.772727 
L 444.983012 27.772727 
L 449.017906 27.772727 
L 453.052801 27.772727 
L 457.087695 27.772727 
L 461.12259 27.772727 
L 465.157484 27.772727 
L 469.192378 27.772727 
L 473.227273 27.772727 
" style="fill:none;stroke:#0000ff;stroke-linecap:square;stroke-width:2;"/>
   </g>
   <g id="line2d_29">
    <path clip-path="url(#p60d0f96990)" d="M 73.772727 367.227273 
L 473.227273 27.772727 
" style="fill:none;stroke:#ff0000;stroke-dasharray:7.4,3.2;stroke-dashoffset:0;stroke-opacity:0.8;stroke-width:2;"/>
   </g>
   <g id="patch_3">
    <path d="M 53.8 384.2 
L 53.8 10.8 
" style="fill:none;stroke:#000000;stroke-linecap:square;stroke-linejoin:miter;stroke-width:0.8;"/>
   </g>
   <g id="patch_4">
    <path d="M 53.8 384.2 
L 493.2 384.2 
" style="fill:none;stroke:#000000;stroke-linecap:square;stroke-linejoin:miter;stroke-width:0.8;"/>
   </g>
   <g id="legend_1">
    <g id="patch_5">
     <path d="M 159.9 379.2 
L 486.2 379.2 
Q 488.2 379.2 488.2 377.2 
L 488.2 304.765625 
Q 488.2 302.765625 486.2 302.765625 
L 159.9 302.765625 
Q 157.9 302.765625 157.9 304.765625 
L 157.9 377.2 
Q 157.9 379.2 159.9 379.2 
z
" style="fill:#ffffff;opacity:0.8;stroke:#cccccc;stroke-linejoin:miter;"/>
    </g>
    <g id="line2d_30">
     <path d="M 161.9 310.865625 
L 181.9 310.865625 
" style="fill:none;stroke:#00ffff;stroke-linecap:square;stroke-width:2;"/>
    </g>
    <g id="line2d_31"/>
    <g id="text_15">
     <!-- Xception (Transfer Learning) - ROC (AUC = 0.978 $\pm$ 0.024) -->
     <defs>
      <path d="M 6.296875 72.90625 
L 16.890625 72.90625 
L 35.015625 45.796875 
L 53.21875 72.90625 
L 63.8125 72.90625 
L 40.375 37.890625 
L 65.375 0 
L 54.78125 0 
L 34.28125 31 
L 13.625 0 
L 2.984375 0 
L 29 38.921875 
z
" id="DejaVuSans-88"/>
      <path d="M 48.78125 52.59375 
L 48.78125 44.1875 
Q 44.96875 46.296875 41.140625 47.34375 
Q 37.3125 48.390625 33.40625 48.390625 
Q 24.65625 48.390625 19.8125 42.84375 
Q 14.984375 37.3125 14.984375 27.296875 
Q 14.984375 17.28125 19.8125 11.734375 
Q 24.65625 6.203125 33.40625 6.203125 
Q 37.3125 6.203125 41.140625 7.25 
Q 44.96875 8.296875 48.78125 10.40625 
L 48.78125 2.09375 
Q 45.015625 0.34375 40.984375 -0.53125 
Q 36.96875 -1.421875 32.421875 -1.421875 
Q 20.0625 -1.421875 12.78125 6.34375 
Q 5.515625 14.109375 5.515625 27.296875 
Q 5.515625 40.671875 12.859375 48.328125 
Q 20.21875 56 33.015625 56 
Q 37.15625 56 41.109375 55.140625 
Q 45.0625 54.296875 48.78125 52.59375 
z
" id="DejaVuSans-99"/>
      <path d="M 56.203125 29.59375 
L 56.203125 25.203125 
L 14.890625 25.203125 
Q 15.484375 15.921875 20.484375 11.0625 
Q 25.484375 6.203125 34.421875 6.203125 
Q 39.59375 6.203125 44.453125 7.46875 
Q 49.3125 8.734375 54.109375 11.28125 
L 54.109375 2.78125 
Q 49.265625 0.734375 44.1875 -0.34375 
Q 39.109375 -1.421875 33.890625 -1.421875 
Q 20.796875 -1.421875 13.15625 6.1875 
Q 5.515625 13.8125 5.515625 26.8125 
Q 5.515625 40.234375 12.765625 48.109375 
Q 20.015625 56 32.328125 56 
Q 43.359375 56 49.78125 48.890625 
Q 56.203125 41.796875 56.203125 29.59375 
z
M 47.21875 32.234375 
Q 47.125 39.59375 43.09375 43.984375 
Q 39.0625 48.390625 32.421875 48.390625 
Q 24.90625 48.390625 20.390625 44.140625 
Q 15.875 39.890625 15.1875 32.171875 
z
" id="DejaVuSans-101"/>
      <path d="M 18.109375 8.203125 
L 18.109375 -20.796875 
L 9.078125 -20.796875 
L 9.078125 54.6875 
L 18.109375 54.6875 
L 18.109375 46.390625 
Q 20.953125 51.265625 25.265625 53.625 
Q 29.59375 56 35.59375 56 
Q 45.5625 56 51.78125 48.09375 
Q 58.015625 40.1875 58.015625 27.296875 
Q 58.015625 14.40625 51.78125 6.484375 
Q 45.5625 -1.421875 35.59375 -1.421875 
Q 29.59375 -1.421875 25.265625 0.953125 
Q 20.953125 3.328125 18.109375 8.203125 
z
M 48.6875 27.296875 
Q 48.6875 37.203125 44.609375 42.84375 
Q 40.53125 48.484375 33.40625 48.484375 
Q 26.265625 48.484375 22.1875 42.84375 
Q 18.109375 37.203125 18.109375 27.296875 
Q 18.109375 17.390625 22.1875 11.75 
Q 26.265625 6.109375 33.40625 6.109375 
Q 40.53125 6.109375 44.609375 11.75 
Q 48.6875 17.390625 48.6875 27.296875 
z
" id="DejaVuSans-112"/>
      <path d="M 18.3125 70.21875 
L 18.3125 54.6875 
L 36.8125 54.6875 
L 36.8125 47.703125 
L 18.3125 47.703125 
L 18.3125 18.015625 
Q 18.3125 11.328125 20.140625 9.421875 
Q 21.96875 7.515625 27.59375 7.515625 
L 36.8125 7.515625 
L 36.8125 0 
L 27.59375 0 
Q 17.1875 0 13.234375 3.875 
Q 9.28125 7.765625 9.28125 18.015625 
L 9.28125 47.703125 
L 2.6875 47.703125 
L 2.6875 54.6875 
L 9.28125 54.6875 
L 9.28125 70.21875 
z
" id="DejaVuSans-116"/>
      <path d="M 9.421875 54.6875 
L 18.40625 54.6875 
L 18.40625 0 
L 9.421875 0 
z
M 9.421875 75.984375 
L 18.40625 75.984375 
L 18.40625 64.59375 
L 9.421875 64.59375 
z
" id="DejaVuSans-105"/>
      <path d="M 30.609375 48.390625 
Q 23.390625 48.390625 19.1875 42.75 
Q 14.984375 37.109375 14.984375 27.296875 
Q 14.984375 17.484375 19.15625 11.84375 
Q 23.34375 6.203125 30.609375 6.203125 
Q 37.796875 6.203125 41.984375 11.859375 
Q 46.1875 17.53125 46.1875 27.296875 
Q 46.1875 37.015625 41.984375 42.703125 
Q 37.796875 48.390625 30.609375 48.390625 
z
M 30.609375 56 
Q 42.328125 56 49.015625 48.375 
Q 55.71875 40.765625 55.71875 27.296875 
Q 55.71875 13.875 49.015625 6.21875 
Q 42.328125 -1.421875 30.609375 -1.421875 
Q 18.84375 -1.421875 12.171875 6.21875 
Q 5.515625 13.875 5.515625 27.296875 
Q 5.515625 40.765625 12.171875 48.375 
Q 18.84375 56 30.609375 56 
z
" id="DejaVuSans-111"/>
      <path d="M 54.890625 33.015625 
L 54.890625 0 
L 45.90625 0 
L 45.90625 32.71875 
Q 45.90625 40.484375 42.875 44.328125 
Q 39.84375 48.1875 33.796875 48.1875 
Q 26.515625 48.1875 22.3125 43.546875 
Q 18.109375 38.921875 18.109375 30.90625 
L 18.109375 0 
L 9.078125 0 
L 9.078125 54.6875 
L 18.109375 54.6875 
L 18.109375 46.1875 
Q 21.34375 51.125 25.703125 53.5625 
Q 30.078125 56 35.796875 56 
Q 45.21875 56 50.046875 50.171875 
Q 54.890625 44.34375 54.890625 33.015625 
z
" id="DejaVuSans-110"/>
      <path id="DejaVuSans-32"/>
      <path d="M 31 75.875 
Q 24.46875 64.65625 21.28125 53.65625 
Q 18.109375 42.671875 18.109375 31.390625 
Q 18.109375 20.125 21.3125 9.0625 
Q 24.515625 -2 31 -13.1875 
L 23.1875 -13.1875 
Q 15.875 -1.703125 12.234375 9.375 
Q 8.59375 20.453125 8.59375 31.390625 
Q 8.59375 42.28125 12.203125 53.3125 
Q 15.828125 64.359375 23.1875 75.875 
z
" id="DejaVuSans-40"/>
      <path d="M -0.296875 72.90625 
L 61.375 72.90625 
L 61.375 64.59375 
L 35.5 64.59375 
L 35.5 0 
L 25.59375 0 
L 25.59375 64.59375 
L -0.296875 64.59375 
z
" id="DejaVuSans-84"/>
      <path d="M 41.109375 46.296875 
Q 39.59375 47.171875 37.8125 47.578125 
Q 36.03125 48 33.890625 48 
Q 26.265625 48 22.1875 43.046875 
Q 18.109375 38.09375 18.109375 28.8125 
L 18.109375 0 
L 9.078125 0 
L 9.078125 54.6875 
L 18.109375 54.6875 
L 18.109375 46.1875 
Q 20.953125 51.171875 25.484375 53.578125 
Q 30.03125 56 36.53125 56 
Q 37.453125 56 38.578125 55.875 
Q 39.703125 55.765625 41.0625 55.515625 
z
" id="DejaVuSans-114"/>
      <path d="M 34.28125 27.484375 
Q 23.390625 27.484375 19.1875 25 
Q 14.984375 22.515625 14.984375 16.5 
Q 14.984375 11.71875 18.140625 8.90625 
Q 21.296875 6.109375 26.703125 6.109375 
Q 34.1875 6.109375 38.703125 11.40625 
Q 43.21875 16.703125 43.21875 25.484375 
L 43.21875 27.484375 
z
M 52.203125 31.203125 
L 52.203125 0 
L 43.21875 0 
L 43.21875 8.296875 
Q 40.140625 3.328125 35.546875 0.953125 
Q 30.953125 -1.421875 24.3125 -1.421875 
Q 15.921875 -1.421875 10.953125 3.296875 
Q 6 8.015625 6 15.921875 
Q 6 25.140625 12.171875 29.828125 
Q 18.359375 34.515625 30.609375 34.515625 
L 43.21875 34.515625 
L 43.21875 35.40625 
Q 43.21875 41.609375 39.140625 45 
Q 35.0625 48.390625 27.6875 48.390625 
Q 23 48.390625 18.546875 47.265625 
Q 14.109375 46.140625 10.015625 43.890625 
L 10.015625 52.203125 
Q 14.9375 54.109375 19.578125 55.046875 
Q 24.21875 56 28.609375 56 
Q 40.484375 56 46.34375 49.84375 
Q 52.203125 43.703125 52.203125 31.203125 
z
" id="DejaVuSans-97"/>
      <path d="M 44.28125 53.078125 
L 44.28125 44.578125 
Q 40.484375 46.53125 36.375 47.5 
Q 32.28125 48.484375 27.875 48.484375 
Q 21.1875 48.484375 17.84375 46.4375 
Q 14.5 44.390625 14.5 40.28125 
Q 14.5 37.15625 16.890625 35.375 
Q 19.28125 33.59375 26.515625 31.984375 
L 29.59375 31.296875 
Q 39.15625 29.25 43.1875 25.515625 
Q 47.21875 21.78125 47.21875 15.09375 
Q 47.21875 7.46875 41.1875 3.015625 
Q 35.15625 -1.421875 24.609375 -1.421875 
Q 20.21875 -1.421875 15.453125 -0.5625 
Q 10.6875 0.296875 5.421875 2 
L 5.421875 11.28125 
Q 10.40625 8.6875 15.234375 7.390625 
Q 20.0625 6.109375 24.8125 6.109375 
Q 31.15625 6.109375 34.5625 8.28125 
Q 37.984375 10.453125 37.984375 14.40625 
Q 37.984375 18.0625 35.515625 20.015625 
Q 33.0625 21.96875 24.703125 23.78125 
L 21.578125 24.515625 
Q 13.234375 26.265625 9.515625 29.90625 
Q 5.8125 33.546875 5.8125 39.890625 
Q 5.8125 47.609375 11.28125 51.796875 
Q 16.75 56 26.8125 56 
Q 31.78125 56 36.171875 55.265625 
Q 40.578125 54.546875 44.28125 53.078125 
z
" id="DejaVuSans-115"/>
      <path d="M 37.109375 75.984375 
L 37.109375 68.5 
L 28.515625 68.5 
Q 23.6875 68.5 21.796875 66.546875 
Q 19.921875 64.59375 19.921875 59.515625 
L 19.921875 54.6875 
L 34.71875 54.6875 
L 34.71875 47.703125 
L 19.921875 47.703125 
L 19.921875 0 
L 10.890625 0 
L 10.890625 47.703125 
L 2.296875 47.703125 
L 2.296875 54.6875 
L 10.890625 54.6875 
L 10.890625 58.5 
Q 10.890625 67.625 15.140625 71.796875 
Q 19.390625 75.984375 28.609375 75.984375 
z
" id="DejaVuSans-102"/>
      <path d="M 9.8125 72.90625 
L 19.671875 72.90625 
L 19.671875 8.296875 
L 55.171875 8.296875 
L 55.171875 0 
L 9.8125 0 
z
" id="DejaVuSans-76"/>
      <path d="M 45.40625 27.984375 
Q 45.40625 37.75 41.375 43.109375 
Q 37.359375 48.484375 30.078125 48.484375 
Q 22.859375 48.484375 18.828125 43.109375 
Q 14.796875 37.75 14.796875 27.984375 
Q 14.796875 18.265625 18.828125 12.890625 
Q 22.859375 7.515625 30.078125 7.515625 
Q 37.359375 7.515625 41.375 12.890625 
Q 45.40625 18.265625 45.40625 27.984375 
z
M 54.390625 6.78125 
Q 54.390625 -7.171875 48.1875 -13.984375 
Q 42 -20.796875 29.203125 -20.796875 
Q 24.46875 -20.796875 20.265625 -20.09375 
Q 16.0625 -19.390625 12.109375 -17.921875 
L 12.109375 -9.1875 
Q 16.0625 -11.328125 19.921875 -12.34375 
Q 23.78125 -13.375 27.78125 -13.375 
Q 36.625 -13.375 41.015625 -8.765625 
Q 45.40625 -4.15625 45.40625 5.171875 
L 45.40625 9.625 
Q 42.625 4.78125 38.28125 2.390625 
Q 33.9375 0 27.875 0 
Q 17.828125 0 11.671875 7.65625 
Q 5.515625 15.328125 5.515625 27.984375 
Q 5.515625 40.671875 11.671875 48.328125 
Q 17.828125 56 27.875 56 
Q 33.9375 56 38.28125 53.609375 
Q 42.625 51.21875 45.40625 46.390625 
L 45.40625 54.6875 
L 54.390625 54.6875 
z
" id="DejaVuSans-103"/>
      <path d="M 8.015625 75.875 
L 15.828125 75.875 
Q 23.140625 64.359375 26.78125 53.3125 
Q 30.421875 42.28125 30.421875 31.390625 
Q 30.421875 20.453125 26.78125 9.375 
Q 23.140625 -1.703125 15.828125 -13.1875 
L 8.015625 -13.1875 
Q 14.5 -2 17.703125 9.0625 
Q 20.90625 20.125 20.90625 31.390625 
Q 20.90625 42.671875 17.703125 53.65625 
Q 14.5 64.65625 8.015625 75.875 
z
" id="DejaVuSans-41"/>
      <path d="M 4.890625 31.390625 
L 31.203125 31.390625 
L 31.203125 23.390625 
L 4.890625 23.390625 
z
" id="DejaVuSans-45"/>
      <path d="M 44.390625 34.1875 
Q 47.5625 33.109375 50.5625 29.59375 
Q 53.5625 26.078125 56.59375 19.921875 
L 66.609375 0 
L 56 0 
L 46.6875 18.703125 
Q 43.0625 26.03125 39.671875 28.421875 
Q 36.28125 30.8125 30.421875 30.8125 
L 19.671875 30.8125 
L 19.671875 0 
L 9.8125 0 
L 9.8125 72.90625 
L 32.078125 72.90625 
Q 44.578125 72.90625 50.734375 67.671875 
Q 56.890625 62.453125 56.890625 51.90625 
Q 56.890625 45.015625 53.6875 40.46875 
Q 50.484375 35.9375 44.390625 34.1875 
z
M 19.671875 64.796875 
L 19.671875 38.921875 
L 32.078125 38.921875 
Q 39.203125 38.921875 42.84375 42.21875 
Q 46.484375 45.515625 46.484375 51.90625 
Q 46.484375 58.296875 42.84375 61.546875 
Q 39.203125 64.796875 32.078125 64.796875 
z
" id="DejaVuSans-82"/>
      <path d="M 39.40625 66.21875 
Q 28.65625 66.21875 22.328125 58.203125 
Q 16.015625 50.203125 16.015625 36.375 
Q 16.015625 22.609375 22.328125 14.59375 
Q 28.65625 6.59375 39.40625 6.59375 
Q 50.140625 6.59375 56.421875 14.59375 
Q 62.703125 22.609375 62.703125 36.375 
Q 62.703125 50.203125 56.421875 58.203125 
Q 50.140625 66.21875 39.40625 66.21875 
z
M 39.40625 74.21875 
Q 54.734375 74.21875 63.90625 63.9375 
Q 73.09375 53.65625 73.09375 36.375 
Q 73.09375 19.140625 63.90625 8.859375 
Q 54.734375 -1.421875 39.40625 -1.421875 
Q 24.03125 -1.421875 14.8125 8.828125 
Q 5.609375 19.09375 5.609375 36.375 
Q 5.609375 53.65625 14.8125 63.9375 
Q 24.03125 74.21875 39.40625 74.21875 
z
" id="DejaVuSans-79"/>
      <path d="M 64.40625 67.28125 
L 64.40625 56.890625 
Q 59.421875 61.53125 53.78125 63.8125 
Q 48.140625 66.109375 41.796875 66.109375 
Q 29.296875 66.109375 22.65625 58.46875 
Q 16.015625 50.828125 16.015625 36.375 
Q 16.015625 21.96875 22.65625 14.328125 
Q 29.296875 6.6875 41.796875 6.6875 
Q 48.140625 6.6875 53.78125 8.984375 
Q 59.421875 11.28125 64.40625 15.921875 
L 64.40625 5.609375 
Q 59.234375 2.09375 53.4375 0.328125 
Q 47.65625 -1.421875 41.21875 -1.421875 
Q 24.65625 -1.421875 15.125 8.703125 
Q 5.609375 18.84375 5.609375 36.375 
Q 5.609375 53.953125 15.125 64.078125 
Q 24.65625 74.21875 41.21875 74.21875 
Q 47.75 74.21875 53.53125 72.484375 
Q 59.328125 70.75 64.40625 67.28125 
z
" id="DejaVuSans-67"/>
      <path d="M 34.1875 63.1875 
L 20.796875 26.90625 
L 47.609375 26.90625 
z
M 28.609375 72.90625 
L 39.796875 72.90625 
L 67.578125 0 
L 57.328125 0 
L 50.6875 18.703125 
L 17.828125 18.703125 
L 11.1875 0 
L 0.78125 0 
z
" id="DejaVuSans-65"/>
      <path d="M 8.6875 72.90625 
L 18.609375 72.90625 
L 18.609375 28.609375 
Q 18.609375 16.890625 22.84375 11.734375 
Q 27.09375 6.59375 36.625 6.59375 
Q 46.09375 6.59375 50.34375 11.734375 
Q 54.59375 16.890625 54.59375 28.609375 
L 54.59375 72.90625 
L 64.5 72.90625 
L 64.5 27.390625 
Q 64.5 13.140625 57.4375 5.859375 
Q 50.390625 -1.421875 36.625 -1.421875 
Q 22.796875 -1.421875 15.734375 5.859375 
Q 8.6875 13.140625 8.6875 27.390625 
z
" id="DejaVuSans-85"/>
      <path d="M 10.59375 45.40625 
L 73.1875 45.40625 
L 73.1875 37.203125 
L 10.59375 37.203125 
z
M 10.59375 25.484375 
L 73.1875 25.484375 
L 73.1875 17.1875 
L 10.59375 17.1875 
z
" id="DejaVuSans-61"/>
      <path d="M 10.984375 1.515625 
L 10.984375 10.5 
Q 14.703125 8.734375 18.5 7.8125 
Q 22.3125 6.890625 25.984375 6.890625 
Q 35.75 6.890625 40.890625 13.453125 
Q 46.046875 20.015625 46.78125 33.40625 
Q 43.953125 29.203125 39.59375 26.953125 
Q 35.25 24.703125 29.984375 24.703125 
Q 19.046875 24.703125 12.671875 31.3125 
Q 6.296875 37.9375 6.296875 49.421875 
Q 6.296875 60.640625 12.9375 67.421875 
Q 19.578125 74.21875 30.609375 74.21875 
Q 43.265625 74.21875 49.921875 64.515625 
Q 56.59375 54.828125 56.59375 36.375 
Q 56.59375 19.140625 48.40625 8.859375 
Q 40.234375 -1.421875 26.421875 -1.421875 
Q 22.703125 -1.421875 18.890625 -0.6875 
Q 15.09375 0.046875 10.984375 1.515625 
z
M 30.609375 32.421875 
Q 37.25 32.421875 41.125 36.953125 
Q 45.015625 41.5 45.015625 49.421875 
Q 45.015625 57.28125 41.125 61.84375 
Q 37.25 66.40625 30.609375 66.40625 
Q 23.96875 66.40625 20.09375 61.84375 
Q 16.21875 57.28125 16.21875 49.421875 
Q 16.21875 41.5 20.09375 36.953125 
Q 23.96875 32.421875 30.609375 32.421875 
z
" id="DejaVuSans-57"/>
      <path d="M 8.203125 72.90625 
L 55.078125 72.90625 
L 55.078125 68.703125 
L 28.609375 0 
L 18.3125 0 
L 43.21875 64.59375 
L 8.203125 64.59375 
z
" id="DejaVuSans-55"/>
      <path d="M 46 62.703125 
L 46 43.796875 
L 73.1875 43.796875 
L 73.1875 35.5 
L 46 35.5 
L 46 16.609375 
L 37.796875 16.609375 
L 37.796875 35.5 
L 10.59375 35.5 
L 10.59375 43.796875 
L 37.796875 43.796875 
L 37.796875 62.703125 
z
M 10.59375 8.296875 
L 73.1875 8.296875 
L 73.1875 0 
L 10.59375 0 
z
" id="DejaVuSans-177"/>
     </defs>
     <g transform="translate(189.9 314.365625)scale(0.1 -0.1)">
      <use transform="translate(0 0.015625)" xlink:href="#DejaVuSans-88"/>
      <use transform="translate(68.505859 0.015625)" xlink:href="#DejaVuSans-99"/>
      <use transform="translate(123.486328 0.015625)" xlink:href="#DejaVuSans-101"/>
      <use transform="translate(185.009766 0.015625)" xlink:href="#DejaVuSans-112"/>
      <use transform="translate(248.486328 0.015625)" xlink:href="#DejaVuSans-116"/>
      <use transform="translate(287.695312 0.015625)" xlink:href="#DejaVuSans-105"/>
      <use transform="translate(315.478516 0.015625)" xlink:href="#DejaVuSans-111"/>
      <use transform="translate(376.660156 0.015625)" xlink:href="#DejaVuSans-110"/>
      <use transform="translate(440.039062 0.015625)" xlink:href="#DejaVuSans-32"/>
      <use transform="translate(471.826172 0.015625)" xlink:href="#DejaVuSans-40"/>
      <use transform="translate(510.839844 0.015625)" xlink:href="#DejaVuSans-84"/>
      <use transform="translate(571.923828 0.015625)" xlink:href="#DejaVuSans-114"/>
      <use transform="translate(613.037109 0.015625)" xlink:href="#DejaVuSans-97"/>
      <use transform="translate(674.316406 0.015625)" xlink:href="#DejaVuSans-110"/>
      <use transform="translate(737.695312 0.015625)" xlink:href="#DejaVuSans-115"/>
      <use transform="translate(789.794922 0.015625)" xlink:href="#DejaVuSans-102"/>
      <use transform="translate(825 0.015625)" xlink:href="#DejaVuSans-101"/>
      <use transform="translate(886.523438 0.015625)" xlink:href="#DejaVuSans-114"/>
      <use transform="translate(927.636719 0.015625)" xlink:href="#DejaVuSans-32"/>
      <use transform="translate(959.423828 0.015625)" xlink:href="#DejaVuSans-76"/>
      <use transform="translate(1015.136719 0.015625)" xlink:href="#DejaVuSans-101"/>
      <use transform="translate(1076.660156 0.015625)" xlink:href="#DejaVuSans-97"/>
      <use transform="translate(1137.939453 0.015625)" xlink:href="#DejaVuSans-114"/>
      <use transform="translate(1179.052734 0.015625)" xlink:href="#DejaVuSans-110"/>
      <use transform="translate(1242.431641 0.015625)" xlink:href="#DejaVuSans-105"/>
      <use transform="translate(1270.214844 0.015625)" xlink:href="#DejaVuSans-110"/>
      <use transform="translate(1333.59375 0.015625)" xlink:href="#DejaVuSans-103"/>
      <use transform="translate(1397.070312 0.015625)" xlink:href="#DejaVuSans-41"/>
      <use transform="translate(1436.083984 0.015625)" xlink:href="#DejaVuSans-32"/>
      <use transform="translate(1467.871094 0.015625)" xlink:href="#DejaVuSans-45"/>
      <use transform="translate(1503.955078 0.015625)" xlink:href="#DejaVuSans-32"/>
      <use transform="translate(1535.742188 0.015625)" xlink:href="#DejaVuSans-82"/>
      <use transform="translate(1605.224609 0.015625)" xlink:href="#DejaVuSans-79"/>
      <use transform="translate(1683.935547 0.015625)" xlink:href="#DejaVuSans-67"/>
      <use transform="translate(1753.759766 0.015625)" xlink:href="#DejaVuSans-32"/>
      <use transform="translate(1785.546875 0.015625)" xlink:href="#DejaVuSans-40"/>
      <use transform="translate(1824.560547 0.015625)" xlink:href="#DejaVuSans-65"/>
      <use transform="translate(1892.96875 0.015625)" xlink:href="#DejaVuSans-85"/>
      <use transform="translate(1966.162109 0.015625)" xlink:href="#DejaVuSans-67"/>
      <use transform="translate(2035.986328 0.015625)" xlink:href="#DejaVuSans-32"/>
      <use transform="translate(2067.773438 0.015625)" xlink:href="#DejaVuSans-61"/>
      <use transform="translate(2151.5625 0.015625)" xlink:href="#DejaVuSans-32"/>
      <use transform="translate(2183.349609 0.015625)" xlink:href="#DejaVuSans-48"/>
      <use transform="translate(2246.972656 0.015625)" xlink:href="#DejaVuSans-46"/>
      <use transform="translate(2278.759766 0.015625)" xlink:href="#DejaVuSans-57"/>
      <use transform="translate(2342.382812 0.015625)" xlink:href="#DejaVuSans-55"/>
      <use transform="translate(2406.005859 0.015625)" xlink:href="#DejaVuSans-56"/>
      <use transform="translate(2469.628906 0.015625)" xlink:href="#DejaVuSans-32"/>
      <use transform="translate(2501.416016 0.015625)" xlink:href="#DejaVuSans-177"/>
      <use transform="translate(2585.205078 0.015625)" xlink:href="#DejaVuSans-32"/>
      <use transform="translate(2616.992188 0.015625)" xlink:href="#DejaVuSans-48"/>
      <use transform="translate(2680.615234 0.015625)" xlink:href="#DejaVuSans-46"/>
      <use transform="translate(2712.402344 0.015625)" xlink:href="#DejaVuSans-48"/>
      <use transform="translate(2776.025391 0.015625)" xlink:href="#DejaVuSans-50"/>
      <use transform="translate(2839.648438 0.015625)" xlink:href="#DejaVuSans-52"/>
      <use transform="translate(2903.271484 0.015625)" xlink:href="#DejaVuSans-41"/>
     </g>
    </g>
    <g id="line2d_32">
     <path d="M 161.9 325.565625 
L 181.9 325.565625 
" style="fill:none;stroke:#008000;stroke-linecap:square;stroke-width:2;"/>
    </g>
    <g id="line2d_33"/>
    <g id="text_16">
     <!-- Xception - ROC (AUC = 0.963 $\pm$ 0.035) -->
     <defs>
      <path d="M 40.578125 39.3125 
Q 47.65625 37.796875 51.625 33 
Q 55.609375 28.21875 55.609375 21.1875 
Q 55.609375 10.40625 48.1875 4.484375 
Q 40.765625 -1.421875 27.09375 -1.421875 
Q 22.515625 -1.421875 17.65625 -0.515625 
Q 12.796875 0.390625 7.625 2.203125 
L 7.625 11.71875 
Q 11.71875 9.328125 16.59375 8.109375 
Q 21.484375 6.890625 26.8125 6.890625 
Q 36.078125 6.890625 40.9375 10.546875 
Q 45.796875 14.203125 45.796875 21.1875 
Q 45.796875 27.640625 41.28125 31.265625 
Q 36.765625 34.90625 28.71875 34.90625 
L 20.21875 34.90625 
L 20.21875 43.015625 
L 29.109375 43.015625 
Q 36.375 43.015625 40.234375 45.921875 
Q 44.09375 48.828125 44.09375 54.296875 
Q 44.09375 59.90625 40.109375 62.90625 
Q 36.140625 65.921875 28.71875 65.921875 
Q 24.65625 65.921875 20.015625 65.03125 
Q 15.375 64.15625 9.8125 62.3125 
L 9.8125 71.09375 
Q 15.4375 72.65625 20.34375 73.4375 
Q 25.25 74.21875 29.59375 74.21875 
Q 40.828125 74.21875 47.359375 69.109375 
Q 53.90625 64.015625 53.90625 55.328125 
Q 53.90625 49.265625 50.4375 45.09375 
Q 46.96875 40.921875 40.578125 39.3125 
z
" id="DejaVuSans-51"/>
      <path d="M 10.796875 72.90625 
L 49.515625 72.90625 
L 49.515625 64.59375 
L 19.828125 64.59375 
L 19.828125 46.734375 
Q 21.96875 47.46875 24.109375 47.828125 
Q 26.265625 48.1875 28.421875 48.1875 
Q 40.625 48.1875 47.75 41.5 
Q 54.890625 34.8125 54.890625 23.390625 
Q 54.890625 11.625 47.5625 5.09375 
Q 40.234375 -1.421875 26.90625 -1.421875 
Q 22.3125 -1.421875 17.546875 -0.640625 
Q 12.796875 0.140625 7.71875 1.703125 
L 7.71875 11.625 
Q 12.109375 9.234375 16.796875 8.0625 
Q 21.484375 6.890625 26.703125 6.890625 
Q 35.15625 6.890625 40.078125 11.328125 
Q 45.015625 15.765625 45.015625 23.390625 
Q 45.015625 31 40.078125 35.4375 
Q 35.15625 39.890625 26.703125 39.890625 
Q 22.75 39.890625 18.8125 39.015625 
Q 14.890625 38.140625 10.796875 36.28125 
z
" id="DejaVuSans-53"/>
     </defs>
     <g transform="translate(189.9 329.065625)scale(0.1 -0.1)">
      <use transform="translate(0 0.015625)" xlink:href="#DejaVuSans-88"/>
      <use transform="translate(68.505859 0.015625)" xlink:href="#DejaVuSans-99"/>
      <use transform="translate(123.486328 0.015625)" xlink:href="#DejaVuSans-101"/>
      <use transform="translate(185.009766 0.015625)" xlink:href="#DejaVuSans-112"/>
      <use transform="translate(248.486328 0.015625)" xlink:href="#DejaVuSans-116"/>
      <use transform="translate(287.695312 0.015625)" xlink:href="#DejaVuSans-105"/>
      <use transform="translate(315.478516 0.015625)" xlink:href="#DejaVuSans-111"/>
      <use transform="translate(376.660156 0.015625)" xlink:href="#DejaVuSans-110"/>
      <use transform="translate(440.039062 0.015625)" xlink:href="#DejaVuSans-32"/>
      <use transform="translate(471.826172 0.015625)" xlink:href="#DejaVuSans-45"/>
      <use transform="translate(507.910156 0.015625)" xlink:href="#DejaVuSans-32"/>
      <use transform="translate(539.697266 0.015625)" xlink:href="#DejaVuSans-82"/>
      <use transform="translate(609.179688 0.015625)" xlink:href="#DejaVuSans-79"/>
      <use transform="translate(687.890625 0.015625)" xlink:href="#DejaVuSans-67"/>
      <use transform="translate(757.714844 0.015625)" xlink:href="#DejaVuSans-32"/>
      <use transform="translate(789.501953 0.015625)" xlink:href="#DejaVuSans-40"/>
      <use transform="translate(828.515625 0.015625)" xlink:href="#DejaVuSans-65"/>
      <use transform="translate(896.923828 0.015625)" xlink:href="#DejaVuSans-85"/>
      <use transform="translate(970.117188 0.015625)" xlink:href="#DejaVuSans-67"/>
      <use transform="translate(1039.941406 0.015625)" xlink:href="#DejaVuSans-32"/>
      <use transform="translate(1071.728516 0.015625)" xlink:href="#DejaVuSans-61"/>
      <use transform="translate(1155.517578 0.015625)" xlink:href="#DejaVuSans-32"/>
      <use transform="translate(1187.304688 0.015625)" xlink:href="#DejaVuSans-48"/>
      <use transform="translate(1250.927734 0.015625)" xlink:href="#DejaVuSans-46"/>
      <use transform="translate(1282.714844 0.015625)" xlink:href="#DejaVuSans-57"/>
      <use transform="translate(1346.337891 0.015625)" xlink:href="#DejaVuSans-54"/>
      <use transform="translate(1409.960938 0.015625)" xlink:href="#DejaVuSans-51"/>
      <use transform="translate(1473.583984 0.015625)" xlink:href="#DejaVuSans-32"/>
      <use transform="translate(1505.371094 0.015625)" xlink:href="#DejaVuSans-177"/>
      <use transform="translate(1589.160156 0.015625)" xlink:href="#DejaVuSans-32"/>
      <use transform="translate(1620.947266 0.015625)" xlink:href="#DejaVuSans-48"/>
      <use transform="translate(1684.570312 0.015625)" xlink:href="#DejaVuSans-46"/>
      <use transform="translate(1716.357422 0.015625)" xlink:href="#DejaVuSans-48"/>
      <use transform="translate(1779.980469 0.015625)" xlink:href="#DejaVuSans-51"/>
      <use transform="translate(1843.603516 0.015625)" xlink:href="#DejaVuSans-53"/>
      <use transform="translate(1907.226562 0.015625)" xlink:href="#DejaVuSans-41"/>
     </g>
    </g>
    <g id="line2d_34">
     <path d="M 161.9 340.264063 
L 181.9 340.264063 
" style="fill:none;stroke:#ff8c00;stroke-linecap:square;stroke-width:2;"/>
    </g>
    <g id="line2d_35"/>
    <g id="text_17">
     <!-- Subnet (256x256) - ROC (AUC = 0.974 $\pm$ 0.024) -->
     <defs>
      <path d="M 53.515625 70.515625 
L 53.515625 60.890625 
Q 47.90625 63.578125 42.921875 64.890625 
Q 37.9375 66.21875 33.296875 66.21875 
Q 25.25 66.21875 20.875 63.09375 
Q 16.5 59.96875 16.5 54.203125 
Q 16.5 49.359375 19.40625 46.890625 
Q 22.3125 44.4375 30.421875 42.921875 
L 36.375 41.703125 
Q 47.40625 39.59375 52.65625 34.296875 
Q 57.90625 29 57.90625 20.125 
Q 57.90625 9.515625 50.796875 4.046875 
Q 43.703125 -1.421875 29.984375 -1.421875 
Q 24.8125 -1.421875 18.96875 -0.25 
Q 13.140625 0.921875 6.890625 3.21875 
L 6.890625 13.375 
Q 12.890625 10.015625 18.65625 8.296875 
Q 24.421875 6.59375 29.984375 6.59375 
Q 38.421875 6.59375 43.015625 9.90625 
Q 47.609375 13.234375 47.609375 19.390625 
Q 47.609375 24.75 44.3125 27.78125 
Q 41.015625 30.8125 33.5 32.328125 
L 27.484375 33.5 
Q 16.453125 35.6875 11.515625 40.375 
Q 6.59375 45.0625 6.59375 53.421875 
Q 6.59375 63.09375 13.40625 68.65625 
Q 20.21875 74.21875 32.171875 74.21875 
Q 37.3125 74.21875 42.625 73.28125 
Q 47.953125 72.359375 53.515625 70.515625 
z
" id="DejaVuSans-83"/>
      <path d="M 8.5 21.578125 
L 8.5 54.6875 
L 17.484375 54.6875 
L 17.484375 21.921875 
Q 17.484375 14.15625 20.5 10.265625 
Q 23.53125 6.390625 29.59375 6.390625 
Q 36.859375 6.390625 41.078125 11.03125 
Q 45.3125 15.671875 45.3125 23.6875 
L 45.3125 54.6875 
L 54.296875 54.6875 
L 54.296875 0 
L 45.3125 0 
L 45.3125 8.40625 
Q 42.046875 3.421875 37.71875 1 
Q 33.40625 -1.421875 27.6875 -1.421875 
Q 18.265625 -1.421875 13.375 4.4375 
Q 8.5 10.296875 8.5 21.578125 
z
M 31.109375 56 
z
" id="DejaVuSans-117"/>
      <path d="M 48.6875 27.296875 
Q 48.6875 37.203125 44.609375 42.84375 
Q 40.53125 48.484375 33.40625 48.484375 
Q 26.265625 48.484375 22.1875 42.84375 
Q 18.109375 37.203125 18.109375 27.296875 
Q 18.109375 17.390625 22.1875 11.75 
Q 26.265625 6.109375 33.40625 6.109375 
Q 40.53125 6.109375 44.609375 11.75 
Q 48.6875 17.390625 48.6875 27.296875 
z
M 18.109375 46.390625 
Q 20.953125 51.265625 25.265625 53.625 
Q 29.59375 56 35.59375 56 
Q 45.5625 56 51.78125 48.09375 
Q 58.015625 40.1875 58.015625 27.296875 
Q 58.015625 14.40625 51.78125 6.484375 
Q 45.5625 -1.421875 35.59375 -1.421875 
Q 29.59375 -1.421875 25.265625 0.953125 
Q 20.953125 3.328125 18.109375 8.203125 
L 18.109375 0 
L 9.078125 0 
L 9.078125 75.984375 
L 18.109375 75.984375 
z
" id="DejaVuSans-98"/>
      <path d="M 54.890625 54.6875 
L 35.109375 28.078125 
L 55.90625 0 
L 45.3125 0 
L 29.390625 21.484375 
L 13.484375 0 
L 2.875 0 
L 24.125 28.609375 
L 4.6875 54.6875 
L 15.28125 54.6875 
L 29.78125 35.203125 
L 44.28125 54.6875 
z
" id="DejaVuSans-120"/>
     </defs>
     <g transform="translate(189.9 343.764063)scale(0.1 -0.1)">
      <use transform="translate(0 0.015625)" xlink:href="#DejaVuSans-83"/>
      <use transform="translate(63.476562 0.015625)" xlink:href="#DejaVuSans-117"/>
      <use transform="translate(126.855469 0.015625)" xlink:href="#DejaVuSans-98"/>
      <use transform="translate(190.332031 0.015625)" xlink:href="#DejaVuSans-110"/>
      <use transform="translate(253.710938 0.015625)" xlink:href="#DejaVuSans-101"/>
      <use transform="translate(315.234375 0.015625)" xlink:href="#DejaVuSans-116"/>
      <use transform="translate(354.443359 0.015625)" xlink:href="#DejaVuSans-32"/>
      <use transform="translate(386.230469 0.015625)" xlink:href="#DejaVuSans-40"/>
      <use transform="translate(425.244141 0.015625)" xlink:href="#DejaVuSans-50"/>
      <use transform="translate(488.867188 0.015625)" xlink:href="#DejaVuSans-53"/>
      <use transform="translate(552.490234 0.015625)" xlink:href="#DejaVuSans-54"/>
      <use transform="translate(616.113281 0.015625)" xlink:href="#DejaVuSans-120"/>
      <use transform="translate(675.292969 0.015625)" xlink:href="#DejaVuSans-50"/>
      <use transform="translate(738.916016 0.015625)" xlink:href="#DejaVuSans-53"/>
      <use transform="translate(802.539062 0.015625)" xlink:href="#DejaVuSans-54"/>
      <use transform="translate(866.162109 0.015625)" xlink:href="#DejaVuSans-41"/>
      <use transform="translate(905.175781 0.015625)" xlink:href="#DejaVuSans-32"/>
      <use transform="translate(936.962891 0.015625)" xlink:href="#DejaVuSans-45"/>
      <use transform="translate(973.046875 0.015625)" xlink:href="#DejaVuSans-32"/>
      <use transform="translate(1004.833984 0.015625)" xlink:href="#DejaVuSans-82"/>
      <use transform="translate(1074.316406 0.015625)" xlink:href="#DejaVuSans-79"/>
      <use transform="translate(1153.027344 0.015625)" xlink:href="#DejaVuSans-67"/>
      <use transform="translate(1222.851562 0.015625)" xlink:href="#DejaVuSans-32"/>
      <use transform="translate(1254.638672 0.015625)" xlink:href="#DejaVuSans-40"/>
      <use transform="translate(1293.652344 0.015625)" xlink:href="#DejaVuSans-65"/>
      <use transform="translate(1362.060547 0.015625)" xlink:href="#DejaVuSans-85"/>
      <use transform="translate(1435.253906 0.015625)" xlink:href="#DejaVuSans-67"/>
      <use transform="translate(1505.078125 0.015625)" xlink:href="#DejaVuSans-32"/>
      <use transform="translate(1536.865234 0.015625)" xlink:href="#DejaVuSans-61"/>
      <use transform="translate(1620.654297 0.015625)" xlink:href="#DejaVuSans-32"/>
      <use transform="translate(1652.441406 0.015625)" xlink:href="#DejaVuSans-48"/>
      <use transform="translate(1716.064453 0.015625)" xlink:href="#DejaVuSans-46"/>
      <use transform="translate(1747.851562 0.015625)" xlink:href="#DejaVuSans-57"/>
      <use transform="translate(1811.474609 0.015625)" xlink:href="#DejaVuSans-55"/>
      <use transform="translate(1875.097656 0.015625)" xlink:href="#DejaVuSans-52"/>
      <use transform="translate(1938.720703 0.015625)" xlink:href="#DejaVuSans-32"/>
      <use transform="translate(1970.507812 0.015625)" xlink:href="#DejaVuSans-177"/>
      <use transform="translate(2054.296875 0.015625)" xlink:href="#DejaVuSans-32"/>
      <use transform="translate(2086.083984 0.015625)" xlink:href="#DejaVuSans-48"/>
      <use transform="translate(2149.707031 0.015625)" xlink:href="#DejaVuSans-46"/>
      <use transform="translate(2181.494141 0.015625)" xlink:href="#DejaVuSans-48"/>
      <use transform="translate(2245.117188 0.015625)" xlink:href="#DejaVuSans-50"/>
      <use transform="translate(2308.740234 0.015625)" xlink:href="#DejaVuSans-52"/>
      <use transform="translate(2372.363281 0.015625)" xlink:href="#DejaVuSans-41"/>
     </g>
    </g>
    <g id="line2d_36">
     <path d="M 161.9 354.942187 
L 181.9 354.942187 
" style="fill:none;stroke:#0000ff;stroke-linecap:square;stroke-width:2;"/>
    </g>
    <g id="line2d_37"/>
    <g id="text_18">
     <!-- BCNN (256x256/512x512) - ROC (AUC = 0.985 $\pm$ 0.011) -->
     <defs>
      <path d="M 19.671875 34.8125 
L 19.671875 8.109375 
L 35.5 8.109375 
Q 43.453125 8.109375 47.28125 11.40625 
Q 51.125 14.703125 51.125 21.484375 
Q 51.125 28.328125 47.28125 31.5625 
Q 43.453125 34.8125 35.5 34.8125 
z
M 19.671875 64.796875 
L 19.671875 42.828125 
L 34.28125 42.828125 
Q 41.5 42.828125 45.03125 45.53125 
Q 48.578125 48.25 48.578125 53.8125 
Q 48.578125 59.328125 45.03125 62.0625 
Q 41.5 64.796875 34.28125 64.796875 
z
M 9.8125 72.90625 
L 35.015625 72.90625 
Q 46.296875 72.90625 52.390625 68.21875 
Q 58.5 63.53125 58.5 54.890625 
Q 58.5 48.1875 55.375 44.234375 
Q 52.25 40.28125 46.1875 39.3125 
Q 53.46875 37.75 57.5 32.78125 
Q 61.53125 27.828125 61.53125 20.40625 
Q 61.53125 10.640625 54.890625 5.3125 
Q 48.25 0 35.984375 0 
L 9.8125 0 
z
" id="DejaVuSans-66"/>
      <path d="M 9.8125 72.90625 
L 23.09375 72.90625 
L 55.421875 11.921875 
L 55.421875 72.90625 
L 64.984375 72.90625 
L 64.984375 0 
L 51.703125 0 
L 19.390625 60.984375 
L 19.390625 0 
L 9.8125 0 
z
" id="DejaVuSans-78"/>
      <path d="M 25.390625 72.90625 
L 33.6875 72.90625 
L 8.296875 -9.28125 
L 0 -9.28125 
z
" id="DejaVuSans-47"/>
     </defs>
     <g transform="translate(189.9 358.442187)scale(0.1 -0.1)">
      <use transform="translate(0 0.125)" xlink:href="#DejaVuSans-66"/>
      <use transform="translate(68.603516 0.125)" xlink:href="#DejaVuSans-67"/>
      <use transform="translate(138.427734 0.125)" xlink:href="#DejaVuSans-78"/>
      <use transform="translate(213.232422 0.125)" xlink:href="#DejaVuSans-78"/>
      <use transform="translate(288.037109 0.125)" xlink:href="#DejaVuSans-32"/>
      <use transform="translate(319.824219 0.125)" xlink:href="#DejaVuSans-40"/>
      <use transform="translate(358.837891 0.125)" xlink:href="#DejaVuSans-50"/>
      <use transform="translate(422.460938 0.125)" xlink:href="#DejaVuSans-53"/>
      <use transform="translate(486.083984 0.125)" xlink:href="#DejaVuSans-54"/>
      <use transform="translate(549.707031 0.125)" xlink:href="#DejaVuSans-120"/>
      <use transform="translate(608.886719 0.125)" xlink:href="#DejaVuSans-50"/>
      <use transform="translate(672.509766 0.125)" xlink:href="#DejaVuSans-53"/>
      <use transform="translate(736.132812 0.125)" xlink:href="#DejaVuSans-54"/>
      <use transform="translate(799.755859 0.125)" xlink:href="#DejaVuSans-47"/>
      <use transform="translate(833.447266 0.125)" xlink:href="#DejaVuSans-53"/>
      <use transform="translate(897.070312 0.125)" xlink:href="#DejaVuSans-49"/>
      <use transform="translate(960.693359 0.125)" xlink:href="#DejaVuSans-50"/>
      <use transform="translate(1024.316406 0.125)" xlink:href="#DejaVuSans-120"/>
      <use transform="translate(1083.496094 0.125)" xlink:href="#DejaVuSans-53"/>
      <use transform="translate(1147.119141 0.125)" xlink:href="#DejaVuSans-49"/>
      <use transform="translate(1210.742188 0.125)" xlink:href="#DejaVuSans-50"/>
      <use transform="translate(1274.365234 0.125)" xlink:href="#DejaVuSans-41"/>
      <use transform="translate(1313.378906 0.125)" xlink:href="#DejaVuSans-32"/>
      <use transform="translate(1345.166016 0.125)" xlink:href="#DejaVuSans-45"/>
      <use transform="translate(1381.25 0.125)" xlink:href="#DejaVuSans-32"/>
      <use transform="translate(1413.037109 0.125)" xlink:href="#DejaVuSans-82"/>
      <use transform="translate(1482.519531 0.125)" xlink:href="#DejaVuSans-79"/>
      <use transform="translate(1561.230469 0.125)" xlink:href="#DejaVuSans-67"/>
      <use transform="translate(1631.054688 0.125)" xlink:href="#DejaVuSans-32"/>
      <use transform="translate(1662.841797 0.125)" xlink:href="#DejaVuSans-40"/>
      <use transform="translate(1701.855469 0.125)" xlink:href="#DejaVuSans-65"/>
      <use transform="translate(1770.263672 0.125)" xlink:href="#DejaVuSans-85"/>
      <use transform="translate(1843.457031 0.125)" xlink:href="#DejaVuSans-67"/>
      <use transform="translate(1913.28125 0.125)" xlink:href="#DejaVuSans-32"/>
      <use transform="translate(1945.068359 0.125)" xlink:href="#DejaVuSans-61"/>
      <use transform="translate(2028.857422 0.125)" xlink:href="#DejaVuSans-32"/>
      <use transform="translate(2060.644531 0.125)" xlink:href="#DejaVuSans-48"/>
      <use transform="translate(2124.267578 0.125)" xlink:href="#DejaVuSans-46"/>
      <use transform="translate(2156.054688 0.125)" xlink:href="#DejaVuSans-57"/>
      <use transform="translate(2219.677734 0.125)" xlink:href="#DejaVuSans-56"/>
      <use transform="translate(2283.300781 0.125)" xlink:href="#DejaVuSans-53"/>
      <use transform="translate(2346.923828 0.125)" xlink:href="#DejaVuSans-32"/>
      <use transform="translate(2378.710938 0.125)" xlink:href="#DejaVuSans-177"/>
      <use transform="translate(2462.5 0.125)" xlink:href="#DejaVuSans-32"/>
      <use transform="translate(2494.287109 0.125)" xlink:href="#DejaVuSans-48"/>
      <use transform="translate(2557.910156 0.125)" xlink:href="#DejaVuSans-46"/>
      <use transform="translate(2589.697266 0.125)" xlink:href="#DejaVuSans-48"/>
      <use transform="translate(2653.320312 0.125)" xlink:href="#DejaVuSans-49"/>
      <use transform="translate(2716.943359 0.125)" xlink:href="#DejaVuSans-49"/>
      <use transform="translate(2780.566406 0.125)" xlink:href="#DejaVuSans-41"/>
     </g>
    </g>
    <g id="line2d_38">
     <path d="M 161.9 369.620313 
L 181.9 369.620313 
" style="fill:none;stroke:#ff0000;stroke-dasharray:7.4,3.2;stroke-dashoffset:0;stroke-opacity:0.8;stroke-width:2;"/>
    </g>
    <g id="line2d_39"/>
    <g id="text_19">
     <!-- Chance -->
     <defs>
      <path d="M 54.890625 33.015625 
L 54.890625 0 
L 45.90625 0 
L 45.90625 32.71875 
Q 45.90625 40.484375 42.875 44.328125 
Q 39.84375 48.1875 33.796875 48.1875 
Q 26.515625 48.1875 22.3125 43.546875 
Q 18.109375 38.921875 18.109375 30.90625 
L 18.109375 0 
L 9.078125 0 
L 9.078125 75.984375 
L 18.109375 75.984375 
L 18.109375 46.1875 
Q 21.34375 51.125 25.703125 53.5625 
Q 30.078125 56 35.796875 56 
Q 45.21875 56 50.046875 50.171875 
Q 54.890625 44.34375 54.890625 33.015625 
z
" id="DejaVuSans-104"/>
     </defs>
     <g transform="translate(189.9 373.120313)scale(0.1 -0.1)">
      <use xlink:href="#DejaVuSans-67"/>
      <use x="69.824219" xlink:href="#DejaVuSans-104"/>
      <use x="133.203125" xlink:href="#DejaVuSans-97"/>
      <use x="194.482422" xlink:href="#DejaVuSans-110"/>
      <use x="257.861328" xlink:href="#DejaVuSans-99"/>
      <use x="312.841797" xlink:href="#DejaVuSans-101"/>
     </g>
    </g>
   </g>
  </g>
 </g>
 <defs>
  <clipPath id="p60d0f96990">
   <rect height="373.4" width="439.4" x="53.8" y="10.8"/>
  </clipPath>
 </defs>
</svg>
